<?xml version="1.0" standalone="no"?>
<!DOCTYPE svg PUBLIC "-//W3C//DTD SVG 1.1//EN" "http://www.w3.org/Graphics/SVG/1.1/DTD/svg11.dtd" >
<svg xmlns="http://www.w3.org/2000/svg" xmlns:xlink="http://www.w3.org/1999/xlink" version="1.1">
<metadata>
Created by FontForge 20161003 at Fri Dec  8 05:29:00 2017
 By www-data
Copyright (c) 2016 by Youssef Habchi. All rights reserved.
</metadata>
<defs>
<font id="Blacksword" horiz-adv-x="467" >
  <font-face 
    font-family="Blacksword"
    font-weight="400"
    font-stretch="normal"
    units-per-em="1000"
    panose-1="0 0 0 0 0 0 0 0 0 0"
    ascent="800"
    descent="-200"
    x-height="395"
    cap-height="846"
    bbox="-1807.02 -519 5619 1081"
    underline-thickness="50"
    underline-position="-150"
    unicode-range="U+000D-2122"
  />
<missing-glyph horiz-adv-x="253" 
 />
    <glyph glyph-name="a_z" unicode="az" horiz-adv-x="847" 
d="M221 83q20 56 59 108q-39 -39 -139.5 -118.5t-128.5 -79.5q-2 0 -8 3q-14 7 -29 29.5t-15 37.5q0 55 63.5 133t163 138.5t186.5 60.5q34 0 60.5 -15.5t26.5 -47.5q0 -24 -18 -47q-2 0 -3 1q11 20 11 36q0 46 -49 43q-83 -4 -196 -100q-43 -37 -84.5 -88.5t-61.5 -86
t-15 -37.5q2 -1 6 0q23 8 103 64t123 92q1 1 27.5 25.5t47.5 43t33 24.5q14 7 34 -19.5t16 -37.5q-3 5 -27.5 -22.5t-54 -69t-43.5 -71.5q-10 -23 -10 -34q57 16 190 141q90 83 132 136q-5 12 -5 26q0 27 10.5 50t21 34t15.5 11q12 0 27.5 -14t15.5 -29q0 -9 -65 -81
q8 -8 38 -8q55 0 126.5 21t86.5 48q4 6 19 -9.5t26 -37.5t5 -31q-56 -7 -207 -95t-197 -140q37 20 103 20q62 0 115 -21.5t75 -67.5q3 -8 0 -8q-2 0 -3 2q-38 64 -171 64q-44 0 -89 -17t-73 -34.5t-32 -17.5q-11 0 -26.5 21t-11.5 33q14 43 132.5 132t205.5 127
q-35 -8 -67 -8q-46 0 -64 17q-43 -50 -80 -85q-12 -12 -42 -41t-48 -46t-45.5 -43t-47 -41.5t-41 -31.5t-37.5 -23.5t-27 -7.5q-8 0 -17 6q-12 7 -22.5 20.5t-10.5 26.5q0 11 7 37z" />
    <glyph glyph-name="c_z" unicode="cz" horiz-adv-x="747" 
d="M81 53q0 -20 29 -17q50 6 130 54.5t159 114.5q46 39 67.5 60t52.5 60q-5 18 -5 26q0 27 10.5 50t21 34t15.5 11q13 0 28 -14t15 -29q0 -9 -65 -81q8 -8 38 -8q55 0 126.5 21t87.5 48q3 6 18 -9.5t26 -37.5t5 -31q-56 -7 -206 -95t-198 -140q37 20 103 20q62 0 115 -21.5
t76 -67.5q3 -8 -1 -8q-1 0 -3 2q-38 64 -170 64q-45 0 -89.5 -17t-72.5 -34.5t-32 -17.5q-12 0 -27.5 21t-11.5 33q14 43 132.5 132t205.5 127q-34 -8 -66 -8q-45 0 -65 17q-38 -45 -82 -84q-48 -42 -67.5 -59t-72 -58.5t-85.5 -61.5t-76.5 -38t-75.5 -18q-24 0 -46.5 19
t-26.5 43q-2 15 2 30q7 35 35.5 83t75.5 94q62 60 132 96.5t123 36.5q16 0 36 -18.5t20 -30.5q0 -17 -15.5 -38t-29 -32.5t-37.5 -29.5q-2 -2 -3.5 -0.5t-0.5 3.5q12 13 33 55t15 47q-50 -1 -124 -61t-126.5 -131t-52.5 -106z" />
    <glyph glyph-name="d_z" unicode="dz" horiz-adv-x="902" 
d="M387 395q28 0 45 -17q79 124 173 246q46 61 83 91q23 20 37 20q43 2 75 -33q10 -11 6 -12q-1 -1 -4 1q-11 5 -26.5 -3.5t-35 -29t-34 -38.5t-34.5 -44q-9 -12 -13 -17q-48 -61 -134 -187q-160 -242 -192 -327q45 3 192 141q86 80 132 139q-5 18 -5 26q0 27 10.5 50t21 34
t15.5 11q12 0 27.5 -14t15.5 -29q0 -9 -65 -81q8 -8 38 -8q55 0 126.5 21t87.5 48q3 6 18 -9.5t26 -37.5t5 -31q-56 -7 -206.5 -95t-197.5 -140q37 20 103 20q62 0 115 -21.5t76 -67.5q2 -8 -1 -8l-3 2q-38 64 -170 64q-45 0 -89.5 -17t-72.5 -34.5t-32 -17.5
q-12 0 -27.5 21t-11.5 33q14 43 132.5 132t205.5 127q-34 -8 -66 -8q-45 0 -65 17q-35 -42 -104 -111q-181 -189 -234 -206q-15 -5 -33 4q-7 4 -19 15.5t-16 21.5q-3 6 -3 15q0 34 71 162q-6 -5 -52.5 -45.5t-88.5 -76t-88 -67t-64 -31.5q-13 0 -31.5 25.5t-18.5 42.5
q0 43 59.5 122t135.5 129q127 83 205 83zM357 259l65 105q-20 7 -41 0q-60 -16 -164 -116q-41 -39 -78.5 -86t-55.5 -76.5t-14 -32.5q5 -3 52 26.5t114 80.5t122 99z" />
    <glyph glyph-name="e_z" unicode="ez" horiz-adv-x="734" 
d="M112 135q-36 -44 -40 -79q-2 -19 30 -19q41 0 126 51t153 111q99 87 130 126q-6 14 -6 26q0 27 10.5 50t21 34t16.5 11q12 0 27 -14t15 -29q0 -9 -65 -81q8 -8 38 -8q55 0 126.5 21t87.5 48q4 6 19 -9.5t25.5 -37.5t4.5 -31q-56 -7 -206.5 -95t-198.5 -140q37 20 104 20
q62 0 115 -21.5t76 -67.5q3 -8 -1 -8q-1 0 -3 2q-37 64 -170 64q-45 0 -89.5 -17t-72.5 -34.5t-32 -17.5q-11 0 -26.5 21t-11.5 33q15 44 133 133t205 126q-35 -8 -67 -8q-45 0 -65 17q-34 -40 -65 -67q-47 -44 -81.5 -74t-96 -78t-118 -74t-100.5 -26q-24 0 -47.5 21.5
t-23.5 41.5q0 30 13 66q40 90 138 173q58 48 118.5 74t96.5 26q15 0 38 -16t23 -35q0 -30 -51.5 -79.5t-125 -89t-127.5 -40.5zM383 365q-75 -24 -150 -91.5t-107 -118.5q39 5 101 49.5t107.5 93t48.5 67.5z" />
    <glyph glyph-name="f_z" unicode="fz" horiz-adv-x="615" 
d="M401 324q6 -9 37 -9q53 0 123 20.5t85 47.5q4 6 19 -9.5t25.5 -37.5t4.5 -31q-56 -7 -206.5 -95t-198.5 -140q37 20 104 20q63 0 116 -21.5t75 -67.5q3 -8 -1 -8q-1 0 -3 2q-37 64 -170 64q-45 0 -89.5 -17t-72.5 -34.5t-32 -17.5q-11 0 -26.5 21t-11.5 33q15 44 133 133
t205 126q-31 -6 -62 -6q-45 0 -63 17q-30 -36 -108 -85t-157 -78q13 -37 13 -97q0 -28 -5 -60q-16 -81 -53 -159t-80.5 -134.5t-88.5 -101t-78 -67t-47 -23.5h-3q-14 -1 -30 17.5t-17 32.5q-2 43 78 217.5t198 376.5q-18 16 1 45.5t43 29.5q133 217 272 396q49 64 83 91
q23 20 37 20q43 2 75 -33q10 -11 6 -12q-1 -1 -4 1q-11 5 -26.5 -3.5t-35 -29t-34 -38.5t-34.5 -44q-9 -12 -13 -17q-51 -65 -103.5 -142.5t-153.5 -233.5q77 22 149.5 65.5t104.5 78.5q-5 18 -5 26q0 27 10.5 50t21 34t15.5 11q13 0 28 -14t15 -29q0 -9 -65 -81zM-195 -431
q2 -1 10 4q49 37 93.5 80t90 100.5t78 128.5t44.5 146q3 15 3 35q0 61 -19 86q-80 -128 -170.5 -303t-127.5 -264q-2 -4 -3 -7t-0.5 -4.5t1.5 -1.5z" />
    <glyph glyph-name="h_z" unicode="hz" horiz-adv-x="866" 
d="M453 631q-83 -94 -181.5 -232.5t-154.5 -250.5q81 86 186.5 163.5t133.5 77.5q17 0 34.5 -28t8.5 -37q-24 -18 -102 -132t-80 -146q60 17 192 143q38 35 80 78.5t51 57.5q-5 12 -5 26q0 27 10.5 50t21 34t15.5 11q12 0 27.5 -14t15.5 -29q0 -9 -65 -81q8 -8 38 -8
q55 0 126.5 21t86.5 48q4 6 19 -9.5t26 -37.5t5 -31q-56 -7 -207 -95t-197 -140q37 20 103 20q62 0 115 -21.5t75 -67.5q3 -8 0 -8q-2 0 -3 2q-38 64 -171 64q-44 0 -89 -17t-73 -34.5t-32 -17.5q-11 0 -26.5 21t-11.5 33q14 43 132.5 132t205.5 127q-35 -8 -67 -8
q-46 0 -64 17q-23 -28 -129 -134q-140 -138 -195 -169q-16 -10 -34 -15q-8 -2 -14 0q-15 5 -29.5 25.5t-14.5 34.5q0 40 58 132.5t101 131.5q-99 -45 -216 -156l-50 -51q-47 -50 -62 -86q-15 -33 16 -37q-15 -6 -33 5q-6 3 -18.5 16t-17.5 24q-9 23 29 106q69 157 283 442
q61 84 121 134q24 18 39 18q42 0 73 -36q10 -12 6 -13q-1 -1 -4 1q-28 14 -88 -54z" />
    <glyph glyph-name="i_z" unicode="iz" horiz-adv-x="618" 
d="M33 -7q-7 0 -11 1q-13 4 -27.5 19.5t-14.5 28.5q0 42 80 164.5t130 162.5q6 6 14 6q18 0 40.5 -23t22.5 -42q0 -3 -4 -1l-4 2t-5 1q-27 3 -102.5 -111t-87.5 -154q56 15 195 143q80 73 128 135q-6 14 -6 26q0 27 10.5 50t21.5 34t17 11q12 0 27 -14t15 -29q0 -9 -65 -81
q8 -8 38 -8q55 0 126.5 21t86.5 48q4 6 19 -9.5t26 -37.5t6 -31q-57 -7 -207.5 -95t-198.5 -140q37 20 104 20q62 0 115 -21.5t75 -67.5q3 -8 0 -8q-2 0 -3 2q-37 64 -171 64q-44 0 -89 -17t-72.5 -34.5t-31.5 -17.5q-12 0 -27.5 21t-10.5 33q14 43 132 132t205 127
q-35 -8 -67 -8q-45 0 -63 17q-57 -65 -120 -126q-195 -189 -246 -193zM298 528q26 4 57 -32q5 -5 8.5 -11t4 -9.5t-0.5 -4.5l-3 1q-2 0 -4.5 0.5t-6.5 0t-8 -2.5q-12 -5 -39 -28.5t-36 -36.5q-11 -12 -23 -3t-13 24q-1 22 21.5 59t42.5 43z" />
    <glyph glyph-name="m_z" unicode="mz" horiz-adv-x="1072" 
d="M501 -7q-16 0 -34 21t-18 36q0 40 59 136.5t102 135.5q-79 -54 -152.5 -130t-112.5 -122.5t-49 -46.5q-11 0 -28.5 19t-17.5 33q0 31 48 115.5t95 127.5q-120 -73 -266 -237l-35 -41q-42 -49 -18 -60q-21 -5 -39 12t-25 40q-6 20 28 80q73 138 158 238q20 25 39 40
q5 5 13 5q19 0 41 -22.5t22 -41.5q0 -3 -4 -1q-1 1 -2 1.5t-2.5 1t-3.5 0.5q-12 2 -34 -25q-30 -33 -81 -107.5t-73 -111.5q48 64 169.5 173t152.5 116q2 1 6 1q15 0 33 -26t10 -34q-40 -42 -90.5 -124.5t-50.5 -108.5q74 94 184.5 199t140.5 105q17 0 35 -28.5t8 -36.5
q-24 -19 -102.5 -135t-78.5 -146q71 16 266 208q23 23 63 73q-6 14 -6 26q0 27 10.5 50t21 34t16.5 11q12 0 27 -14t15 -29q0 -10 -64 -81q8 -8 38 -8q55 0 126.5 21t86.5 48q4 6 19 -9.5t26 -37.5t5 -31q-56 -7 -207 -95t-199 -140q37 20 104 20q63 0 116 -21.5t75 -67.5
q3 -8 0 -8q-2 0 -3 2q-38 64 -171 64q-44 0 -89 -17t-73 -34.5t-32 -17.5q-11 0 -26.5 21t-11.5 33q14 43 132.5 132t205.5 127q-35 -8 -67 -8q-46 0 -64 17q-60 -71 -126 -132q-45 -43 -71 -67.5t-63.5 -57t-63.5 -47.5t-43 -15z" />
    <glyph glyph-name="n_z" unicode="nz" horiz-adv-x="888" 
d="M515 325q-24 -19 -102.5 -132.5t-79.5 -145.5q74 36 164.5 115t159.5 163q-5 18 -5 26q0 27 10.5 50t21 34t15.5 11q12 0 27.5 -14t15.5 -29q0 -9 -65 -81q8 -8 38 -8q55 0 126.5 21t87.5 48q3 6 18 -9.5t26 -37.5t5 -31q-56 -7 -206.5 -95t-197.5 -140q37 20 103 20
q62 0 115 -21.5t76 -67.5q2 -8 -1 -8l-3 2q-38 64 -170 64q-45 0 -89.5 -17t-72.5 -34.5t-32 -17.5q-12 0 -27.5 21t-11.5 33q14 43 132.5 132t205.5 127q-34 -8 -66 -8q-45 0 -65 17q-32 -37 -126 -133q-184 -184 -241 -184q-13 0 -31 21q-19 25 -19 39q0 40 62.5 135.5
t105.5 135.5q-58 -27 -150.5 -100.5t-152.5 -137.5q-5 -6 -11 -13t-13.5 -15.5t-11.5 -13.5q-44 -55 -18 -66q-21 -5 -38.5 12.5t-23.5 41.5q-5 19 28 80q30 62 95 152q66 93 106 124q5 5 13 5q19 0 41 -22.5t22 -41.5q0 -3 -4 -1q-1 1 -2 1.5t-2.5 1t-3.5 0.5
q-16 1 -81 -80q-95 -128 -113 -164q10 16 50 56q86 84 192 164.5t131 80.5q17 0 34.5 -28t8.5 -37z" />
    <glyph glyph-name="o_z" unicode="oz" horiz-adv-x="804" 
d="M615 347q29 -19 74 -19q3 0 42 3q31 3 70.5 22t46.5 30q3 6 18 -9.5t26 -37.5t5 -31q-56 -7 -206.5 -95t-198.5 -140q37 20 104 20q62 0 115 -21.5t76 -67.5q3 -8 -1 -8q-1 0 -3 2q-38 64 -170 64q-45 0 -89.5 -17t-72.5 -34.5t-32 -17.5q-12 0 -27 21t-11 33
q14 43 132 132t205 127q-69 -5 -112 34q-51 -57 -100 -71q-28 -9 -61 -9q-20 0 -28 4q-13 -63 -75.5 -129t-137.5 -105.5t-128 -36.5q-33 2 -54.5 25.5t-21.5 53.5q0 78 61.5 155.5t149.5 124t166 46.5q43 0 63 -17q3 -3 -2 -3q-6 0 -14 1.5t-12 1.5q-83 0 -176 -85.5
t-140 -174.5t-19 -101q38 -16 123 66.5t143 172.5q-16 35 -10 49q3 9 20 24.5t26 16.5q6 1 14 -3t9 -7q32 -55 82 -51q30 0 61 19t50 46q-6 14 -6 26q0 27 10.5 50t21 34t16.5 11q12 0 27 -14t15 -29q0 -5 -13.5 -22.5t-31.5 -37.5t-19 -21z" />
    <glyph glyph-name="r_z" unicode="rz" horiz-adv-x="788" 
d="M82 266q58 84 103 122q9 5 15 5q18 0 40 -22.5t22 -41.5q0 -2 -3 -1q-1 1 -2 1.5t-3 1t-4 0.5q-16 1 -79 -78q-70 -96 -83 -120q70 93 239 215q62 44 89 47q9 1 30 -21.5t15 -28.5q-2 -3 -25 -25.5t-40.5 -41.5t-39.5 -49.5t-33 -57.5q59 4 143 75q44 39 73 79
q-5 18 -5 26q0 27 10.5 50t21 34t15.5 11q12 0 27 -14t15 -29q0 -8 -25 -37t-40 -44q8 -8 38 -8q55 0 127 21t88 48q3 6 17.5 -9.5t25.5 -37.5t6 -31q-56 -7 -206.5 -95t-198.5 -140q37 20 104 20q62 0 115 -21.5t76 -67.5q3 -8 -1 -8q-1 0 -3 2q-38 64 -170 64
q-45 0 -89.5 -17t-72.5 -34.5t-33 -17.5q-11 0 -26.5 21t-11.5 33q14 43 132.5 132t205.5 127q-35 -8 -67 -8q-44 0 -64 17q-54 -64 -138 -125q-68 -48 -108 -48q-13 0 -31 18.5t-18 28.5q0 20 18.5 56t39.5 60q-68 -40 -111.5 -75.5t-95.5 -93.5q-42 -46 -72.5 -96
t-15.5 -57q-20 -5 -37 12t-23 40q-3 15 14 51q34 75 110 183z" />
    <glyph glyph-name="s_z" unicode="sz" horiz-adv-x="684" 
d="M479 389q-10 -24 27 -43t84 -16q41 3 83 22t47 31q4 6 19 -9.5t26 -37.5t5 -31q-57 -7 -212.5 -95.5t-202.5 -139.5q37 20 107 20q65 0 120 -21.5t77 -67.5q3 -8 -1 -8q-1 0 -3 2q-37 64 -170 64q-45 0 -88 -17t-69 -34.5t-30 -17.5q-12 0 -35.5 28t-17.5 39
q30 57 170 148t217 114q-45 -14 -103 -14q-70 0 -89 16q-17 15 -2.5 38.5t41.5 29.5zM105 173q-28 -19 -59.5 -49.5t-50 -54t-14.5 -26.5q21 2 80.5 28t107.5 59t34 49q-10 11 -59 34t-56 38q-13 31 22.5 68t92 60t101.5 20q19 -1 29.5 -24.5t8.5 -47.5q-1 -12 -36.5 -42.5
t-53.5 -30.5q-1 1 -2 4q2 0 18.5 18t33.5 39.5t18 29.5q-34 3 -111 -40q-71 -40 -69 -62q1 -5 6 -8t43.5 -20.5t61.5 -39t18 -47.5q-7 -34 -64.5 -70.5t-121.5 -57.5t-96 -17q-12 2 -28 22.5t-16 31.5q0 22 51.5 67t103.5 70q11 5 12 4t-5 -5z" />
    <glyph glyph-name="t_z" unicode="tz" horiz-adv-x="641" 
d="M308 561l47 63q48 62 84 91q23 20 37 20q43 2 75 -33q10 -11 6 -12q-1 -1 -4 1q-12 5 -27.5 -3t-37.5 -32.5t-34 -39.5t-36 -47q128 6 270.5 -1.5t244.5 -28.5l7 -3h-7q-310 27 -549 -9q-48 -64 -109 -155q-152 -228 -186 -323q33 -4 145 98q142 132 179 178q-6 14 -6 26
q0 27 10.5 50t21 34t16.5 11q12 0 27 -14t15 -29q0 -5 -13.5 -22.5t-31.5 -37.5t-19 -21q8 -8 37 -8q54 0 126 21t88 48q4 6 19 -9.5t25.5 -37.5t4.5 -31q-56 -7 -206.5 -95t-197.5 -140q37 20 104 20q62 0 115 -21.5t75 -67.5q3 -8 -1 -8q-1 0 -3 2q-37 64 -170 64
q-45 0 -89.5 -17t-72.5 -34.5t-32 -17.5q-11 0 -26.5 21t-11.5 33q15 44 133 133t205 126q-35 -8 -67 -8q-45 0 -65 17q-28 -33 -94 -97.5t-83 -82.5q-118 -120 -166 -137q-13 -5 -32 4q-7 3 -19 16t-17 24q-3 6 -3 15q0 53 168 318q30 48 92 134q-89 -20 -123 -56
q-17 -18 -3 -26q-15 0 -33 14.5t-20 36.5q-3 31 60 53t158 33z" />
    <glyph glyph-name="u_z" unicode="uz" horiz-adv-x="892" 
d="M256 91q36 91 92 163q-10 -10 -44 -45t-49 -50t-45.5 -45t-48 -45.5t-40 -34t-39 -28t-28.5 -11.5h-9q-12 0 -29 17t-17 34q0 31 33 95.5t78 127.5q59 83 102 117q6 6 15 6q18 0 40 -23t22 -42q0 -3 -4 -1q-1 1 -2 1.5t-2.5 1t-3.5 0.5q-10 1 -35 -26t-57 -68
q-40 -53 -70.5 -107.5t-30.5 -75.5q33 13 93 62.5t105 93.5q9 9 79.5 82.5t104.5 99.5q6 5 14 5q18 0 40 -22.5t22 -41.5q0 -2 -3 -1q-1 1 -2.5 1.5t-3.5 1t-4 0.5q-10 0 -33 -23q-28 -32 -76 -96q-37 -51 -61.5 -98t-24.5 -68q30 9 83 49t104 90q100 96 132 138
q-6 14 -6 26q0 27 10.5 50t21 34t15.5 11q13 0 27.5 -14t14.5 -29q0 -5 -13 -22t-31.5 -37.5t-18.5 -21.5q8 -8 37 -8q54 0 126 21t88 48q3 6 18 -9.5t26 -37.5t5 -31q-56 -7 -206.5 -95t-197.5 -140q37 20 104 20q62 0 115 -21.5t75 -67.5q3 -8 -1 -8q-1 0 -3 2
q-38 64 -170 64q-45 0 -89.5 -17t-72.5 -34.5t-32 -17.5q-12 0 -27 21t-11 33q14 43 132 132t205 127q-34 -8 -66 -8q-45 0 -65 17q-27 -32 -70 -75q-144 -144 -194 -186q-71 -58 -101 -58q-10 0 -17 6q-12 7 -24 21.5t-12 27.5q0 10 11 43z" />
    <glyph glyph-name="t_t" unicode="tt" horiz-adv-x="473" 
d="M157 372q36 57 82 122q-40 -10 -68.5 -22t-39.5 -21t-10 -15q1 -11 -18 -2q-29 15 -32 46q-3 50 213 77l51 67q49 64 83 91q25 20 37 20q43 2 75 -33q12 -13 6 -12q-1 0 -3 1q-11 5 -26 -3t-32 -25.5t-33.5 -36.5t-33.5 -41q-9 -12 -14 -18q105 7 136 6l39 51
q45 61 83 91q23 20 37 20q43 2 75 -33q10 -11 6 -12q-1 -1 -4 1q-10 5 -25 -2.5t-31 -23.5t-31.5 -34.5t-32.5 -40.5q-9 -12 -14 -18q253 -4 380 -56q-97 19 -185 23q-143 6 -219 2q-34 -44 -120 -169q-154 -233 -186 -323q12 -1 37 13.5t61 45t61 52.5t64.5 59.5t44.5 41.5
t7 -1v-5q-61 -69 -152.5 -157.5t-130.5 -102.5q-15 -6 -32 4q-7 3 -19.5 16t-16.5 24q-4 8 -4 15q0 29 56 130q-161 -168 -218 -189q-15 -6 -32 4q-7 3 -19.5 16.5t-16.5 23.5q-3 6 -3 15q0 55 168 318zM390 372q46 73 112 162h-2q-88 -8 -144 -16q-37 -49 -102 -146
q-151 -228 -186 -323q13 -2 39.5 14t69 53t63 55.5t65.5 60.5q58 98 85 140z" />
    <glyph glyph-name="t_l" unicode="tl" horiz-adv-x="489" 
d="M168 372q41 64 102 149q-48 -13 -83 -28t-49.5 -26.5t-13.5 -17.5q0 -11 -17 -3q-26 14 -30 44q-5 47 223 72q9 13 26.5 36.5t19.5 25.5q48 62 84 91q23 20 37 20q42 2 74 -33q10 -11 7 -12q-1 -1 -4 1q-11 5 -25.5 -2t-36.5 -30.5t-31.5 -35t-35.5 -44.5q-5 -7 -8 -10
q55 0 97 -6q25 -4 23 -8q-2 -5 -21 -5q-58 0 -119 -7q-48 -62 -121 -171q-151 -226 -187 -323q38 -5 251 196q38 64 78 127q71 109 178 252q47 61 83 91q25 20 38 20q42 2 74 -33q10 -11 7 -12q-1 -1 -4 1q-8 0 -13 1.5t-14.5 -5.5t-16 -11.5t-17 -15.5t-17.5 -18.5
t-17.5 -20.5t-17 -21.5t-16.5 -21t-15 -19.5q-53 -66 -134 -187q-151 -226 -187 -323q12 -1 37 13.5t61 44.5t61.5 53t64 59.5t44.5 41.5q5 4 7 -1v-5q-57 -66 -150 -156t-133 -104q-14 -6 -32 4q-7 3 -19.5 16.5t-16.5 23.5q-3 6 -3 15q0 31 64 146q-67 -70 -134.5 -131.5
t-98.5 -73.5q-14 -6 -32 4q-7 3 -19.5 16.5t-16.5 23.5q-3 6 -3 15q0 55 168 318z" />
    <glyph glyph-name="f_j" unicode="fj" horiz-adv-x="473" 
d="M63 -281q51 118 158.5 299.5t209.5 297.5q-70 -52 -157 -98t-147 -67q13 -37 13 -97q0 -28 -5 -60q-16 -81 -53 -159t-80.5 -134.5t-88.5 -101t-78 -67t-47 -23.5h-3q-14 -1 -30 17.5t-17 32.5q-2 43 78 217.5t198 376.5q-18 16 1 45.5t43 29.5q133 217 272 396
q49 64 83 91q23 20 37 20q43 2 75 -33q10 -11 6 -12q-1 -1 -4 1q-11 5 -26.5 -3.5t-35 -29t-34 -38.5t-34.5 -44q-9 -12 -13 -17q-51 -65 -103.5 -142.5t-153.5 -233.5l1 -2q40 4 166 71.5t186 115.5l23 21q7 6 15 6q17 0 39.5 -23t22.5 -42q0 -3 -3 -1q-1 1 -2 1.5t-2.5 1
t-3.5 0.5q-13 1 -34 -23q-111 -117 -207 -268.5t-218 -376.5q57 78 169.5 190.5t135.5 119.5l5 -6q-97 -77 -212 -232t-125 -199q-3 -3 -12 -3q-26 -3 -40.5 24t-10.5 45q4 30 43 116zM-195 -431q2 -1 10 4q49 37 93.5 80t90 100.5t78 128.5t44.5 146q3 15 3 35q0 61 -19 86
q-80 -128 -170.5 -303t-127.5 -264q-2 -4 -3 -7t-0.5 -4.5t1.5 -1.5zM633 551q27 4 58 -32q13 -17 11 -25h-2q-3 1 -5 1.5t-6 0t-8 -2.5q-12 -5 -39 -28.5t-36 -36.5q-11 -12 -23 -3t-13 24q-1 22 21.5 59t41.5 43z" />
    <glyph glyph-name="y_j" unicode="yj" horiz-adv-x="638" 
d="M499 309q-32 -33 -127 -152q-93 -116 -297 -493q55 76 142 159.5t112 91.5q79 144 169.5 275t170.5 199q7 6 15 6q18 0 40.5 -23t22.5 -42q0 -3 -4 -1l-4 2t-5 1q-11 2 -34 -23q-110 -117 -207 -270.5t-216 -374.5q56 77 168.5 190t135.5 120l5 -6q-97 -77 -211.5 -231.5
t-125.5 -199.5q-3 -3 -11 -3q-26 -3 -40.5 23.5t-12.5 45.5q5 30 44 116q25 60 89 178q-93 -78 -177 -197t-94 -163q-3 -3 -11 -3q-26 -3 -40.5 24t-10.5 45q3 30 42 116q53 118 143.5 276t184.5 265q-10 -10 -34.5 -35.5t-38 -38.5t-37 -37t-38.5 -38t-36 -34t-35.5 -31.5
t-30.5 -23.5t-28.5 -18.5t-22.5 -8.5h-9q-12 0 -29 17t-17 34q0 31 33 95.5t78 127.5q53 76 100 114q6 6 15 6q17 0 39 -23t22 -42q0 -3 -3 -1q-1 1 -2 1.5t-2.5 1t-3.5 0.5q-10 1 -34 -24t-57 -67q-39 -54 -69.5 -108t-30.5 -75q33 14 93.5 63.5t103.5 92.5q10 10 82 82.5
t105 98.5q7 6 14 6q18 0 40.5 -23t22.5 -42q0 -2 -4 -1q-4 3 -7 3q-12 1 -35 -23zM801 543q27 0 53 -43q11 -17 9 -22l-9 3q-15 5 -43 -23q-13 -11 -45 -43q-10 -10 -26.5 7.5t-15.5 32.5q2 22 29 53t48 35z" />
    <glyph glyph-name="q_j" unicode="qj" horiz-adv-x="600" 
d="M221 -281q38 85 104 205t162.5 259t173.5 206q7 6 15 6q17 0 40 -23t23 -42q-1 -2 -1.5 -1.5t-4 2t-6.5 1.5q-11 1 -35 -23q-77 -81 -157 -197t-132.5 -207.5t-133.5 -240.5q56 77 168.5 190t136.5 120l4 -6q-96 -77 -211.5 -232t-125.5 -199q-1 -3 -11 -3
q-26 -3 -40.5 24t-11.5 45q4 30 43 116zM792 551q25 3 58 -32q4 -5 7.5 -11t4 -9.5t-0.5 -4.5h-3q-2 1 -4.5 1.5t-6.5 0t-8 -2.5q-12 -5 -38.5 -28.5t-36.5 -36.5q-10 -12 -22.5 -3t-13.5 24q-1 22 21.5 59t42.5 43zM319 -90q-96 -78 -186 -203t-99 -169q-1 -2 -13 -4
q-25 -3 -39.5 24t-11.5 46q5 30 44 116q43 95 115 220.5t156 231.5q-70 -62 -147 -120.5t-101 -58.5q-13 0 -33 26.5t-20 43.5q0 41 39 98.5t97.5 109.5t134.5 89t142 37q35 0 62.5 -15t27.5 -48q0 -20 -19 -48q-1 -1 -2 0t0 2q9 22 9 36q0 22 -13 34t-36 10
q-84 -4 -196 -101q-44 -37 -86.5 -91.5t-63.5 -92t-16 -40.5q8 -5 101.5 62t140.5 109q2 1 28.5 26t48 44t33.5 25q14 7 34.5 -20t17.5 -38q-2 2 -11 -5.5t-29.5 -30t-54.5 -61.5q-57 -66 -167 -242.5t-145 -249.5l-1 -1q54 76 142.5 161.5t111.5 92.5z" />
    <glyph glyph-name="g_j" unicode="gj" horiz-adv-x="609" 
d="M214 -281q38 85 104 205t162.5 259t173.5 206q7 6 14 6q18 0 40.5 -23t22.5 -42q0 -2 -4 -1q-4 3 -7 3q-12 2 -35 -23q-111 -117 -207 -269.5t-216 -375.5q56 77 168.5 190t135.5 120l5 -6q-97 -77 -212 -232t-125 -199q-2 -3 -12 -3q-26 -3 -40 23.5t-11 45.5
q4 30 43 116zM785 551q25 3 58 -32q4 -5 7.5 -11t4 -9.5t-0.5 -4.5h-2q-3 1 -5.5 1.5t-6.5 0t-8 -2.5q-12 -5 -39 -28.5t-36 -36.5q-10 -12 -22.5 -3t-13.5 24q-1 22 21.5 59t42.5 43zM405 197l-61 -113q44 16 66 23q19 6 23 1q1 -1 -3 -3q-1 -1 -2 -1q-19 -8 -54 -22.5
t-41 -17.5q-44 -76 -81.5 -136.5t-88.5 -129t-98.5 -117.5t-104.5 -88t-112 -54q-15 -4 -33 -4q-30 0 -49 14.5t-19 44.5q0 18 7 39q30 94 160.5 204.5t306.5 194.5l106 189l-3 -1q-2 -2 -6.5 -5.5t-10 -8t-12 -9.5t-11.5 -10q-54 -51 -126 -107q-113 -87 -137 -87
q-6 0 -10 3q-14 9 -28.5 30.5t-14.5 36.5q0 55 64 133t163.5 138.5t185.5 60.5q35 0 62 -15.5t27 -47.5q0 -20 -19 -47q-1 1 -2 1q10 22 10 36q0 46 -49 43q-81 -4 -196 -100q-44 -37 -84 -87.5t-59.5 -85.5t-14.5 -39q4 -4 88 51q64 43 128 97q90 76 101 81
q13 6 36.5 -20.5t20.5 -36.5q-2 1 -4 1.5t-7.5 -6.5t-13.5 -23zM-135 -388q146 79 338 389q-290 -153 -391 -340q-16 -29 -16 -44q0 -19 22 -19q19 0 47 14z" />
    <glyph glyph-name="j_j" unicode="jj" horiz-adv-x="381" 
d="M-23 -281q41 88 95 188q-88 -90 -174 -212.5t-95 -157.5q-3 -3 -11 -3q-26 -3 -41 24t-12 45q5 30 44 116q68 150 198.5 362t242.5 308q6 6 14 6q18 0 40.5 -23t22.5 -42q0 -3 -4 -1l-4 2t-5 1q-11 2 -34 -23q-111 -117 -207 -269.5t-216 -375.5q44 59 124.5 143.5
t137.5 134.5q180 322 325 447q6 6 15 6q17 0 39.5 -23t22.5 -42q0 -3 -4 -1q-1 1 -2 1.5t-2.5 1t-3.5 0.5q-13 2 -34 -23q-112 -117 -208.5 -270.5t-214.5 -374.5q56 77 168.5 190t135.5 120l5 -6q-97 -77 -212 -232t-125 -199q-3 -3 -11 -3q-27 -3 -41.5 23.5t-11.5 45.5
q3 23 43 116zM549 551q25 3 58 -32q4 -5 7.5 -11t4 -9.5t-0.5 -4.5h-2q-3 1 -5.5 1.5t-6.5 0t-8 -2.5q-12 -5 -38.5 -28.5t-36.5 -36.5q-10 -12 -22.5 -3t-13.5 24q-1 22 21.5 59t42.5 43zM354 551q27 4 58 -32q4 -5 7.5 -11t4 -9.5t-0.5 -4.5h-3q-2 1 -4 1.5t-6 0t-8 -2.5
q-12 -5 -39 -28.5t-36 -36.5q-11 -12 -23.5 -3t-13.5 24q-1 22 22 59t42 43z" />
    <glyph glyph-name="E_z" unicode="Ez" horiz-adv-x="1238" 
d="M1034 715q-3 -55 -49 -113t-110.5 -94t-119.5 -36q-17 0 -31 14t-12 29q1 14 27 37t44 30q-22 -22 -27 -41q-2 -5 1 -5q22 0 81 30.5t114.5 80.5t57.5 92q1 38 -32.5 52.5t-78.5 14.5q-79 0 -184.5 -58t-179 -132.5t-74.5 -121.5q0 -32 22.5 -54.5t58 -33.5t68 -15.5
t63.5 -4.5q8 0 -6 -21q-19 -27 -39 -27q-88 0 -214.5 -70.5t-220 -165.5t-94.5 -159q-1 -31 19.5 -50t62.5 -23q85 -9 232 52.5t281 146.5t237 170q58 46 91 86q-5 18 -5 26q0 27 10.5 50t21 34t15.5 11q12 0 27 -14t15 -29q0 -8 -25 -37t-40 -44q8 -8 38 -8q55 0 127 21
t88 48q3 6 17.5 -9.5t25.5 -37.5t6 -31q-56 -7 -206.5 -95t-198.5 -140q37 20 104 20q62 0 115 -21.5t76 -67.5q3 -8 -1 -8q-1 0 -3 2q-38 64 -170 64q-45 0 -89.5 -17t-72.5 -34.5t-33 -17.5q-11 0 -26.5 21t-11.5 33q14 43 132.5 132t205.5 127q-35 -8 -67 -8
q-44 0 -64 17q-34 -39 -100 -95q-60 -50 -124.5 -99t-155 -109.5t-173 -105t-170.5 -74.5t-154 -29q-73 1 -116 43t-35 100q7 58 50.5 118t105.5 107.5t132 86.5t134 62t107 27q-22 3 -48.5 12.5t-54.5 27t-44.5 46t-12.5 62.5q11 84 99.5 164.5t202.5 127.5t207 47
q31 0 55.5 -4t48.5 -15.5t36.5 -36t10.5 -60.5z" />
    <glyph glyph-name="C_z" unicode="Cz" horiz-adv-x="1252" 
d="M1075 707q0 -48 -43 -105t-103.5 -95.5t-108.5 -38.5q-19 0 -30.5 19.5t-11.5 44.5q0 16 24 42t32 26q1 0 -6 -9.5t-12.5 -20.5t-2.5 -15q57 0 141 57t84 113q0 34 -27 52.5t-74 18.5q-75 0 -169.5 -40t-186 -105.5t-180 -151t-154 -173t-103 -175.5t-32.5 -156
q9 -107 147 -107q130 0 321.5 94.5t370.5 238.5q61 48 105 104q-5 18 -5 26q0 27 10.5 50t21 34t15.5 11q12 0 27 -14t15 -29q0 -8 -25 -37t-40 -44q8 -8 38 -8q55 0 127 21t88 48q3 6 17.5 -9.5t25.5 -37.5t6 -31q-56 -7 -206.5 -95t-198.5 -140q37 20 104 20
q62 0 115 -21.5t76 -67.5q3 -8 -1 -8q-1 0 -3 2q-38 64 -170 64q-45 0 -89.5 -17t-72.5 -34.5t-33 -17.5q-11 0 -26.5 21t-11.5 33q14 43 132.5 132t205.5 127q-35 -8 -67 -8q-44 0 -64 17q-29 -33 -82 -82q-76 -67 -169.5 -135.5t-199 -132t-210 -103t-180.5 -37.5
q-88 2 -145 43.5t-61 127.5q-6 101 53.5 219.5t161 224t221.5 193.5t246.5 139.5t225.5 51.5q68 0 107.5 -29t39.5 -85z" />
    <glyph glyph-name="i_t" unicode="it" horiz-adv-x="458" 
d="M618 567q118 9 280.5 2t274.5 -30l7 -3h-7q-340 30 -590 -15q-32 -41 -105 -149q-151 -226 -187 -323q9 -1 25 7t38 24t42.5 32.5t47.5 41t44 40.5t41 38.5t30 28.5q5 4 8 -1q0 -3 -1 -5q-57 -66 -150 -156t-133 -104q-13 -5 -32 4q-7 3 -19.5 16.5t-16.5 23.5
q-3 6 -3 15q0 29 56 131q-183 -187 -242 -192q-7 0 -12 1q-13 4 -27 19.5t-14 28.5q0 42 79.5 164.5t129.5 162.5q6 6 15 6q17 0 40 -23t23 -42q-1 -2 -1.5 -1.5t-4.5 2t-7 1.5q-27 3 -102.5 -111t-87.5 -154q24 6 72 42t79.5 64t85.5 77q28 51 86 142l76 113q-9 5 -19 17
q-20 22 0.5 36t73.5 23l47 63q48 62 84 91q23 20 37 20q43 2 75 -33q10 -11 6 -12q-1 -1 -4 1q-14 7 -38 -11.5t-44 -42t-47 -58.5q-3 -4 -5 -6.5t-4 -5.5zM290 528q27 4 58 -32q13 -17 11 -25l-3 1q-2 0 -4 0.5t-6 0t-8 -2.5q-12 -5 -39 -28.5t-36 -36.5q-11 -12 -23 -3
t-13 24q-1 22 21.5 59t41.5 43z" />
    <glyph glyph-name="j_t" unicode="jt" horiz-adv-x="434" 
d="M121 126q-5 -7 -13 -21l-12 -21q44 16 67 23q19 6 23 1q1 -1 -3 -3q-1 -1 -2 -1q-48 -19 -96 -40q-43 -77 -80 -136.5t-87.5 -129t-97.5 -118.5t-104 -88t-113 -54q-15 -4 -33 -4q-30 0 -49 15t-19 45q0 17 7 38q31 94 161 204.5t303 194.5q12 19 32 55t27 47
q108 188 136 225q22 27 39 28q17 2 40.5 -22.5t23.5 -43.5q0 -3 -3 -1q-1 1 -2 1.5t-2.5 1t-3.5 0.5q-14 2 -34 -23q-29 -35 -105 -173zM579 569q128 6 272 -1.5t248 -28.5l7 -3h-7q-312 28 -552 -9q-40 -50 -110 -155q-151 -226 -187 -323q12 -1 37 13.5t61 44.5t61.5 53
t64 59.5t44.5 41.5q5 4 7 -1v-5q-57 -66 -150 -156t-133 -104q-14 -6 -32 4q-7 3 -19.5 16.5t-16.5 23.5q-3 6 -3 15q0 55 168 318l76 113q-9 5 -19 17q-20 22 0.5 36t73.5 23l47 63q47 61 83 91q25 20 38 20q42 2 74 -33q10 -11 7 -12q-1 -1 -4 1q-12 5 -27 -2.5t-38.5 -34
t-33 -38t-37.5 -47.5zM-379 -389q145 78 335 389q-287 -151 -390 -340q-14 -27 -14 -43q0 -20 22 -20q19 0 47 14zM293 551q26 4 57 -32q4 -5 7.5 -11t4.5 -9.5t0 -4.5l-4 1q-4 1 -8.5 0.5t-9.5 -2.5q-12 -5 -39 -28.5t-36 -36.5q-11 -12 -23 -3t-13 24q-1 22 21.5 59
t42.5 43z" />
    <glyph glyph-name="l_t" unicode="lt" horiz-adv-x="475" 
d="M156 372q75 117 178 252q49 64 83 91q25 20 37 20q43 2 75 -33q10 -11 6 -12q-1 -1 -4 1q-10 5 -23 -1t-31 -24.5t-29 -31t-33.5 -40.5t-27.5 -35q-48 -61 -134 -187q-151 -228 -186 -323q38 -5 253 198q35 60 77 125q30 48 84 124q-72 -20 -74 -35q1 -8 18 -19
q-15 0 -33 14.5t-20 36.5q-1 16 11.5 28t40.5 19.5t47.5 11.5t55.5 9q97 127 131 154q25 20 37 20q43 2 75 -33q10 -11 6 -12q-1 -1 -4 1q-11 5 -26.5 -3t-38 -33t-34 -39t-36.5 -48q118 8 273 0.5t263 -29.5l7 -3h-7q-330 29 -572 -12q-46 -60 -107 -152
q-151 -228 -186 -323q12 -1 37 13.5t61 45t61 52.5t64.5 59.5t44.5 41.5t7 -1v-5q-56 -64 -150 -155t-133 -105q-15 -6 -32 4q-7 3 -19.5 16.5t-16.5 23.5q-3 6 -3 15q0 33 65 149q-177 -187 -235 -208q-15 -6 -32 4q-7 3 -19.5 16.5t-16.5 23.5q-3 6 -3 15q0 55 168 318z
" />
    <glyph glyph-name="preview" unicode="Blacksword" horiz-adv-x="5672" 
d="M1810 83q21 61 59 108q-38 -38 -139.5 -118t-128.5 -80q-2 0 -8 3q-14 7 -29 29.5t-15 37.5q0 32 25 76q-126 -126 -174 -144q-13 -5 -32 4q-7 3 -19.5 16.5t-16.5 23.5q-3 6 -3 15q0 56 168 318q63 99 178 252q48 62 84 91q23 20 37 20q43 2 75 -33q10 -11 6 -12
q-1 -1 -4 1q-8 0 -13 1.5t-14.5 -5.5t-16 -11.5t-17 -15.5t-17.5 -18.5t-17.5 -20.5t-17 -21.5t-16.5 -21t-15 -19.5q-60 -77 -134 -187q-152 -228 -186 -323q9 -1 25 7t37.5 24t42 32.5t47.5 41t44 40.5t41 38.5t30 28.5q151 134 286 134q34 0 60.5 -15.5t26.5 -47.5
q0 -24 -18 -47q-2 0 -3 1q11 20 11 36q0 22 -13.5 33.5t-36.5 9.5q-82 -4 -195 -100q-43 -37 -84.5 -88.5t-61.5 -86t-15 -37.5q1 -1 6 0q23 8 102 63.5t124 92.5q87 81 108 93q14 7 33.5 -20t15.5 -37q-2 5 -26.5 -22.5t-54 -69t-43.5 -71.5q-11 -26 -11 -34q52 15 183 134
q27 42 67 80q61 60 130.5 96.5t123.5 36.5q16 0 36.5 -18.5t20.5 -30.5q0 -17 -16 -38t-29 -32t-38 -30q-2 -2 -3.5 -0.5t-0.5 3.5q13 13 34 55t15 47q-50 -1 -124 -61t-126.5 -131t-52.5 -106q0 -20 29 -17q84 9 291 171q-3 17 0 29q9 18 46 28q101 169 205 308
q76 101 128 143q23 18 38 18q44 0 75 -37q9 -11 6 -12q-1 -1 -4 1q-37 18 -125 -93l-59 -76q-57 -73 -192 -280q63 66 139 121.5t110 55.5q16 0 32.5 -23t16.5 -40q0 -36 -53 -84t-126.5 -81t-127.5 -28q87 -146 260 -273t376.5 -201.5t384.5 -77.5q196 -3 366 71t268 226
l9 9q2 2 -2 -5q-1 -2 -2 -5q-86 -154 -267 -243t-371 -89q-289 0 -600 157.5t-484 382.5q-3 -6 -9 -15.5t-10 -17t-9.5 -17t-9 -17t-7 -16t-4 -14.5t0.5 -11t5.5 -8t11.5 -4q-15 -6 -33 5q-6 2 -17.5 15t-16.5 25q-12 25 29 106l8 16l9 18l8 16q-220 -197 -333 -197
q-24 0 -47 19t-27 43q-2 15 2 30q3 18 14 43q-139 -135 -187 -135q-7 0 -16 6q-12 7 -22.5 20.5t-10.5 26.5q0 11 7 37zM4053 266l18 26q-27 -18 -54 -26q-28 -9 -59 -9q-20 0 -30 4q-13 -63 -75 -129t-137 -105.5t-128 -36.5q-34 2 -55.5 25.5t-21.5 53.5q0 78 61.5 155.5
t149.5 124t166 46.5q42 0 62 -17q4 -3 -2 -3q-3 0 -12 1.5t-14 1.5q-82 0 -175 -85.5t-140 -174.5t-18 -101q38 -16 122.5 66.5t142.5 172.5q-5 8 -9 25t-1 24q2 8 19 24t26 17q16 1 24 -10q33 -55 83 -51q42 4 98 36q39 47 62 67q8 5 15 5q17 0 39 -22.5t22 -41.5
q0 -3 -3 -1q-1 1 -2 1.5t-2.5 1t-3.5 0.5q-16 1 -79 -78q-72 -98 -84 -120q71 92 239 215q62 44 90 47q9 1 29.5 -21.5t15.5 -28.5q-2 -3 -25 -25.5t-40.5 -41.5t-39.5 -49.5t-33 -57.5q60 4 153 82q35 34 74 59q121 80 203 80q31 0 47 -18q51 79 161 215q77 95 117 126
q28 18 38 18q44 0 75 -37q9 -11 6 -12q-1 -1 -4 1q-13 7 -34.5 -6t-46.5 -40t-47.5 -54t-46.5 -58q-4 -6 -7 -9.5t-6.5 -8t-6.5 -8.5q-161 -198 -246 -350q-24 -44 -32.5 -79t-2.5 -52q10 -29 58 -29q78 0 247 75.5t296.5 147t160.5 96.5q4 3 47 32t83 56l39 27l-10 -10
q-105 -86 -151 -117q-107 -72 -229 -142.5t-266 -133t-234 -70.5q-29 -3 -56.5 3.5t-49 28.5t-21.5 56q2 71 66 172l-13 -12l-1 -1q-57 -51 -153 -127.5t-123 -76.5q-14 0 -33 25t-19 43q0 48 69 133q-76 -57 -120 -57q-13 0 -31 18.5t-18 28.5q0 20 18.5 56t39.5 60
q-68 -40 -111.5 -75.5t-95.5 -93.5q-42 -45 -73 -95.5t-16 -57.5q-20 -5 -36.5 12t-22.5 40q-3 15 14 51q34 75 110 183zM1165 629q-11 -8 -22.5 -17.5t-21 -17t-22.5 -20t-20.5 -19.5t-22.5 -22t-20.5 -21t-22 -23.5t-20.5 -22t-22 -24.5t-21 -23q89 29 185.5 73.5
t174 97.5t84.5 90q5 26 -15.5 46.5t-53.5 32.5t-63 18.5t-54 7.5q-106 7 -238 -37.5t-223 -109t-93 -113.5q-4 -41 34 -49q0 -5 -22 -5q-36 0 -56 21.5t-16 57.5q5 42 48 88.5t112 87t171 67.5t211 27q17 0 55 -2q59 -4 112.5 -21.5t93 -57.5t36.5 -95q-3 -48 -42 -90.5
t-97 -70t-102 -43t-81 -23.5q5 1 34 -1q37 -3 73.5 -12t73.5 -26t59.5 -46.5t21.5 -66.5q-2 -76 -80 -152t-197.5 -134t-258 -104t-269 -70.5t-223.5 -24.5q-31 0 -56 3q-67 8 -104 35.5t-33 80.5q3 49 57.5 105t125.5 98t136.5 71.5t95.5 33.5q1 -1 -1 -1q0 -1 -2 -1l-4 -2
q-46 -21 -103 -54t-120 -76t-106 -90.5t-45 -85.5t99 -45q12 -1 38 -1q121 0 292.5 46t322.5 112.5t261 146.5t115 143q2 24 -16 42t-48.5 28.5t-60.5 16t-61 7.5q-13 1 -38 1q-82 0 -184 -24q-4 -4 -28.5 -32t-37 -42.5t-37 -43t-38.5 -46.5t-30 -39.5t-23.5 -35.5
t-7.5 -21q0 -5 8 -5q23 -2 66 18q-16 -15 -44 -32t-43 -17q-32 0 -31 34q2 66 156.5 273.5t278.5 296.5q27 18 41 16q44 -4 73 -42q9 -12 6 -13q-1 0 -4 2q-15 8 -46 -12zM3112 355q-35 3 -119.5 -50.5t-94.5 -87.5q-1 -5 0.5 -10t5.5 -10t7.5 -8t9.5 -8t7 -6q114 65 225 95
l6 10q53 83 88 109q4 4 11 2q20 -5 38 -25q25 -25 25 -42l-1.5 -1.5t-3.5 1.5l-3 2q-17 4 -38 -21q-34 -34 -84.5 -123t-57.5 -128q30 51 132 163t147 142q18 12 48 -21q26 -26 26 -43q0 -2 -10 1t-34 -19q-9 -9 -29 -42q-26 -42 -85 -176q236 280 458 471
q159 138 320 237.5t249 99.5q79 0 78 -90q-16 55 -80 55q-86 0 -239 -92t-313 -235q-296 -263 -449 -476q-31 -39 -36 -39q-21 -1 -40 22t-19 33q-1 32 19 93t54 117q-13 -16 -41 -47t-54.5 -64t-62.5 -85q-11 -16 -24 -37t-18.5 -28.5t-6.5 -3.5q-22 0 -42.5 17t-22.5 26
q-3 72 81 215q-139 -49 -202 -86q13 -10 25 -28t10 -32q-10 -45 -83 -81.5t-128 -36.5q-29 0 -38 40q2 28 73.5 76.5t111.5 64.5q-1 1 -21 18.5t-32 36.5t-8 39q12 55 95.5 103t152.5 48q19 0 30 -25t8 -50q-1 -12 -36.5 -43t-54.5 -31q-1 1 -2 4q2 0 19 18t34.5 40.5
t18.5 31.5zM2244 -117q-174 12 -284 12q-148 0 -305 -16q-311 -31 -531 -95t-220 -120q0 -13 17 -27q-32 2 -60 23.5t-29 44.5q-1 41 77.5 79.5t200 65.5t246 45.5t236.5 26.5q107 8 258 8q255 0 427 -25q97 -14 192 -37.5t113 -41.5q1 -1 -49 10.5t-135.5 27t-153.5 19.5z
M4696 259q40 63 66 101q-18 8 -44 1q-60 -15 -161 -113q-42 -39 -80 -87.5t-56.5 -79.5t-13.5 -34q8 -5 95.5 56.5t132.5 101.5zM2769 369q-43 -10 -132.5 -84t-111.5 -100l8 -16q61 8 135.5 77.5t100.5 122.5zM2912 148q-115 -65 -163 -113q39 11 101 49.5t62 63.5z" />
    <glyph glyph-name=".notdef" horiz-adv-x="253" 
 />
    <glyph glyph-name=".null" horiz-adv-x="0" 
 />
    <glyph glyph-name="nonmarkingreturn" horiz-adv-x="333" 
 />
    <glyph glyph-name="NULL" horiz-adv-x="0" 
 />
    <glyph glyph-name="NULL" horiz-adv-x="0" 
 />
    <glyph glyph-name="CR" unicode="&#xd;" horiz-adv-x="253" 
 />
    <glyph glyph-name="space" unicode=" " horiz-adv-x="253" 
 />
    <glyph glyph-name="exclam" unicode="!" horiz-adv-x="436" 
d="M623 698q-24 10 -119.5 -106.5t-179.5 -245.5t-84 -154q0 -5 5 -5q4 0 10.5 3.5t11 7t4.5 2.5q0 -2 -7.5 -10t-19 -15.5t-20.5 -7.5q-11 0 -17 9t-6 20q0 56 72 188t157.5 241.5t120.5 109.5q42 0 72 -37zM237 86q-19 -3 -50.5 -46t-35.5 -44q-14 -3 -28 7t-17 24
q-4 22 15.5 52.5t42.5 35.5q15 3 41 -6t32 -23z" />
    <glyph glyph-name="quotedbl" unicode="&#x22;" horiz-adv-x="325" 
d="M342 771q0 2 3 2q17 0 44.5 -7t27.5 -19q0 -24 -72.5 -82t-99.5 -58q-5 0 -5 4q12 8 57 76t45 84zM457 771q0 2 2 2q19 0 46.5 -7t27.5 -19q0 -24 -72.5 -82t-100.5 -58q-6 0 -6 4q12 8 57.5 76t45.5 84z" />
    <glyph glyph-name="numbersign" unicode="#" horiz-adv-x="1038" 
d="M1067 653q-7 1 -42 -27t-84.5 -76t-84.5 -93q45 0 116 -6.5t124 -14t53 -11.5q0 -3 -20 -1q-4 0 -109.5 5t-168.5 3l-16 -1q-39 -43 -112 -142q58 0 131 -8.5t120.5 -18.5t48.5 -15h-1q-2 0 -5.5 -0.5t-5.5 -0.5q-124 4 -177 5q-86 0 -145 -8q-51 -68 -101.5 -152.5
t-91.5 -161t-47 -85.5q-7 -11 -10 -14q-3 42 51 173.5t115 230.5q-16 -2 -132 -18q-26 -36 -79.5 -136t-52.5 -120q0 -4 2 -5q1 0 30 13q3 1 4 0.5t-2 -3.5q-41 -38 -61 -42q-15 -3 -23.5 6t-7.5 27q5 52 98 242q-64 -16 -108 -33q-5 -6 6.5 -9t23.5 -3q-30 -11 -57 -12
q-26 -2 -47.5 8.5t-22.5 27.5q-1 18 30.5 36t77.5 30t81.5 19t56.5 10q29 52 72 118q-63 -12 -120.5 -28.5t-104.5 -33t-51 -17.5q-14 -4 -19.5 2t-6.5 23q-3 40 76.5 64.5t263.5 48.5q138 202 198 240q16 9 24 9q29 1 48 -9.5t24 -19.5q-11 4 -89 -86.5t-101 -126.5
q14 0 41 1t47 1.5t34 0.5q2 2 17 20t24.5 30t28 33t32.5 36.5t32.5 34.5t33.5 31.5t30 22.5t26 14q1 0 2.5 0.5t5 0.5h9.5q30 0 48.5 -9t19.5 -20zM638 290q27 42 94 134q-23 -1 -45.5 -3.5t-50 -6.5t-45.5 -6q-36 -48 -87 -126q12 1 39 3t42 3q34 2 53 2z" />
    <glyph glyph-name="dollar" unicode="$" horiz-adv-x="732" 
d="M114 -169q0 33 28 101q-50 1 -90 22t-40 67q0 40 50.5 90t117 90t138.5 71q7 13 86 140q-50 17 -77.5 38.5t-27.5 54.5q0 59 56.5 108.5t128.5 75.5t143 34q53 61 79 80t45 19q33 0 51 -37q-20 1 -81 -66q63 -17 63 -65q0 -58 -54.5 -124t-119.5 -66q-13 0 -24 10t-11 26
q0 11 21.5 37t38.5 35q-23 -35 -24 -41q26 0 77.5 54t51.5 92q0 24 -31 28q-120 -131 -239 -291q115 -37 155 -60q67 -42 67 -103q0 -69 -58.5 -130.5t-143.5 -100t-170.5 -62t-148.5 -25.5q-14 -27 -28.5 -55t-20.5 -39l-6 -11q-2 0 -2 3zM456 306q-17 0 -81 -28
q-91 -137 -162 -266q93 21 193 66t170.5 99.5t70.5 96.5q0 32 -30.5 56t-57.5 33.5t-89 27.5q-9 3 -13 4q-28 -37 -69 -97q38 11 56 11q11 -1 12 -3zM112 -1q28 0 63 6q50 106 123 234q-96 -54 -166 -113t-70 -101q0 -26 50 -26zM361 488q0 -35 55 -56q110 170 177 251
q-86 -35 -159 -94.5t-73 -100.5z" />
    <glyph glyph-name="percent" unicode="%" horiz-adv-x="834" 
d="M221 433q43 0 94 32.5t87.5 64.5t44.5 32q3 0 3 -8q0 -7 -21.5 -36.5t-54 -64.5t-80.5 -62t-92 -27q-42 0 -69 29.5t-27 72.5q0 64 49 132t119.5 111t132.5 43q35 0 60.5 -20t25.5 -57q0 -22 -10 -49.5t-21 -44t-15 -16.5q-2 0 3 9t12.5 32.5t7.5 49.5q0 55 -46 55
q-45 0 -103.5 -44.5t-98.5 -105t-40 -103.5q0 -25 39 -25zM513 11q34 0 73.5 20t67.5 44.5t53 44.5t33 20q3 0 3 -7q0 -8 -21.5 -37t-54.5 -64t-80.5 -62t-91.5 -27q-42 0 -69 29t-27 72q0 64 49 132t119.5 111t132.5 43q35 0 60 -20t25 -56q0 -23 -10 -50t-20.5 -43.5
t-13.5 -16.5t2 9t12.5 32t7.5 49q0 55 -47 55q-45 0 -103.5 -44.5t-98.5 -105t-40 -103.5q0 -25 39 -25zM141 12q0 63 145.5 243.5t314.5 336t229 155.5q17 0 36 -15t27 -32q-42 5 -218.5 -153.5t-335 -331.5t-158.5 -208q0 -9 7 -9q11 0 22 4t17 7.5t6 2.5q0 -2 -10 -9.5
t-26 -15t-30 -7.5q-10 0 -18 10.5t-8 21.5z" />
    <glyph glyph-name="ampersand" unicode="&#x26;" horiz-adv-x="1109" 
d="M937 386q-107 -122 -195 -240.5t-136 -199t-81.5 -143.5t-48 -93t-18.5 -30q-2 0 -2 3q-2 49 92 241.5t218 360.5q-43 -42 -92 -85.5t-120.5 -99t-138 -97t-140 -70t-131.5 -28.5q-53 0 -95.5 28.5t-43.5 81.5q-1 52 47 114t118 112.5t140.5 88.5t120.5 53
q-50 2 -101 31.5t-52 78.5q-2 81 93 165t224 134.5t232 50.5q105 0 116 -73q8 -52 -38 -110t-112 -95t-118 -37q-12 0 -28.5 15.5t-17.5 38.5q0 22 46 47q-10 -13 -10 -25q0 -7 7 -7q39 0 135.5 62.5t104.5 114.5q3 26 -19.5 38t-54.5 12q-69 0 -183 -54t-203 -131t-88 -134
q1 -35 53.5 -56.5t114.5 -21.5q11 0 30 3l20 2q3 -1 0.5 -9.5t-9 -18.5t-10.5 -10q-80 -11 -185 -71t-183.5 -138t-89.5 -135q-10 -40 14.5 -58t62.5 -15q77 5 171.5 48t184 107.5t157.5 122t124 112.5q-50 -10 -104 -27l-1 -6q-22 -9 -37 -9q-11 0 -31.5 8t-20.5 18
q-1 3 6 18q15 21 92 40.5t161 25.5q94 102 128 102q17 0 36.5 -11.5t27.5 -25.5q-21 -1 -87 -63q78 -2 143.5 -11.5t94 -18.5t28.5 -12h-5h-14.5t-31.5 0.5t-55 0.5q-133 0 -212 -10z" />
    <glyph glyph-name="quotesingle" unicode="'" horiz-adv-x="307" 
d="M346 643q0 1 2 1q16 -2 43 -16t25 -27q-3 -29 -82 -84.5t-107 -50.5q-4 1 -5.5 2t-0.5 3q14 8 68 80t57 92z" />
    <glyph glyph-name="parenleft" unicode="(" horiz-adv-x="457" 
d="M535 724q-47 -39 -96.5 -92.5t-104.5 -132.5t-98 -163.5t-71 -190.5t-28 -209q0 -21 1 -41q1 -11 -2 -11q-6 0 -13 22.5t-12 63t-5 82.5q0 103 34.5 214t89.5 205.5t115.5 171.5t120.5 132q61 54 100 76q29 15 42 12q42 -6 67 -47q10 -15 5 -15q-1 0 -3 2
q-26 19 -137 -75q-3 -3 -5 -4z" />
    <glyph glyph-name="parenright" unicode=")" horiz-adv-x="454" 
d="M397 749q-25 73 -52 73q-11 -1 -1 6q24 17 64 13l10 -2q14 -4 24 -12q55 -41 58 -192q3 -122 -45 -246.5t-122 -218.5t-156.5 -168t-151.5 -111t-102 -32q27 11 82.5 54.5t128 119.5t136.5 165t107 203.5t40 222.5q-2 54 -20 125z" />
    <glyph glyph-name="asterisk" unicode="*" horiz-adv-x="602" 
d="M436 546q-39 -30 -71.5 -57t-51.5 -43.5t-33.5 -30t-21.5 -20t-12.5 -11.5t-8.5 -6t-7 -1q-10 0 -20.5 15t-10.5 29q0 7 8.5 18t25 25.5t32 27t38 30.5t34.5 28q-106 -14 -117 -14q-13 0 -26.5 10t-13.5 22q0 23 32.5 30.5t173.5 19.5h5t5 0.5t6 0.5q-10 23 -26 68.5
t-16 54.5q0 16 14 29t31 13q6 0 9 -4.5t6.5 -16.5t6.5 -27t11 -42t18 -55q85 57 168.5 103t131 66.5t58.5 20.5q1 -1 -22.5 -18.5t-60 -43t-75 -53t-73 -52.5t-48.5 -37q212 0 212 -17q0 -1 -28.5 -5t-103 -14t-136.5 -19q29 -101 76 -215q-20 17 -60 79.5t-59 111.5z" />
    <glyph glyph-name="plus" unicode="+" horiz-adv-x="693" 
d="M213 193q-18 0 -32.5 18t-14.5 34q0 31 232 62q136 208 173 208q16 0 32 -7.5t16 -16.5q0 -6 -25 -35.5t-62 -72.5t-56 -71q8 0 23 0.5t22 0.5q65 0 115.5 -5t70.5 -10t20 -8t-58.5 -12t-138 -21t-115.5 -21q-49 -57 -92 -114.5t-62 -85.5l-19 -29q-4 0 8 31t38 84
t56 100q-16 -3 -67 -16t-64 -13z" />
    <glyph glyph-name="comma" unicode="," horiz-adv-x="312" 
d="M108 80q0 2 4 2q13 0 30.5 -17t17.5 -41q0 -25 -79.5 -83t-116.5 -58q-10 0 -5 8q13 6 81 89.5t68 99.5z" />
    <glyph glyph-name="hyphen" unicode="-" horiz-adv-x="555" 
d="M225 204q-16 0 -27.5 19t-11.5 36t59 24.5t122 7.5q40 0 92 -6.5t87.5 -15.5t35.5 -15q0 -3 -2 -3q-76 0 -159.5 -11.5t-137.5 -23.5t-58 -12z" />
    <glyph glyph-name="period" unicode="." horiz-adv-x="279" 
d="M200 74q-15 0 -36.5 -21t-39 -42.5t-21.5 -21.5q-14 -1 -26.5 14t-13.5 30q-2 21 22 49t46 30q16 1 40 -11.5t29 -26.5z" />
    <glyph glyph-name="slash" unicode="/" horiz-adv-x="430" 
d="M785 809q-33 15 -196 -186t-312 -425t-149 -269q0 -11 8 -11q16 0 50 21q-14 -17 -34.5 -31t-33.5 -14q-12 0 -21 11.5t-9 26.5q0 55 83 207t189 307.5t209.5 277.5t139.5 122q44 0 76 -37z" />
    <glyph glyph-name="zero" unicode="0" horiz-adv-x="661" 
d="M-16 76q-1 97 46 204.5t121 197t159 163.5t166 116t136 42q17 0 34 -15t27 -35q53 -8 81.5 -48.5t28.5 -96.5q0 -94 -62 -215.5t-153.5 -225t-206.5 -175t-213 -71.5q-74 0 -118.5 42t-45.5 117zM650 717q-83 0 -191 -68t-199.5 -168t-155 -223t-63.5 -224q0 -88 85 -88
q65 0 168.5 76.5t197.5 183.5t162.5 231t68.5 210q0 70 -73 70z" />
    <glyph glyph-name="one" unicode="1" horiz-adv-x="471" 
d="M41 262l-1 4q64 44 96 69q91 72 183.5 164t148.5 157t102.5 111t66.5 46h6q36 -1 65 -32h-9q-40 -7 -124 -112t-184 -267q-213 -348 -233 -465q-9 -43 18 -47q-31 -12 -63 13q-26 20 -19 66q20 122 127 309q52 93 100 166q-95 -82 -171.5 -132t-108.5 -50z" />
    <glyph glyph-name="two" unicode="2" horiz-adv-x="666" 
d="M668 784q-63 0 -161 -57t-169 -124t-71 -98q0 -11 9.5 -14t24 1t24.5 8t19 9q-10 -11 -34.5 -26t-46.5 -22q-27 -8 -50.5 4t-23.5 40q0 19 13 45q33 62 111 123.5t172 100t170 38.5q117 0 117 -108q0 -64 -52.5 -147.5t-128 -159t-167 -151t-160 -124.5t-117.5 -79
q85 22 199 22q8 0 21 -0.5t18 -0.5q69 -3 125.5 -21t82.5 -36.5t29 -31.5l-7 5q-7 5 -22 13t-35.5 16t-54 14t-72.5 6q-92 0 -184 -15.5t-159 -37.5t-121 -44.5t-86 -38t-36 -15.5q-12 0 -22.5 21.5t-11 39.5t6.5 21q63 0 216 98.5t306.5 226.5t271.5 257t118 184
q0 35 -15.5 46.5t-46.5 11.5z" />
    <glyph glyph-name="three" unicode="3" horiz-adv-x="647" 
d="M343 613q0 -19 31 -10q24 7 41 24q-8 -19 -32 -35t-50 -20q-21 -3 -38 11.5t-17 37.5q0 48 54 96t134 77.5t155 29.5q51 0 82 -23t31 -73q0 -128 -274 -268q75 -1 117 -34t42 -88q0 -75 -62.5 -155.5t-152 -140t-190.5 -98.5t-176 -39q-27 0 -47.5 3t-44 12t-36 30
t-10.5 53q4 63 70 133t142 112.5t118 42.5q2 0 3 -1q0 -1 -1 -2q-26 0 -95.5 -44.5t-133 -110.5t-63.5 -113q0 -26 19 -35.5t59 -9.5q79 0 177.5 45.5t178 108t134 130.5t54.5 110q0 33 -23 51t-56 18q-60 0 -134 -24t-90 -24q-21 0 -30 33q-7 29 7 34q1 1 3 1
q54 0 163 53.5t201.5 123t103.5 110.5q6 26 -13 38.5t-49 12.5q-53 0 -110.5 -23.5t-98 -54.5t-67 -60.5t-26.5 -44.5z" />
    <glyph glyph-name="four" unicode="4" horiz-adv-x="629" 
d="M595 314q-65 0 -103 -6q-54 -91 -104 -207t-60 -178q-9 -44 18 -48q-31 -12 -64 13q-26 20 -19 67q9 57 49 165t72 170q-137 -26 -230 -52.5t-123.5 -40.5t-31.5 -14q-6 0 -25 26t-10 33q70 46 184.5 123t292.5 206.5t252 198.5q54 52 74 54q22 1 44 -8.5t34 -23.5
q-12 6 -45 -24q-54 -53 -120 -142q-25 -33 -56.5 -83t-51.5 -85.5t-45 -80.5t-26 -47q12 1 38 1q52 0 97.5 -7t57.5 -17q-29 7 -99 7zM398 320q22 49 92.5 166t121.5 180q-398 -350 -472 -391q103 31 258 45z" />
    <glyph glyph-name="five" unicode="5" horiz-adv-x="656" 
d="M436 783q0 9 7 10.5t12 -3.5q1 0 5.5 -4t7.5 -6t10 -6.5t14 -7t18 -6t23.5 -5.5t29 -4t35.5 -2q59 0 106 12.5t68 28.5t17 30q20 -5 40.5 -27t20.5 -41t-55.5 -40t-114.5 -21q-137 0 -198 52q-66 -110 -144 -224q59 19 112 19q85 0 142 -46.5t57 -122.5q0 -87 -59.5 -175
t-150 -152.5t-199.5 -105.5t-205 -41q-58 0 -100 26t-42 72q0 49 48.5 107t116.5 104t136.5 80t113.5 45q25 6 23 -1q-1 0 -5 -1t-5 -2q-42 -11 -128 -62.5t-165 -127t-79 -130.5q0 -36 63 -36q123 0 259 72t224 175t88 189q0 46 -31.5 78t-87.5 32q-39 -1 -80.5 -14.5
t-67 -28t-49.5 -29.5t-27 -16q-33 -2 -57 28q-12 17 -4 18q27 0 142 142.5t115 167.5z" />
    <glyph glyph-name="six" unicode="6" horiz-adv-x="610" 
d="M620 557q-17 0 -41 24.5t-26 42.5q-1 11 2 16q0 -5 6 -10t13 -5q53 0 115 32t61 74q-1 55 -86 44q-85 -12 -201 -96t-215 -195.5t-166 -240.5t-60 -222q5 -67 73 -75q55 -7 144 51t160 145.5t78 156.5q5 43 -23 61.5t-69 18.5q-45 0 -94 -19t-86.5 -45.5t-69 -53t-48 -43
t-16.5 -14.5q-1 12 28.5 44.5t75.5 69t113.5 64.5t131.5 28q61 0 101.5 -32t38.5 -96q-3 -87 -81 -176.5t-186 -143t-197 -48.5q-142 8 -145 158q-3 84 43.5 187.5t124.5 198t170.5 174.5t191.5 128t178 48q45 0 78.5 -23t34.5 -67q1 -63 -49.5 -112t-102.5 -49z" />
    <glyph glyph-name="seven" unicode="7" horiz-adv-x="541" 
d="M288 422q-79 -15 -125.5 -42.5t-48.5 -47.5q-1 -8 -18 4q-27 19 -24 47q7 72 269 97q131 142 225 210q-65 -13 -117 -13q-44 0 -79 8t-53.5 18.5t-31 22.5t-16.5 19t-4 9t2 2l5 -5q5 -5 15.5 -12t25.5 -14.5t40.5 -12.5t56.5 -5q57 0 158.5 23t179.5 52t77 44
q7 0 14 -18.5t10.5 -37t0.5 -18.5q-14 0 -67.5 -30.5t-142 -95.5t-173.5 -142q20 0 42 -1t42 -2.5t26 -1.5q63 -4 116.5 -16.5t77 -23t22.5 -14.5l-11 3q-12 4 -47.5 10t-83.5 10q-30 3 -71 3q-65 0 -161 -11q-273 -273 -335 -515q-11 -44 16 -48q-37 -12 -62.5 13.5
t-16.5 70.5q18 112 133 286q46 68 134 175z" />
    <glyph glyph-name="eight" unicode="8" horiz-adv-x="587" 
d="M341 541q-9 105 51.5 188t159.5 93q51 6 77.5 -7.5t29.5 -36.5q3 -31 -13 -38l-4 1q-1 20 -21.5 28.5t-46.5 5.5q-76 -9 -118 -75t-35 -143q2 -25 14 -68q79 31 137.5 74t86.5 82.5t40 69.5t10 46q-1 4 1 6t3 -2l1 -3q5 -42 -10 -83t-39.5 -72.5t-65 -66t-73 -56.5
t-78.5 -50q36 -132 42 -189q2 -22 2 -34q0 -115 -83 -203t-219 -109q-23 -4 -50 -4q-76 0 -129 37.5t-60 102.5q-6 57 20.5 114t68.5 100.5t102 85t110.5 68t104.5 49.5q-11 41 -16 89zM371 392q-28 -14 -68.5 -38.5t-96.5 -65.5t-100.5 -83t-74.5 -92.5t-25 -93.5
q9 -91 112 -91q10 0 34 2q38 4 84 30.5t86 65.5t65 93t20 106q-7 69 -36 167z" />
    <glyph glyph-name="nine" unicode="9" horiz-adv-x="647" 
d="M95 -44q144 48 279 190.5t223 321.5q-94 -94 -195 -151t-186 -59q-43 -1 -73.5 23t-32.5 69q-4 70 53.5 154t143 151t185 114.5t175.5 51.5q120 6 123 -49q1 -34 -37 -56q17 26 17 39t-16 19t-33 5q-92 -5 -224 -85t-229 -185t-97 -176q0 -54 80 -43q69 9 150 65
t141.5 124t101.5 131.5t40 90.5q-1 24 32 10q29 -12 37 -30q1 -3 1 -6q-1 -36 -24 -102.5t-63 -150t-102 -171.5t-134.5 -164t-167.5 -130.5t-193 -68.5q-27 -3 -57 1.5t-57.5 23.5t-32.5 49q-7 40 17 88.5t63.5 88.5t81.5 71.5t73 44.5q2 1 3 1q3 -1 -1 -4
q-57 -33 -133 -120.5t-64 -145.5q6 -31 48.5 -38.5t83.5 8.5z" />
    <glyph glyph-name="colon" unicode=":" horiz-adv-x="462" 
d="M383 295q-19 -1 -56 -43t-40 -42q-14 -1 -26.5 14t-14.5 30q-2 21 22 49t47 30q17 1 40.5 -11.5t27.5 -26.5zM273 116q-19 -1 -56 -42.5t-40 -41.5q-14 -1 -26.5 13.5t-14.5 29.5q-2 22 22 50t47 30q16 0 40 -13t28 -26z" />
    <glyph glyph-name="semicolon" unicode=";" horiz-adv-x="387" 
d="M156 71q0 2 4 2q11 0 28.5 -17t17.5 -41q0 -25 -78.5 -83t-117.5 -58q-7 0 -4 8q14 6 82 89t68 100zM349 217q-19 -1 -56 -42.5t-40 -41.5q-14 -1 -26.5 13.5t-14.5 29.5q-2 22 22 50t47 29q17 1 40.5 -11.5t27.5 -26.5z" />
    <glyph glyph-name="less" unicode="&#x3c;" horiz-adv-x="768" 
d="M139 226q41 0 159.5 58t217.5 118.5t99 70.5q0 3 6.5 6.5t15.5 3.5q23 0 47.5 -10t24.5 -25q0 -17 -88 -65.5t-217.5 -110t-130.5 -61.5q74 -13 141.5 -43.5t108 -64t64.5 -62t24 -41.5q0 -2 -2 -2q-68 65 -190.5 109t-254.5 44l-66 -3q-4 0 4 19.5t20 39t17 19.5z" />
    <glyph glyph-name="equal" unicode="=" horiz-adv-x="723" 
d="M245 258q-21 0 -35 19t-14 37q0 17 76.5 24t158.5 7q53 0 120.5 -6.5t114.5 -15.5t47 -15q0 -3 -3 -3q-100 0 -209.5 -11.5t-180 -23.5t-75.5 -12zM186 97q-20 0 -35.5 18.5t-15.5 35.5t91.5 31.5t158.5 14.5q63 0 126 -5t102 -12.5t39 -14.5q0 -2 -3 -2
q-73 0 -267.5 -33t-195.5 -33z" />
    <glyph glyph-name="greater" unicode="&#x3e;" horiz-adv-x="721" 
d="M534 274q-29 18 -43 27.5t-45.5 33.5t-47.5 47.5t-16 44.5q0 29 29 61q19 22 19 6q0 -36 51.5 -86.5t106.5 -84t72 -33.5q15 0 0 -38q-13 -32 -23 -32q-48 0 -107 -13.5t-115.5 -35.5t-113.5 -48t-105 -52.5t-85.5 -48.5t-59.5 -36l-22 -13q-1 0 -1 1q0 9 24 34t71 60.5
t107 72t141 73t163 60.5z" />
    <glyph glyph-name="question" unicode="?" horiz-adv-x="705" 
d="M710 804q-114 -2 -245.5 -90.5t-159.5 -168.5q11 0 77 36t68 42q-6 -18 -74 -69.5t-95 -51.5q-18 0 -36.5 19t-14.5 41q14 75 88.5 141t170 102.5t181.5 38.5q86 1 135.5 -28.5t45.5 -90.5q-4 -58 -70 -127t-157 -128.5t-182 -112.5t-155 -94t-65 -58q0 -9 20 -9
q5 0 12 2.5t12 3.5l5 2q-4 -8 -23 -18.5t-36 -10.5q-21 -1 -34 13.5t-11 34.5q3 46 70.5 99t161.5 102.5t188.5 99.5t162 106.5t70.5 107.5q2 34 -28.5 50.5t-81.5 15.5zM246 83q-19 -1 -60 -47.5t-44 -46.5q-15 -1 -27 14t-14 30q-2 21 26.5 53.5t50.5 34.5q16 1 40 -11.5
t28 -26.5z" />
    <glyph glyph-name="at" unicode="@" horiz-adv-x="1222" 
d="M554 95q0 73 68 157q-33 -32 -70.5 -65.5t-104 -80t-99.5 -46.5q-16 0 -28 20t-12 39q0 59 69 133.5t161 125.5t156 51q33 0 59 -15t26 -46q0 -23 -18 -45q-1 -1 -2 0t0 2q10 20 10 33q0 21 -12.5 33t-34.5 12q-82 0 -191 -100.5t-145 -195.5q48 21 119 69.5t109 87.5
q1 1 13 13.5t21.5 22t22.5 21.5t23.5 18.5t16.5 6.5q17 0 34.5 -12t17.5 -25q0 -8 -36.5 -50.5t-72.5 -95t-36 -84.5q0 -17 16 -17q70 0 150.5 74t134 178.5t53.5 187.5t-61 125.5t-154 42.5q-126 0 -264 -86.5t-233 -223.5t-99 -271q-2 -72 33 -123t94 -74.5t135 -23.5
q111 0 245.5 42t246 101t207 118.5t150 97.5t54.5 35q0 -7 -58 -54.5t-157.5 -114t-214.5 -130.5t-248 -108.5t-239 -44.5q-149 0 -238 73t-83 215q4 111 70 221t163 190t214.5 129.5t221.5 49.5q54 0 102 -10t90 -32t66.5 -62t24.5 -95q0 -79 -45.5 -162.5t-110.5 -144
t-137.5 -100t-127.5 -39.5q-31 0 -48 17t-17 35z" />
    <glyph glyph-name="A" unicode="A" horiz-adv-x="989" 
d="M1208 766q-48 -51 -126.5 -183t-133.5 -266q52 -7 108.5 -21t67.5 -24q0 -1 -25 3.5t-72 11t-88 9.5h-1q-40 -83 -83.5 -209.5t-38.5 -170.5q1 -12 14 -12q14 0 28 3.5t34 11.5t24 9q-56 -51 -103 -51q-23 0 -46 19t-25 39q-8 62 24.5 166t76.5 200h-38q-82 0 -138 -6
q-26 -25 -84 -84t-109.5 -112t-122 -116.5t-131.5 -108.5t-127.5 -76t-119.5 -31q-46 0 -82.5 27.5t-36.5 77.5q0 29 13 48.5t27 19.5q-17 -15 -17 -37q0 -61 74 -61q51 0 114.5 25.5t119 60.5t125 90.5t114 96t106.5 98t83 76.5q-121 -13 -215.5 -40.5t-133 -50
t-37.5 -34.5q-1 -13 -22 -1q-31 19 -35 52v4q-1 20 25.5 37t71.5 28.5t97.5 21t111 15.5t104 9.5t83.5 4.5h1q240 240 438 449q53 56 80 56q22 0 45.5 -16.5t28.5 -27.5q-21 -3 -48 -30zM1062 705q-15 -14 -351 -369q71 0 144 -6q37 79 102 200t105 175z" />
    <glyph glyph-name="B" unicode="B" horiz-adv-x="1223" 
d="M1010 629q-11 -8 -22.5 -17.5t-21 -17t-22.5 -20t-20.5 -19.5t-22.5 -22t-20.5 -21t-22 -23.5t-20.5 -22t-22 -24.5t-21 -23q89 29 185.5 73.5t174 97.5t84.5 90q5 26 -15.5 46.5t-53.5 32.5t-63 18.5t-54 7.5q-106 7 -238 -37.5t-223 -109t-93 -113.5q-4 -41 34 -49
q0 -5 -22 -5q-36 0 -56 21.5t-16 57.5q5 42 48 88.5t112 87t171 67.5t211 27q17 0 55 -2q59 -4 112.5 -21.5t93 -57.5t36.5 -95q-3 -48 -42 -90.5t-97 -70t-102 -43t-81 -23.5q5 1 34 -1q37 -3 73.5 -12t73.5 -26t59.5 -46.5t21.5 -66.5q-2 -76 -80 -152t-197.5 -134
t-258 -104t-269 -70.5t-223.5 -24.5q-30 0 -56 3q-67 8 -104 35.5t-33 80.5q3 49 57.5 105t125.5 98t136.5 71.5t95.5 33.5q1 -1 -1 -1q0 -1 -2 -1l-4 -2q-46 -21 -103 -54t-120 -76t-106 -90.5t-45 -85.5t99 -45q12 -1 38 -1q121 0 292.5 46t322.5 112.5t261 146.5t115 143
q2 24 -16 42t-48.5 28.5t-60.5 16t-61 7.5q-13 1 -38 1q-82 0 -184 -24q-4 -4 -28.5 -32t-37 -42.5t-37 -43t-38.5 -46.5t-30 -39.5t-23.5 -35.5t-7.5 -21q0 -5 8 -5q23 -2 66 18q-16 -15 -44 -32t-43 -17q-32 0 -31 34q2 66 156.5 273.5t278.5 296.5q27 18 41 16
q44 -4 73 -42q9 -12 6 -13q-1 0 -4 2q-15 8 -46 -12z" />
    <glyph glyph-name="C" unicode="C" horiz-adv-x="872" 
d="M1088 707q0 -48 -43.5 -105t-104 -95.5t-108.5 -38.5q-19 0 -30.5 19.5t-11.5 44.5q0 16 24 42t33 26q1 0 -6 -9.5t-13 -20.5t-3 -15q58 0 142 57t84 113q0 33 -27 52t-74 19q-75 0 -169.5 -40t-186.5 -105.5t-180 -151t-153.5 -173t-103 -175.5t-32.5 -156
q9 -107 146 -107q135 0 339 104t392 257l9 -4l-1 -2q-153 -149 -387 -286.5t-385 -134.5q-88 2 -145 43.5t-61 127.5q-6 101 53.5 219.5t161 224t222 193.5t246.5 139.5t225 51.5q68 0 108 -29t40 -85z" />
    <glyph glyph-name="D" unicode="D" horiz-adv-x="1214" 
d="M978 785q-138 2 -282.5 -51t-231 -122t-86.5 -119q0 -41 32 -60q-33 0 -58 27t-25 63q0 73 87 142t221.5 111t269.5 42q203 1 321 -79t114 -219q-2 -83 -53.5 -171.5t-136.5 -168t-201 -151t-242.5 -123.5t-265 -82.5t-264.5 -30.5q-27 0 -53.5 4t-56 14.5t-48 32.5
t-18.5 54q0 81 129.5 182.5t294.5 159.5l-6 -5q-138 -64 -255.5 -159.5t-117.5 -167.5q0 -50 109 -50q131 0 287.5 43t302 117.5t267 166t195 197t73.5 201.5q0 61 -45.5 108t-113 70t-143.5 24zM919 543q-115 -120 -236 -274t-121 -185q28 0 58 15q-3 -11 -28.5 -27.5
t-40.5 -16.5q-11 0 -19.5 8t-8.5 22q0 52 110 221t218 288q87 99 130 99q11 0 23 -5q36 -13 55 -43q4 -8 2 -8q-1 0 -4 2q-21 12 -63 -22q-21 -17 -75 -74z" />
    <glyph glyph-name="E" unicode="E" horiz-adv-x="823" 
d="M1034 715q-3 -55 -49 -113t-110.5 -94t-119.5 -36q-17 0 -31 14t-12 29q1 14 27 37t44 30q-22 -22 -27 -41q-2 -5 1 -5q22 0 81 30.5t114.5 80.5t57.5 92q1 38 -32.5 52.5t-78.5 14.5q-79 0 -184.5 -58t-179 -132.5t-74.5 -121.5q0 -32 22.5 -54.5t58 -33.5t68 -15.5
t63.5 -4.5q8 0 -6 -21q-19 -27 -39 -27q-88 0 -214.5 -70.5t-220 -165.5t-94.5 -159q-1 -31 19.5 -50t62.5 -23q70 -8 182.5 32.5t229.5 107.5t218.5 135.5t174.5 128.5q2 0 2.5 -4t-0.5 -5q-53 -52 -146 -124t-214 -153t-250.5 -135.5t-221.5 -52.5q-73 1 -116 43t-35 100
q7 58 50.5 118t105.5 107.5t132 86.5t134 62t107 27q-22 3 -48.5 12.5t-54.5 27t-44.5 46t-12.5 62.5q11 84 99.5 164.5t202.5 127.5t207 47q31 0 55.5 -4t48.5 -15.5t36.5 -36t10.5 -60.5z" />
    <glyph glyph-name="F" unicode="F" horiz-adv-x="746" 
d="M789 652q74 68 105 68q27 0 52 -23t29 -53q-9 14 -27 14q-44 0 -186 -159q-29 -32 -82 -98q50 2 70 2q32 0 60.5 -1.5t49 -4t38 -5.5t28.5 -6t18.5 -5.5t10 -4.5t1.5 -2q-2 0 -12 1t-32 3t-49 2q-57 0 -111 -6q-55 -6 -106 -15q-128 -162 -224.5 -315t-96.5 -202
q0 -11 8 -11q17 0 51 21q-14 -17 -34.5 -31.5t-33.5 -14.5q-12 0 -21.5 12t-9.5 27q0 72 65.5 205t165.5 278q-106 -31 -175.5 -70t-66.5 -68q1 -13 -17 8t-20 37q-3 36 50 68.5t122 51.5t150 32q114 156 230 265zM1552 740q-16 6 -91 18.5t-202 24.5t-237 12
q-156 0 -302 -24t-252.5 -62t-187.5 -83t-122 -89t-41 -78q0 -18 11 -34.5t29 -27t33.5 -18t30.5 -12.5l15 -5q-1 -1 -5 -1q-39 0 -77.5 9.5t-70.5 36.5t-32 68q2 106 138.5 190t349 127.5t454.5 43.5q153 0 327.5 -29t236.5 -61q10 -5 5.5 -7t-10.5 1z" />
    <glyph glyph-name="G" unicode="G" horiz-adv-x="983" 
d="M1118 739q0 -84 -84.5 -166.5t-166.5 -82.5q-16 0 -32 15.5t-16 27.5q0 17 21.5 41t44.5 34q-6 -7 -18.5 -28t-8.5 -21q58 0 136.5 65t78.5 127q0 31 -26.5 47.5t-62.5 16.5q-80 0 -192.5 -53.5t-225.5 -142t-212 -192t-163.5 -215.5t-69.5 -201q-3 -49 21.5 -75
t89.5 -20q62 6 147 44.5t164.5 89.5t169.5 119.5t151.5 120t120.5 104.5q-152 -15 -306 -63.5t-154 -84.5q0 -8 -14 9q-22 25 -22 51q0 40 105.5 70.5t208.5 41.5t160 11q54 0 105.5 -8.5t80 -19.5t31.5 -19q-33 8 -80 12.5t-62 2.5q40 -7 57 -43q8 -15 2 -15q-2 0 -4 2
q-21 15 -75 -25q-129 -94 -244 -256.5t-164 -285.5q-28 -69 -28 -108q0 -4 2 -6l1 -3q0 -4 -5 -4q-8 0 -15 9t-7 23q0 107 66 250t144 237q-385 -309 -576 -320q-74 -4 -117.5 35t-44.5 108q-1 91 46 192.5t124 192.5t178.5 175.5t207 145.5t211.5 97.5t191 36.5
q47 0 88.5 -23.5t41.5 -72.5z" />
    <glyph glyph-name="H" unicode="H" horiz-adv-x="1107" 
d="M1274 293q-8 0 -35.5 3t-72 6.5t-88.5 5.5q-102 -155 -167 -277t-63 -162q0 -6 2.5 -9t7.5 -2q10 1 18 4.5t19.5 11t15.5 9.5q-16 -19 -36.5 -35t-34.5 -17q-11 -1 -22 11t-12 28q-4 64 47.5 186.5t130.5 253.5q-98 -1 -274 -21q-118 -150 -205.5 -294.5t-86.5 -195.5
q0 -21 20 -24q-7 -3 -17 -3q-18 -1 -30.5 16t-12.5 43q0 61 58 180.5t160 264.5q-83 -14 -160 -38t-120 -45.5t-42 -32.5q0 -8 -12 3q-18 17 -18 44q0 17 17 33t50.5 28t65 21t79 17t73.5 12t67 9t42 5q257 350 256 422q-1 27 -22.5 39t-53.5 11q-84 -1 -187.5 -47.5
t-193 -113.5t-166 -137.5t-120.5 -125t-44 -71.5q0 -16 17 -16q32 0 48 14q0 -9 -24 -24.5t-48 -15.5q-27 -1 -43 13t-16 39q-1 61 80 149.5t196.5 166.5t253 134.5t239.5 57.5q154 2 155 -99q0 -37 -20 -87t-58.5 -109t-67.5 -99t-72 -97q56 4 126 4q66 0 126 -4
q159 253 286 391q50 53 91 81q26 16 40 16q43 0 72 -39q12 -16 7 -16q-2 0 -4 2q-24 15 -83 -40q-121 -116 -317 -404q52 -6 95 -13t65.5 -12.5t22.5 -8.5z" />
    <glyph glyph-name="I" unicode="I" horiz-adv-x="804" 
d="M528 -19q94 80 257 203t214 141q-101 -66 -353.5 -284t-251.5 -259q0 -13 -33 5q-27 17 -28 28q0 45 67 153.5t162.5 233.5t191 247.5t162.5 217t67 120.5q0 42 -56 42q-84 -1 -228 -82.5t-275 -190t-227.5 -222.5t-95.5 -175q0 -13 37 -13q7 0 25.5 3.5t19.5 3.5
q0 -4 -13.5 -12.5t-35 -15.5t-38.5 -7q-29 -1 -45 21t-17 47q-1 80 95 195.5t232.5 216.5t295.5 174t273 74q96 1 98 -84q1 -47 -44 -129t-113 -173.5t-138 -181t-129 -172t-76 -125.5z" />
    <glyph glyph-name="J" unicode="J" horiz-adv-x="937" 
d="M775 276q155 187 219 288q78 123 78 185q0 47 -42 58q-21 6 -45 6q-73 0 -171 -51.5t-179.5 -121t-141.5 -140.5t-66 -110q-2 -17 14 -17q15 0 40 5t42 10l17 5q-35 -24 -70 -36t-54 -12q-25 -1 -42 13.5t-18 40.5q-1 56 64 133t158 143.5t204.5 113.5t195.5 47
q28 0 52 -6q99 -23 99 -117q0 -54 -32 -128t-79 -143t-80 -112t-56 -69q33 -8 75.5 -25.5t63.5 -33.5q0 -1 -1 -1q-95 35 -150 45q-66 -83 -163 -172.5t-208 -169.5t-230.5 -132.5t-213.5 -54.5q-59 -2 -97.5 22t-44.5 77q-7 71 63.5 154.5t181 152t253 114.5t269.5 46
q52 0 95 -7zM39 -216q95 0 236.5 76.5t271 185.5t214.5 215q-33 6 -71 6q-104 0 -231.5 -39t-236 -98.5t-181.5 -139t-72 -152.5q1 -26 20.5 -40t49.5 -14z" />
    <glyph glyph-name="K" unicode="K" horiz-adv-x="989" 
d="M660 181q-151 -175 -189 -240q-41 -68 -14 -84q-8 -2 -15 -2q-19 0 -31.5 16.5t-12.5 43.5q1 116 202 392q-11 40 -13 57q-4 28 2 45q20 40 69 53q15 5 16 1q0 -1 -3 -3q-13 -9 -13 -32q0 -13 5 -35q72 97 105 143.5t72 111.5t48 103q6 24 -9 36t-39 13q-97 2 -234 -62
t-250.5 -150t-187.5 -177.5t-58 -141.5q5 -16 38 -16q20 0 44 8q0 -4 -13.5 -11.5t-35 -14t-39.5 -6.5q-28 1 -47 17.5t-20 38.5q-4 83 80 181t208.5 176t271.5 130.5t261 52.5q49 0 73.5 -23t25.5 -60q1 -35 -17 -81t-60 -110t-75 -109.5t-95 -126.5q-11 -14 -16 -21
q0 -5 11 -23q38 45 92 103q218 236 420.5 373.5t322.5 137.5q18 0 29.5 -14.5t12.5 -30.5q1 -33 -49 -90q11 20 15 48q0 13 -15 16q-84 16 -291.5 -113t-432.5 -362q-61 -63 -91 -96q37 -75 87.5 -145t113.5 -131t140 -97.5t154 -36.5q103 0 199 65q7 5 9.5 4.5t-3.5 -5.5
q-120 -100 -249 -100q-80 0 -160 37t-145.5 97.5t-115 122.5t-88.5 127zM639 220q-80 -107 -120 -172q48 65 128 156z" />
    <glyph glyph-name="L" unicode="L" horiz-adv-x="940" 
d="M1173 -148q-87 36 -210 57.5t-255 21.5q-81 0 -162 -9q-150 -18 -269 -62t-165 -84.5t-21 -58.5q-19 0 -46 24.5t-30 54.5q-4 37 65.5 74t176.5 65q89 62 277 281q-64 -8 -118 -8q-129 0 -222 46.5t-101 114.5q-3 22 24 55q13 15 33 24t32 9t18 -1q-15 -5 -27 -16.5
t-13 -24.5q-2 -56 84.5 -109t216.5 -53q27 0 57 3q33 4 53 7q33 41 97.5 125.5t103 133t97.5 115.5t101.5 104t93 64.5t93.5 28.5q45 1 72.5 -25.5t21.5 -72.5q-14 -131 -191.5 -280.5t-406.5 -213.5q-176 -209 -288 -284q78 14 143 17q46 2 71 2q173 0 349 -34.5t245 -90.5
zM1153 806q-23 -7 -58.5 -38.5t-84 -87.5t-92 -110.5t-110 -137t-111.5 -137.5q92 31 176 82.5t142.5 107t101.5 112.5t63 102t17 71q-2 21 -13.5 31.5t-30.5 4.5z" />
    <glyph glyph-name="M" unicode="M" horiz-adv-x="1438" 
d="M1177 580q-97 -52 -230 -171.5t-253 -250.5q-95 -107 -146 -179t-51 -94q0 -8 52 14q5 2 4 1q-17 -22 -48 -35.5t-50 -13.5q-13 0 -23 11.5t-10 25.5q0 43 80 171t176 261t176 264.5t80 178.5q0 55 -83 55q-79 0 -183.5 -49t-199 -121t-177.5 -148t-132 -136t-49 -79
q0 -18 20 -18q22 0 49 8q0 -7 -33 -20t-50 -13q-23 0 -38 16t-15 39q0 59 85 153t206 180.5t265.5 149.5t251.5 63q71 0 108.5 -34t37.5 -96q0 -111 -299 -516q133 150 267.5 271.5t215 177.5t105.5 56q26 0 55.5 -21.5t33.5 -49.5q-5 8 -22 8q-31 0 -175.5 -213.5
t-220.5 -376.5q71 120 190.5 252t230 226.5t200 156.5t115.5 62q24 0 53 -28.5t32 -47.5q-9 6 -32 6q-33 0 -115 -84t-166 -198.5t-149 -245t-65 -211.5q0 -72 34.5 -103t114.5 -29q66 2 159 39.5t151 77.5q-54 -50 -127 -84.5t-115 -45.5t-71 -14q-22 -2 -31 -2
q-81 0 -130 48.5t-49 133.5q0 68 32 158.5t77.5 171t92 146t80.5 98.5q-70 -32 -198 -152.5t-230 -248t-102 -174.5q0 -13 -26 1q-36 18 -42 47q-1 4 -1 8q0 71 122 288.5t185 278.5z" />
    <glyph glyph-name="N" unicode="N" horiz-adv-x="1180" 
d="M993 225q51 98 120.5 197.5t131.5 167.5q-142 -82 -288 -198t-245.5 -217t-163 -180t-63.5 -102q0 -8 52 14q5 2 4 1q-17 -22 -48.5 -35.5t-49.5 -13.5q-13 0 -23 11.5t-10 25.5q0 43 79.5 170t174.5 258.5t174.5 261.5t79.5 177q0 55 -84 55q-79 0 -184 -49t-199 -121
t-176.5 -148t-131.5 -136t-49 -79q0 -18 19 -18q22 0 49 8q0 -7 -33 -20t-51 -13q-23 0 -37 16t-14 39q0 59 85 153t206 180.5t265.5 149.5t250.5 63q71 0 108.5 -34t37.5 -96q0 -127 -363 -602q109 133 282.5 280.5t313 238.5t180.5 91q20 0 50 -31t28 -51q-7 12 -26 12
q-29 0 -110.5 -92t-172 -223.5t-142.5 -237.5q-58 -118 -58 -189q0 -60 37 -84t105 -24q20 0 30 1q40 2 88 16.5t75.5 27.5t74 37t51.5 27q-65 -57 -156 -92t-144 -39q-11 -1 -32 -1q-87 0 -138.5 38t-51.5 120q0 115 92 289z" />
    <glyph glyph-name="O" unicode="O" horiz-adv-x="1046" 
d="M895 800q-106 0 -214.5 -39.5t-192 -99.5t-150.5 -128t-103 -127.5t-36 -94.5q0 -7 1 -13t2 -10t4 -7.5t4.5 -5.5t6.5 -4t6.5 -3t7 -2.5t7.5 -2.5q-9 -6 -30 -6q-28 0 -50.5 24t-21.5 59q1 69 68 155t168.5 159t236 123t258.5 50q134 0 218 -62t84 -191q0 -76 -37 -166
t-98.5 -176t-146 -166.5t-175.5 -141t-191 -97t-189 -36.5t-144 46.5t-54 117.5q2 88 52 190t130 192t173.5 165t190 119t171.5 44q46 0 76.5 -20t30.5 -54q0 -13 -6 -30q1 22 -23.5 35t-53.5 13q-79 0 -196.5 -71.5t-222 -173t-180.5 -223.5t-78 -213q0 -91 112 -91
q70 0 173 49.5t208.5 133.5t198.5 183t151.5 208.5t58.5 199.5q0 189 -205 189z" />
    <glyph glyph-name="P" unicode="P" horiz-adv-x="1016" 
d="M238 -164q0 77 107 254q-59 0 -93.5 15.5t-34.5 42.5q0 36 72 85t98 49q2 0 3 -1q-25 -14 -50.5 -31.5t-55.5 -46.5t-30 -49q0 -11 25 -11q47 0 108 13q84 130 189.5 260.5t195.5 217t127 86.5q27 0 52.5 -23t29.5 -53q-10 14 -28 14q-42 0 -174.5 -143t-270.5 -327
q117 36 241.5 92.5t232.5 120.5t177.5 135t69.5 128q0 70 -85 109t-221 39q-125 0 -273 -49t-261.5 -117t-190.5 -142t-77 -122q0 -28 25 -47t49 -21q0 -1 -16 -1q-126 0 -126 95q0 34 29.5 79t82.5 93.5t133.5 95t174 83.5t213.5 59.5t244 22.5q36 0 78 -5.5t91 -20
t88 -36.5t65 -59.5t26 -84.5q0 -75 -60.5 -151t-154 -136t-208 -112t-220 -85.5t-191.5 -49.5q-163 -227 -163 -287q0 -13 0.5 -18t4.5 -11.5t12 -7.5q-8 -3 -16 -3q-20 0 -32 17t-12 45z" />
    <glyph glyph-name="Q" unicode="Q" horiz-adv-x="945" 
d="M864 810q-107 -2 -233 -72.5t-225.5 -170t-167.5 -211.5t-69 -193q1 -50 56 -44q44 5 117 62q-28 -46 -75 -77.5t-79 -34.5q-53 -5 -74 24.5t-21 68.5q1 60 33 135t86 148.5t128.5 144.5t155.5 125t173 88t177 35q109 2 180 -52.5t70 -164.5q-1 -111 -77.5 -241.5
t-178.5 -233t-210 -174.5q160 -59 271.5 -146t121.5 -133q1 -3 -13.5 11.5t-51 45.5t-86 63.5t-132 66.5t-175.5 54q-182 -100 -344 -103q-17 0 -33 2t-34 8t-28.5 20t-10.5 35q1 46 67.5 87.5t160.5 42.5q93 3 195 -25q115 77 228.5 198t187.5 249t75 216q1 77 -44.5 112.5
t-120.5 33.5zM217 -145q60 1 116.5 25.5t131.5 71.5q-67 7 -107 7q-83 -2 -150.5 -19t-67.5 -49q0 -36 77 -36z" />
    <glyph glyph-name="R" unicode="R" horiz-adv-x="1000" 
d="M513 153q34 -50 80.5 -100t107 -99.5t133.5 -80t144 -30.5q103 0 194 68q7 6 9 4t-3 -6q-110 -102 -244 -102q-74 0 -151 31t-141 81t-114 103t-86 106q-9 13 -22 33q-175 -231 -175 -266q0 -10 10 -10q40 0 77 21q-52 -52 -98 -52q-34 0 -34 42q0 47 53.5 145.5
t125.5 201.5l-4 11q-13 38 -11 50q10 48 55 74q20 11 20 5q0 -1 -2 -4q-11 -14 -6 -38q2 -10 6 -20q69 91 136.5 170.5t145 147.5t119.5 68q54 0 86 -36q-22 10 -78 -34t-126.5 -120t-128 -143.5t-106.5 -129.5q116 6 270 66t270.5 153.5t111.5 178.5q-3 53 -48.5 91.5
t-105 55.5t-120.5 17q-107 0 -222 -32.5t-207.5 -82.5t-168 -107.5t-117.5 -111t-42 -88.5q0 -28 18 -47.5t38 -21.5q-3 -5 -26 -5q-49 0 -75 27t-26 69q0 66 70 142.5t179.5 139.5t255 105t283.5 42q57 0 115 -11t117.5 -35.5t98.5 -72.5t43 -112q5 -91 -97 -186.5
t-257 -157t-298 -61.5q-31 0 -61 3q9 -19 29 -49z" />
    <glyph glyph-name="S" unicode="S" horiz-adv-x="968" 
d="M60 -106q0 -40 84 -40q118 0 292 65.5t305.5 160t131.5 166.5q0 76 -181 126q-18 5 -51 13t-52.5 13.5t-47 14t-43.5 17.5t-31.5 20.5t-23 27t-7.5 33.5q0 59 52.5 117.5t127.5 98t154 64.5t135 27q73 2 112.5 -19.5t38.5 -76.5q-1 -57 -49.5 -116t-114 -95.5
t-118.5 -36.5q-18 0 -34 7.5t-16 22.5q0 28 20 56.5t39 39.5q-21 -24 -21 -52q0 -6 12 -6q22 0 78.5 31t110.5 80.5t60 91.5q4 23 -12.5 32t-47.5 9q-11 0 -37 -2q-65 -7 -164.5 -54.5t-178.5 -113.5t-79 -114q0 -14 6.5 -26t23.5 -22.5t29.5 -17.5t43 -17t44 -14t50.5 -14
q42 -11 68.5 -20t60.5 -24.5t53.5 -32.5t33.5 -43.5t14 -58.5q0 -63 -53.5 -128.5t-139.5 -119t-188 -96t-205.5 -66t-184.5 -23.5q-39 0 -72.5 7.5t-61.5 30.5t-28 60q0 52 72.5 122t169.5 127t194 96.5t145 38.5q-94 -26 -192 -77.5t-168 -105.5t-114.5 -105t-44.5 -79z
" />
    <glyph glyph-name="T" unicode="T" horiz-adv-x="659" 
d="M1538 718q-14 7 -67 20.5t-161.5 30t-217.5 20.5q-19 1 -58 1q-184 0 -354.5 -36t-285 -89.5t-185 -114t-76.5 -111.5q-2 -13 2.5 -25.5t14 -22.5t20 -18t23 -15t22 -11t17.5 -7.5t9 -3.5q-1 -1 -4 -1q-64 1 -122 31t-57 89q3 104 138.5 191.5t346.5 135.5t441 48
q43 0 65 -1q148 -5 289.5 -36t204.5 -66q11 -6 6 -9q-4 -3 -11 0zM288 -158q-5 69 120 293.5t259 395.5q59 73 113 126q47 45 70 45q28 0 54 -20t33 -50q-9 12 -24 12q-36 0 -123 -102q-133 -158 -291 -403.5t-152 -293.5q32 1 76 29q-2 -14 -40 -41.5t-58 -28.5
q-14 -1 -25 8.5t-12 29.5z" />
    <glyph glyph-name="U" unicode="U" horiz-adv-x="1217" 
d="M1411 584q-143 -166 -257 -350.5t-114 -295.5q0 -47 58 -47q48 0 128 39q-18 -18 -57.5 -40t-76.5 -22q-116 0 -116 97q0 82 52.5 200t107.5 194q-70 -67 -155 -142t-191 -162.5t-197 -144t-135 -56.5q-18 0 -41 24t-23 43q0 44 56.5 134.5t137 192.5t161 203t137 185.5
t56.5 120.5q0 58 -89 58q-75 0 -178 -45.5t-200.5 -114t-183.5 -142.5t-138 -138.5t-52 -95.5q0 -23 23 -23q12 0 37 5q-29 -29 -59 -29q-34 0 -48 21t-14 44q0 76 88.5 174t212.5 177.5t264 135t237 55.5q59 0 96 -30t37 -92q0 -54 -51 -148t-123 -194t-144.5 -194.5
t-123.5 -167.5t-51 -95q44 -5 268 160t348 285q66 66 198 220q105 124 166 176q15 14 37.5 28t35.5 14q28 0 53.5 -22t29.5 -52q-9 15 -28 13q-45 0 -179 -156z" />
    <glyph glyph-name="V" unicode="V" horiz-adv-x="1041" 
d="M1626 838q-70 0 -219.5 -105.5t-308.5 -257t-309.5 -331.5t-222.5 -317q-1 -3 2.5 -5.5t9.5 -2.5l25 4q-4 -7 -20.5 -13t-28.5 -6q-18 0 -30.5 15t-11.5 24q2 62 59 200t124 271t123.5 261.5t58.5 175.5q1 27 -22.5 42t-53.5 15q-71 0 -164 -44.5t-177.5 -111
t-158.5 -137.5t-118.5 -128.5t-45.5 -79.5q-1 -10 5 -15.5t20 -5.5q5 0 13 0.5t11.5 0.5h6.5q0 -2 -11 -8.5t-28 -12.5t-30 -6q-30 0 -45.5 17t-14.5 43q2 43 51 109.5t129.5 135.5t174.5 130.5t197.5 100.5t186.5 39q52 0 95.5 -31.5t40.5 -89.5q-3 -68 -41.5 -172
t-81.5 -190t-111 -215t-97 -190q103 150 237 310.5t275.5 303.5t278 239t225.5 105q17 1 31.5 -16.5t14.5 -35.5q0 -9 -2 -17.5t-4 -15.5t-6.5 -15t-7.5 -13t-9 -11.5t-8 -9.5t-8 -9l-6 -6q12 14 17 61v3q1 4 0.5 6.5t-1 5.5t-3 4.5t-6.5 1.5z" />
    <glyph glyph-name="W" unicode="W" horiz-adv-x="1347" 
d="M883 -111q41 5 124.5 77.5t181.5 188.5q145 171 252 351.5t107 279.5q0 24 -6 40q-6 14 -28 14q-16 0 -36 -6t-26 -10q63 48 101 49q25 1 44 -10t24 -27q8 -22 8 -47q0 -112 -126.5 -302.5t-297.5 -372.5q-103 -111 -191 -182.5t-123 -76.5q-41 -6 -60 15t-19 53
q0 78 50 202t103.5 217t100.5 160q-65 -44 -217.5 -183.5t-288 -285.5t-135.5 -187q0 -4 11 -4q7 0 13 3q1 0 -2 -4.5t-10.5 -9t-16.5 -4.5q-14 0 -28.5 12t-14.5 24q0 42 68 174.5t150 269.5t150 268t68 171q0 57 -87 57q-71 0 -161 -43.5t-169.5 -107.5t-149 -132
t-110 -122t-40.5 -73q0 -11 5 -16t22 -5q8 0 16.5 2t10.5 3t4 -1q0 -5 -25 -17.5t-42 -12.5q-30 0 -45.5 20.5t-15.5 41.5q0 57 74.5 142.5t179 161.5t225.5 130.5t206 54.5q68 0 113 -31.5t45 -92.5q0 -51 -25 -122.5t-69.5 -154t-82.5 -146t-89.5 -143.5t-65.5 -103
q123 157 356 375.5t268 218.5q21 0 55 -24.5t36 -42.5q-8 7 -27 7q-28 0 -129 -172.5t-175.5 -343t-37.5 -165.5z" />
    <glyph glyph-name="X" unicode="X" horiz-adv-x="1018" 
d="M1225 9q-25 -27 -98 -78.5t-165 -96.5q-80 -39 -152 -37q-165 5 -165 272q0 80 13 178q-145 -137 -239.5 -221t-198.5 -156t-156 -72q-19 0 -34 28t-6 57q11 39 70 103q-12 -21 -23.5 -52t-9.5 -37q66 0 242 117t362 289q47 302 47 383q0 59 -16 74q-18 15 -43 15
q-70 0 -184.5 -94t-200 -206.5t-85.5 -165.5q0 -13 31 -13q6 0 36 5q-1 -7 -26 -20t-47 -12q-23 1 -39 18t-16 38q0 48 56.5 129t136.5 157t177 132t169 56q52 0 85 -29q43 -36 43 -136q0 -62 -29 -240q210 204 332 305.5t211 134.5q43 16 80 16q18 0 29.5 -14.5t13.5 -30.5
q1 -38 -50 -89q9 13 16 47q0 13 -15 16q-54 10 -171 -68t-300 -235q-63 -54 -155 -142q-4 -25 -10 -73q-16 -134 -16 -220q0 -103 23 -144.5t71 -51.5q15 -3 32 -3q55 0 121 27q31 12 69.5 32t64 35t66.5 40.5t53 32.5z" />
    <glyph glyph-name="Y" unicode="Y" horiz-adv-x="1069" 
d="M1065 470q-109 -118 -253 -234.5t-215 -121.5q-34 -2 -57.5 21t-24.5 43q-2 37 30 99t80 128t95.5 129.5t80.5 118t31 79.5q-2 23 -11.5 37.5t-22 18t-26 5.5t-23.5 0q-88 -5 -199.5 -77t-196.5 -160.5t-144 -167.5t-57 -101q1 -9 8.5 -13.5t16.5 -2.5q19 0 33 7
q-9 -14 -27 -26t-36 -14q-23 -2 -44 11.5t-22 34.5q-4 61 60.5 150t162.5 170.5t222.5 143t229.5 68.5q53 4 92.5 -21.5t42.5 -78.5q2 -42 -29 -106.5t-77 -130t-92.5 -128.5t-78.5 -114.5t-30 -73.5q1 -15 35 -11q66 7 206.5 125t263.5 264q34 40 72.5 89t63 80t49 60
t41.5 43t28 14q28 0 52.5 -20t25.5 -37q-7 7 -21 7q-28 -2 -101.5 -108.5t-180 -277.5t-162.5 -248q-18 -24 -34 -50q90 -16 126 -45q0 -1 -2 -1q-68 24 -132 34q-55 -77 -137 -162t-177 -163t-198.5 -128.5t-184.5 -50.5q-113 0 -120 87q-5 66 47 141t138 137.5t202.5 107
t230.5 52.5q68 4 102 1q154 207 248 367zM200 -361q89 6 208.5 79.5t223 171.5t176.5 197h-57q-118 0 -265.5 -62t-251.5 -158.5t-98 -181.5q1 -24 19.5 -36t44.5 -10z" />
    <glyph glyph-name="Z" unicode="Z" horiz-adv-x="864" 
d="M1188 748l-20 -8q-21 -9 -57.5 -23t-82.5 -31t-101.5 -35t-110 -33t-112 -26t-104.5 -13q-60 -3 -98.5 9t-38.5 33q0 53 49.5 105.5t95.5 72.5q-80 -69 -80 -105q0 -21 26 -28t73 -8q113 -1 237 21t207.5 49.5t148 50t71.5 22.5q6 0 11 -15q3 -8 -1 -8q1 0 -14 -7.5
t-44.5 -22.5t-69.5 -36.5t-92.5 -51.5t-110 -65t-125 -80t-134.5 -93.5t-142 -108t-145 -120.5q-13 -11 -79.5 -69t-108.5 -97t-77 -77q72 25 188.5 39t231.5 13q266 -4 368 -102q-104 64 -294 66q-136 1 -287.5 -28.5t-248.5 -71t-97 -74.5q-1 -17 -12 4q-15 27 -15 56
q1 79 237.5 277t522.5 381t435 238z" />
    <glyph glyph-name="bracketleft" unicode="[" horiz-adv-x="0" 
d="M2160 -391q-336 132 -904 215.5t-1129 98.5q-125 3 -244 3q-257 0 -503 -13.5t-437.5 -37t-338.5 -53t-226 -62.5t-80 -64q0 -17 40 -29q-145 7 -145 55q-2 75 227.5 132.5t589 86t776.5 28.5q136 0 271 -3q139 -4 314.5 -14.5t431 -37t489 -64t472 -101t396.5 -140.5z
" />
    <glyph glyph-name="backslash" unicode="\" horiz-adv-x="645" 
d="M296 861q-13 -6 -16 -47q-8 -89 20.5 -306.5t70 -408t67.5 -214.5q1 -3 5 -4t5 1q6 6 9.5 13.5t6.5 18t5 15.5q0 -59 -16 -73q-6 -8 -20.5 -7t-25.5 10q-42 41 -93.5 230t-83.5 395.5t-24 300.5q3 41 14 50q29 29 76 26z" />
    <glyph glyph-name="bracketright" unicode="]" horiz-adv-x="0" 
d="M1728 -373q-268 114 -747 189t-902 88q-116 4 -252 4q-345 0 -631.5 -28.5t-437.5 -70t-153 -85.5q0 -11 31 -26q-57 4 -94.5 23.5t-37.5 40.5q0 61 176 106t450.5 66t603.5 21q161 0 289 -4q106 -3 250 -13.5t350 -35.5t397.5 -59.5t385.5 -91t322 -124.5z" />
    <glyph glyph-name="underscore" unicode="_" horiz-adv-x="672" 
d="M38 -75q-7 0 -27.5 15.5t-20.5 32.5q0 22 94 37t177 15q295 0 328 -26q4 -3 0 -3q-74 0 -157.5 -7.5t-150.5 -18t-122 -20.5t-88 -18z" />
    <glyph glyph-name="grave" unicode="`" horiz-adv-x="309" 
d="M181 526q0 -33 69.5 -81t142.5 -48q5 0 -4 -5q-14 -7 -41 -7q-58 0 -115.5 20.5t-90.5 46.5t-33 45q0 13 27 27.5t45 14.5q3 0 2 -3q-1 -2 -1 -3t-0.5 -3t-0.5 -4z" />
    <glyph glyph-name="a" unicode="a" 
d="M229 83q18 55 58 108q-39 -39 -139.5 -118.5t-127.5 -79.5q-3 0 -9 3q-14 7 -29 29.5t-15 37.5q0 40 39 97.5t97.5 109.5t134.5 88.5t142 36.5q34 0 61 -15.5t27 -47.5q0 -22 -19 -47q-2 0 -3 1q11 20 11 36q0 46 -49 43q-83 -4 -196 -100q-43 -37 -84.5 -88.5t-61.5 -86
t-15 -37.5q3 -1 7 0q23 8 102.5 63.5t122.5 92.5q1 1 27.5 26t48 43t32.5 24q14 7 34 -19.5t16 -37.5q-2 5 -27 -22.5t-54.5 -69t-43.5 -71.5q-10 -23 -10 -34q59 17 255 201q9 8 13 12t7 -1v-5q-240 -262 -310 -262q-7 0 -17 6q-12 7 -22.5 20.5t-10.5 26.5q0 7 8 37z" />
    <glyph glyph-name="b" unicode="b" horiz-adv-x="422" 
d="M400 579q-183 -230 -273 -402q63 77 166.5 152t141.5 61q10 -4 28.5 -25.5t18.5 -31.5q0 -33 -33 -89.5t-81 -110.5t-108.5 -93.5t-109.5 -39.5q-31 0 -57 17.5t-26 41.5q0 3 2 5t2 -1q0 -8 12 -18.5t26 -10.5q46 0 116.5 69.5t120.5 144t55 102.5q-12 1 -66 -30
t-131 -94.5t-124 -132.5q-49 -71 -45 -91q3 -12 20 -14q-14 -6 -32 5q-7 2 -19 15t-17 25q-8 22 28 104q75 167 283 444q65 88 121 134q26 18 38 18q43 0 74 -36q10 -12 6 -13q-1 -1 -4 1q-34 18 -133 -106z" />
    <glyph glyph-name="c" unicode="c" horiz-adv-x="347" 
d="M70 53q0 -20 29 -17q95 10 357 224q5 3 7 -2q1 -2 0 -3q-49 -46 -85 -77.5t-99 -81t-119.5 -76.5t-99.5 -27q-24 0 -46.5 19t-26.5 43q-2 15 2 30q7 35 35.5 83t75.5 94q61 60 130.5 96.5t123.5 36.5q16 0 36.5 -18.5t20.5 -30.5q0 -17 -15.5 -38t-29 -32.5t-37.5 -29.5
q-2 -2 -5 0q-1 1 0 3q13 13 34 55t15 47q-50 -1 -124 -61t-126.5 -131t-52.5 -106z" />
    <glyph glyph-name="d" unicode="d" horiz-adv-x="478" 
d="M366 395q29 0 44 -17q52 81 173 246q51 65 83 91q25 20 37 20q43 2 75 -33q12 -13 6 -12q-1 0 -3 1q-11 5 -26.5 -3.5t-35 -29t-34 -38.5t-34.5 -44q-9 -12 -13 -17q-53 -66 -134 -187q-156 -234 -193 -327q11 1 29 10.5t41.5 27.5t44.5 35t49.5 42.5t43.5 39.5t39.5 37
t25.5 24q5 5 8 -1q2 -3 0 -5q-60 -67 -153.5 -157.5t-130.5 -102.5q-15 -5 -33 4q-14 8 -26 22.5t-12 29.5q0 32 71 162q-6 -5 -52.5 -45.5t-88.5 -76t-88 -67t-64 -31.5q-13 0 -31.5 25.5t-18.5 42.5q0 43 60 122t136 129q125 83 205 83zM336 259l65 105q-20 6 -42 0
q-61 -16 -163 -116q-41 -39 -79 -86t-56 -76.5t-14 -32.5q9 -5 106.5 63.5t182.5 142.5z" />
    <glyph glyph-name="e" unicode="e" horiz-adv-x="346" 
d="M102 135q-36 -42 -40 -79q-2 -19 30 -19q49 0 152.5 69.5t204.5 153.5q1 1 3.5 0t3.5 -2.5t0 -3.5q-42 -40 -60 -56.5t-75 -63.5t-95 -71.5t-88.5 -47t-88.5 -22.5q-23 0 -47 21.5t-24 41.5q0 28 14 66q37 88 138 173q58 48 118 74t97 26q14 0 37.5 -16t23.5 -35
q0 -30 -52 -79.5t-125.5 -89t-126.5 -40.5zM374 365q-75 -24 -151.5 -92t-107.5 -118q40 5 102.5 49.5t108 92.5t48.5 68z" />
    <glyph glyph-name="f" unicode="f" horiz-adv-x="229" 
d="M341 624q46 59 82 91q27 20 37 20q44 2 75 -33q11 -11 7 -12q-1 -1 -4 1q-8 0 -12.5 1.5t-14.5 -5.5t-15.5 -11t-16.5 -15.5t-17.5 -19t-17.5 -21t-17 -21t-16 -21t-15 -19.5q-85 -106 -258 -376l1 -2q56 19 143 63.5t124 75.5q2 3 4 3q5 0 5 -5v-2q-54 -52 -210 -135
q-50 -26 -68 -30q14 -40 14 -100q0 -27 -5 -57q-16 -81 -53 -159t-81 -134.5t-88.5 -101t-78 -67t-47.5 -23.5h-3q-14 -1 -29 17.5t-16 32.5q-2 44 78 219.5t198 374.5q-19 17 -0.5 46t42.5 29q143 229 273 396zM-184 -431q2 -1 10 4q49 37 93.5 80t89.5 100.5t77.5 128.5
t44.5 146q3 15 3 35q0 61 -19 86q-80 -129 -171 -304.5t-126 -262.5q-2 -4 -3 -7t-0.5 -4.5t1.5 -1.5z" />
    <glyph glyph-name="g" unicode="g" horiz-adv-x="435" 
d="M405 197l-61 -113q44 16 66 23q19 6 23 1q1 -1 -3 -3q-1 -1 -2 -1q-19 -8 -54 -22.5t-41 -17.5q-44 -76 -81.5 -136.5t-88.5 -129t-98.5 -117.5t-104.5 -88t-112 -54q-15 -4 -33 -4q-30 0 -49 14.5t-19 44.5q0 18 7 39q30 94 160.5 204.5t306.5 194.5l106 189l-3 -1
q-2 -2 -6.5 -5.5t-10 -8t-12 -9.5t-11.5 -10q-54 -51 -126 -107q-113 -87 -137 -87q-6 0 -10 3q-14 9 -28.5 30.5t-14.5 36.5q0 55 64 133t163.5 138.5t185.5 60.5q35 0 62 -15.5t27 -47.5q0 -20 -19 -47q-1 1 -2 1q10 22 10 36q0 46 -49 43q-81 -4 -196 -100
q-44 -37 -84 -87.5t-59.5 -85.5t-14.5 -39q4 -4 88 51q64 43 128 97q90 76 101 81q13 6 36.5 -20.5t20.5 -36.5q-2 1 -4 1.5t-7.5 -6.5t-13.5 -23zM-135 -388q146 79 338 389q-290 -153 -391 -340q-16 -29 -16 -44q0 -19 22 -19q19 0 47 14z" />
    <glyph glyph-name="h" unicode="h" horiz-adv-x="445" 
d="M450 631q-83 -94 -181.5 -232.5t-154.5 -250.5q81 86 186.5 163.5t133.5 77.5q17 0 34.5 -28t8.5 -37q-24 -18 -102 -132t-80 -146q13 4 30 13.5t39.5 27t40.5 32t45.5 39.5t41 37t40 37.5t30.5 28.5q7 5 10 -2q1 -2 -1 -4q-186 -199 -266 -246q-16 -10 -34 -15
q-8 -2 -15 0q-15 5 -29 25.5t-14 34.5q0 40 58 132.5t101 131.5q-99 -45 -216 -156l-50 -51q-47 -50 -62 -86q-15 -33 16 -37q-15 -6 -33 5q-6 3 -18.5 16t-17.5 24q-9 23 29 106q69 157 283 442q61 84 121 134q24 18 38 18q43 0 74 -36q10 -12 6 -13q-1 -1 -4 1
q-28 14 -88 -54z" />
    <glyph glyph-name="i" unicode="i" horiz-adv-x="225" 
d="M26 -7q-7 0 -12 1q-13 4 -27 19.5t-14 28.5q0 42 79.5 164.5t129.5 162.5q6 6 15 6q17 0 40 -23t23 -42q-1 -2 -1.5 -1.5t-4.5 2t-7 1.5q-27 3 -102.5 -111t-87.5 -154q64 17 268 214q7 5 10 -2q1 -2 -1 -4q-237 -256 -308 -262zM290 528q27 4 58 -32q13 -17 11 -25l-3 1
q-2 0 -4 0.5t-6 0t-8 -2.5q-12 -5 -39 -28.5t-36 -36.5q-11 -12 -23 -3t-13 24q-1 22 21.5 59t41.5 43z" />
    <glyph glyph-name="j" unicode="j" horiz-adv-x="205" 
d="M121 126q-5 -7 -13 -21l-12 -21q44 16 67 23q19 6 23 1q1 -1 -3 -3q-1 -1 -2 -1q-48 -19 -96 -40q-43 -77 -80 -136.5t-87.5 -129t-97.5 -118.5t-104 -88t-113 -54q-15 -4 -33 -4q-30 0 -49 15t-19 45q0 17 7 38q31 94 161 204.5t303 194.5q12 19 32 55t27 47
q108 188 136 225q22 27 39 28q17 2 40.5 -22.5t23.5 -43.5q0 -3 -3 -1q-1 1 -2 1.5t-2.5 1t-3.5 0.5q-14 2 -34 -23q-29 -35 -105 -173zM-379 -389q145 78 335 389q-287 -151 -390 -340q-14 -27 -14 -43q0 -20 22 -20q19 0 47 14zM293 551q26 4 57 -32q4 -5 7.5 -11
t4.5 -9.5t0 -4.5l-4 1q-4 1 -8.5 0.5t-9.5 -2.5q-12 -5 -39 -28.5t-36 -36.5q-11 -12 -23 -3t-13 24q-1 22 21.5 59t42.5 43z" />
    <glyph glyph-name="k" unicode="k" horiz-adv-x="380" 
d="M47 241q8 20 44 28q91 153 204 303q78 104 126 143q24 18 38 18q44 0 75 -36q11 -12 7 -13q-1 -1 -4 1q-19 9 -46.5 -13.5t-77.5 -79.5l-60 -76q-79 -100 -188 -275q63 67 138 122t110 55q16 0 32 -23t16 -40q0 -36 -55 -84t-131 -81t-129 -28q36 -94 125.5 -179
t180.5 -85q55 0 103 36q5 5 7 1q1 -2 -1 -4q-60 -57 -137 -57q-91 0 -183.5 72.5t-148.5 168.5q-4 -7 -11.5 -20.5t-13.5 -23.5t-12.5 -23t-9.5 -22.5t-4 -18t3.5 -13.5t13.5 -6q-15 -6 -33 5q-6 2 -17.5 15.5t-17.5 24.5q-7 30 30 106q4 9 9 19t11.5 22t9.5 19q-7 30 -3 42
zM376 375q-44 -11 -134 -85.5t-105 -95.5q3 -16 6 -20q60 8 133 77.5t100 123.5z" />
    <glyph glyph-name="l" unicode="l" horiz-adv-x="241" 
d="M156 372q75 117 178 252q49 64 83 91q25 20 37 20q43 2 75 -33q10 -11 6 -12q-1 -1 -4 1q-10 5 -23 -1t-31 -24.5t-29 -31t-33.5 -40.5t-27.5 -35q-48 -61 -134 -187q-151 -228 -186 -323q12 -1 37 13.5t61 45t61 52.5t64.5 59.5t44.5 41.5t7 -1v-5q-56 -64 -150 -155
t-133 -105q-15 -6 -32 4q-7 3 -19.5 16.5t-16.5 23.5q-3 6 -3 15q0 55 168 318z" />
    <glyph glyph-name="m" unicode="m" horiz-adv-x="656" 
d="M470 -7q-16 0 -34 21t-18 36q0 40 59 136.5t102 135.5q-50 -35 -99 -79t-82.5 -81t-61.5 -69.5t-45.5 -51t-25.5 -18.5q-11 0 -28.5 19t-17.5 33q0 31 48 115.5t96 127.5q-121 -73 -267 -237q-24 -27 -35 -41q-42 -49 -18 -60q-21 -5 -39 12t-25 40q-6 20 28 80
q73 138 158 238q20 25 39 40q5 5 13 5q19 0 41 -22.5t22 -41.5q0 -3 -4 -1q-1 1 -2 1.5t-2.5 1t-3.5 0.5q-12 2 -34 -25q-29 -33 -81 -108t-73 -111q48 64 169.5 173t152.5 116q2 1 6 1q15 0 33 -26t10 -34q-40 -42 -90.5 -124.5t-50.5 -108.5q74 94 185 199t141 105
q16 0 34 -28.5t8 -36.5q-24 -19 -102.5 -135t-78.5 -146q62 14 275 217q7 5 10 -2q1 -2 -1 -4q-89 -97 -180.5 -179.5t-130.5 -82.5z" />
    <glyph glyph-name="n" unicode="n" 
d="M494 325q-24 -19 -102.5 -132.5t-79.5 -145.5q59 16 258 203q8 8 12 11q5 5 8 -1q2 -3 0 -5q-89 -97 -179.5 -178.5t-130.5 -81.5q-14 0 -31 21q-18 21 -18 39q0 40 62 136t106 135q-59 -27 -151.5 -100.5t-151.5 -137.5q-14 -14 -36 -42q-20 -24 -25 -42.5t6 -23.5
q-21 -5 -38 12t-24 42q-5 19 28 80q35 68 95 152q66 93 106 124q5 5 13 5q19 0 41 -22.5t22 -41.5q0 -3 -4 -1q-1 1 -2 1.5t-2.5 1t-3.5 0.5q-9 1 -31.5 -22.5t-48.5 -57.5q-89 -118 -114 -164q15 22 51 56q85 83 191 164t131 81q17 0 35 -28t8 -37z" />
    <glyph glyph-name="o" unicode="o" horiz-adv-x="397" 
d="M426 375q-4 0 -12.5 1.5t-12.5 1.5q-83 0 -176 -85.5t-140 -174.5t-18 -101q38 -16 122 66t144 173q-5 8 -9.5 25t-1.5 24q2 8 19.5 24t26.5 17q15 2 23 -10q34 -55 83 -51q29 3 55.5 14t41 20.5t18.5 9.5q-4 -12 -32 -32t-62 -31q-28 -9 -59 -9q-20 0 -30 4
q-13 -63 -75 -129t-137 -105.5t-128 -36.5q-33 2 -54.5 25.5t-21.5 53.5q0 59 37 119.5t92.5 105t122.5 73t125 28.5q41 0 61 -17q3 -2 2.5 -2.5t-4.5 -0.5z" />
    <glyph glyph-name="p" unicode="p" horiz-adv-x="457" 
d="M127 294q57 72 87 96q7 6 15 6q17 0 39 -23t22 -42q0 -1 -6 1q-2 1 -4 1q-18 2 -82 -80l-56 -78q70 77 179 151.5t145 62.5q11 -4 29.5 -25.5t18.5 -32.5q0 -45 -53.5 -123.5t-134.5 -142.5t-145 -64q-31 0 -58 17t-27 41q2 3 5 4q0 -9 11.5 -19t26.5 -10q46 0 116 68
t120 142t57 105q-11 0 -57 -25.5t-130 -90t-163 -147.5q-236 -338 -263 -500q-9 -44 18 -48q-35 -14 -62 10.5t-21 69.5q14 116 127.5 311t245.5 365z" />
    <glyph glyph-name="q" unicode="q" horiz-adv-x="415" 
d="M308 -90q-96 -78 -186 -203t-99 -169q-1 -1 -14 -4q-25 -3 -39 24t-11 46q5 30 44 116q41 93 113.5 219.5t157.5 232.5q-70 -62 -147 -120.5t-101 -58.5q-14 0 -34 26.5t-20 43.5q0 41 39.5 98.5t98 109.5t134.5 89t141 37q35 0 63 -15t28 -48q0 -21 -20 -48q-1 -1 -2 0
t0 2q9 22 9 36q0 47 -48 44q-85 -4 -197 -101q-44 -37 -86.5 -91.5t-63.5 -92t-15 -40.5q8 -5 101.5 62t140.5 109q2 1 28.5 26t48 44t33.5 25q13 7 33.5 -20t17.5 -38q-4 5 -72 -72q-10 -12 -22 -25q-56 -65 -166 -241t-147 -251l-1 -1q55 76 143.5 161.5t111.5 92.5z" />
    <glyph glyph-name="r" unicode="r" horiz-adv-x="407" 
d="M98 266q60 88 103 122q7 5 14 5q18 0 40 -22.5t22 -41.5q0 -3 -3 -1q-1 1 -2 1.5t-2.5 1t-3.5 0.5q-20 1 -80 -78q-61 -82 -83 -120q73 96 239 215q62 44 90 47q9 1 29.5 -21.5t15.5 -28.5l-19 -19t-30 -30.5t-32 -35.5t-33 -44t-24 -45q68 6 179 104q1 1 4 1t4 -1
q-23 -30 -92.5 -83t-114.5 -53q-13 0 -30.5 18.5t-17.5 28.5q0 20 18.5 56t39.5 60q-68 -40 -111.5 -75.5t-95.5 -93.5q-42 -46 -73 -96t-16 -57q-20 -5 -37 12t-23 40q-3 16 15 51q31 70 110 183z" />
    <glyph glyph-name="s" unicode="s" horiz-adv-x="283" 
d="M342 355q-35 3 -119.5 -50.5t-94.5 -87.5q-1 -5 0.5 -10t5.5 -10t7.5 -8t9.5 -8t7 -6q72 40 145 68t108.5 36t47.5 8q6 0 6 -5l-20 -9q-7 -2 -23 -7q-180 -59 -255 -104q13 -10 25 -28t10 -32q-10 -45 -83 -81.5t-128 -36.5q-29 0 -38 40q2 28 73.5 76.5t111.5 64.5
q-1 1 -21 18.5t-32 36.5t-8 39q12 55 95.5 103t152.5 48q19 0 30 -25t8 -50q-1 -12 -36.5 -43t-54.5 -31q-1 1 -2 4q2 0 19 18t34.5 40.5t18.5 31.5zM142 148q-115 -65 -163 -113q39 11 101 49.5t62 63.5z" />
    <glyph glyph-name="t" unicode="t" horiz-adv-x="234" 
d="M286 561q97 127 131 154q25 20 37 20q43 2 75 -33q10 -11 6 -12q-1 -1 -4 1q-11 5 -26 -2.5t-39 -34t-33 -38t-37 -47.5q128 6 270.5 -1.5t244.5 -28.5l7 -3h-7q-310 27 -548 -9q-31 -39 -110 -155q-151 -228 -186 -323q12 -1 37 13.5t61 45t61 52.5t64.5 59.5t44.5 41.5
t7 -1v-5q-56 -64 -150 -155t-133 -105q-15 -6 -32 4q-7 3 -19.5 16.5t-16.5 23.5q-3 6 -3 15q0 58 168 318q56 85 93 134q-86 -17 -123 -54q-20 -19 -5 -28q-15 0 -33 14.5t-20 36.5q-3 31 60 53t158 33z" />
    <glyph glyph-name="u" unicode="u" horiz-adv-x="479" 
d="M236 91q33 90 92 163q-9 -9 -44 -45t-49.5 -50.5l-45 -45t-48 -45t-40.5 -33.5t-39.5 -28.5t-28.5 -11.5h-8q-13 0 -30 17t-17 34q0 31 33.5 95.5t78.5 127.5q59 83 102 117q6 6 14 6q18 0 40.5 -23t22.5 -42q0 -3 -4 -1l-4 2t-5 1q-10 1 -34 -25t-57 -69
q-40 -52 -70.5 -107t-30.5 -76q62 26 198 156q3 3 76 79.5t107 102.5q6 5 14 5q18 0 40 -22.5t22 -41.5q0 -2 -3 -1q-1 1 -2 1.5t-3 1t-4 0.5q-12 0 -33 -23q-20 -21 -76 -96q-37 -50 -62 -97.5t-25 -68.5q61 19 266 213q5 5 8 -1q2 -3 0 -5q-240 -262 -310 -262q-9 0 -16 6
q-13 6 -24.5 21t-11.5 28q0 10 11 43z" />
    <glyph glyph-name="v" unicode="v" horiz-adv-x="313" 
d="M14 30q0 74 62 200q57 116 99 152q7 6 13 6q18 1 40 -22t23 -43l-1 -1l-3 1q-3 1 -6 1q-13 1 -33.5 -27.5t-51.5 -84.5q-28 -48 -58 -146q60 43 174 158t199 211q8 9 9 5q0 -2 -3 -7q-36 -63 -104 -144t-133 -145t-118 -108.5t-65 -44.5q-13 -1 -28 15t-15 24z" />
    <glyph glyph-name="w" unicode="w" horiz-adv-x="500" 
d="M277 244q59 87 77 102q6 5 14 5q18 0 43 -22.5t26 -41.5l-1 -1l-4 2q-4 1 -8 1q-11 1 -28.5 -19t-46.5 -65q-26 -41 -45 -89t-16 -59q90 55 196.5 173t181.5 237q3 4 5 5l1 -1l-3 -6q-26 -68 -88.5 -155t-126.5 -154.5t-118.5 -115t-69.5 -47.5q-16 0 -33 19t-18 28
q-7 51 48 164q-110 -127 -155 -164q-61 -51 -71 -51q-12 0 -28 19t-18 28q-1 38 30.5 110.5t75.5 138.5q41 62 73 89q6 6 14 6q20 0 43.5 -23t24.5 -42q0 -1 -2 0q-5 2 -9 2q-13 0 -35 -25q-35 -41 -82.5 -120t-52.5 -118q27 15 85 66.5t121 123.5z" />
    <glyph glyph-name="x" unicode="x" horiz-adv-x="343" 
d="M-55 27q0 42 123 131q20 16 54 38q-9 28 -9 69q0 34 5 56q4 13 11 23.5t19.5 18t18.5 10.5t20 9q26 9 30 3q-3 -3 -8 -11q-20 -40 -20 -99q0 -16 4 -32q72 49 167.5 102.5t150.5 75.5q4 2 5 0q2 -2 -3 -5q-116 -68 -308 -221q13 -63 51 -130.5t98.5 -118.5t122.5 -51
q29 0 41 2q3 1 4 0l-3 -2q-26 -10 -59 -10q-93 0 -182.5 75.5t-135.5 184.5q-85 -65 -116 -106q-10 -13 -14.5 -23t-2.5 -16t10 -7q-9 -8 -33 -3t-36 23q-5 7 -5 14z" />
    <glyph glyph-name="y" unicode="y" horiz-adv-x="414" 
d="M482 309q-22 -23 -127 -152q-51 -64 -142 -219t-154 -274q55 76 142 159.5t111 91.5l5 -6q-96 -77 -186 -201.5t-100 -170.5q-3 -3 -11 -3q-27 -3 -41 23.5t-11 45.5q2 23 42 116q55 120 145.5 277t183.5 264q-10 -10 -34.5 -35.5t-37.5 -38.5t-37 -37.5t-39 -38
t-36 -33.5t-36 -31.5t-31 -23.5t-28.5 -18.5t-22.5 -8.5h-8q-13 0 -30 17t-17 34q0 31 33.5 95.5t78.5 127.5q53 76 100 114q6 6 14 6q18 0 40 -23t22 -42q0 -3 -3 -1q-1 1 -2 1.5t-2.5 1t-3.5 0.5q-20 3 -91 -91q-39 -50 -69.5 -106t-30.5 -77q32 13 92 62.5t105 93.5
q4 3 78.5 79t107.5 102q7 6 15 6q17 0 39.5 -23t22.5 -42q0 -2 -4 -1q-4 3 -7 3q-12 2 -35 -23z" />
    <glyph glyph-name="z" unicode="z" horiz-adv-x="392" 
d="M192 396q-10 -24 27 -43t85 -16q40 3 81 22t49 31q4 6 18.5 -9.5t25.5 -37.5t5 -31q-56 -7 -213 -98.5t-204 -143.5q37 20 107 20q64 0 119 -21.5t78 -67.5q3 -8 -1 -8q-1 0 -3 2q-37 64 -170 64q-45 0 -88 -17t-69.5 -34.5t-30.5 -17.5q-12 0 -35 28t-17 39
q31 57 171.5 152t217.5 117q-45 -14 -103 -14q-69 0 -90 16q-16 15 -1 38.5t41 29.5z" />
    <glyph glyph-name="braceleft" unicode="{" horiz-adv-x="0" 
d="M759 -124q-260 16 -434 16q-198 0 -395 -16q-433 -35 -737 -106.5t-304 -135.5q0 -17 23 -31q-46 2 -80.5 24t-35.5 48q-1 47 108.5 90.5t278 73.5t341.5 51t329 30q162 9 349 9q360 0 602 -28q124 -14 260.5 -43t163.5 -46q-272 53 -469 64z" />
    <glyph glyph-name="bar" unicode="|" horiz-adv-x="380" 
d="M416 843q-32 1 -88 -181t-99 -393.5t-43 -299.5q0 -42 15 -42q13 0 39 35q-24 -61 -54 -61q-16 0 -26 12t-13.5 36t-4.5 37.5t-1 37.5q0 104 29.5 297t82.5 362.5t104 169.5q31 0 59 -10z" />
    <glyph glyph-name="braceright" unicode="}" horiz-adv-x="0" 
d="M676 -117q-174 12 -284 12q-148 0 -305 -16q-311 -31 -531 -95t-220 -120q0 -13 17 -27q-32 2 -60 23.5t-29 44.5q-1 41 77.5 79.5t200 65.5t246 45.5t236.5 26.5q107 8 258 8q255 0 427 -25q97 -14 192 -37.5t113 -41.5q1 -1 -49 10.5t-135.5 27t-153.5 19.5z" />
    <glyph glyph-name="exclamdown" unicode="&#xa1;" horiz-adv-x="513" 
d="M77 -11q25 -10 123.5 110t185 252.5t86.5 157.5q0 5 -7 5q-4 0 -10.5 -3.5t-10.5 -7t-4 -2.5q0 2 7 10t19 15.5t22 7.5q11 0 17.5 -9t6.5 -21q0 -57 -74.5 -192.5t-163 -248.5t-123.5 -113q-42 0 -74 39zM475 617q20 4 51.5 48.5t34.5 44.5q15 3 30 -7t19 -25
q4 -21 -16.5 -53t-43.5 -38q-17 -2 -43 7.5t-32 22.5z" />
    <glyph glyph-name="cent" unicode="&#xa2;" horiz-adv-x="616" 
d="M203 134q0 -20 13 -25.5t39 -6.5q88 176 247 379q-19 -5 -67.5 -44t-100.5 -90.5t-91.5 -111.5t-39.5 -101zM605 525q11 -15 11 -37q0 -30 -38 -80.5t-49 -50.5q-2 1 -3 3q3 0 17.5 19t29 48.5t14.5 51.5q0 15 -7 19q-184 -199 -299 -394q48 10 95 31t81 44.5t60.5 45.5
t40.5 37l15 14q2 0 2 -3q0 -2 -17 -21t-49.5 -48t-71 -59t-89.5 -57t-98 -40l-57 -113q0 17 38 113q-103 0 -103 88q0 58 31.5 121t80.5 114.5t104 94t106.5 66.5t83.5 24l29 -3q115 135 149 135q19 0 33 -11t18 -19q-20 5 -158 -133z" />
    <glyph glyph-name="sterling" unicode="&#xa3;" horiz-adv-x="880" 
d="M209 209q-35 3 -58 17t-26.5 28.5t1.5 25.5q20 34 207 54q125 156 259 271.5t232 137.5q27 6 50 6q39 0 60.5 -18.5t21.5 -51.5q0 -51 -51 -126.5t-153 -162.5q72 82 116.5 154t44.5 110q0 43 -57 34q-76 -12 -189.5 -110.5t-228.5 -235.5q22 1 69 1q118 0 231 -13
t143 -27q-90 8 -181 8q-161 0 -302 -19q-144 -179 -172 -265q37 10 84 10q58 0 185.5 -21t185.5 -21q119 0 174 64q-46 -95 -247 -95q-50 0 -151 7t-143 7q-79 0 -122 -18t-46 -66q0 -13 -18 7q-23 26 -21 46q11 101 178 326q-99 -24 -88 -51q2 -6 12 -13z" />
    <glyph glyph-name="currency" unicode="&#xa4;" horiz-adv-x="681" 
d="M824 657q-70 -34 -116.5 -69.5t-61.5 -52.5t-19 -16q-7 0 -9 2q0 -16 -1 -24q-1 -19 -9.5 -42t-17.5 -37.5t-12 -14.5q0 1 1 2q0 1 7.5 26.5t9.5 50.5q3 34 -13 60t-45 29q-37 4 -80 -18.5t-76.5 -56.5t-56.5 -73t-26 -67q-3 -36 6 -56.5t45 -24.5q36 -3 77 16t70 44.5
t53 46.5t29 20q5 0 5 -7q-1 -11 -28.5 -49t-40.5 -51q9 -24 40 -66t56.5 -74.5t25.5 -38.5l-1 -1q-19 2 -90.5 62t-73.5 81q-31 -18 -47 -26.5t-44.5 -16t-56.5 -4.5q-46 6 -70 34q-15 -10 -45 -33t-52 -39.5t-25 -16.5v3q0 10 28 53.5t65 82.5q-6 27 -5 45q13 127 115 207
q-26 47 -42.5 91t-20 65.5t-0.5 20.5q3 0 23.5 -29t47 -65t40.5 -48q28 17 65.5 27t66.5 7q54 -5 85 -42q49 33 115 61.5t98 25.5q11 -3 11 -4z" />
    <glyph glyph-name="yen" unicode="&#xa5;" horiz-adv-x="1262" 
d="M602 391q8 14 25.5 42.5t27 44t25 42t25 43t21.5 38.5t19 37.5t14 32t10 28.5t3 21q0 59 -74 59q-65 0 -146 -41t-152 -99.5t-132 -120.5t-96.5 -107.5t-35.5 -55.5q0 -5 2 -8t4.5 -5t7.5 -2.5t7.5 -0.5h7.5h6h22q0 -3 -10 -8.5t-25 -10.5t-26 -5q-26 0 -43.5 13
t-17.5 38q0 43 65 116.5t156.5 143t201 120.5t188.5 51q138 0 138 -108q0 -22 -4 -41.5t-18.5 -48t-23 -44.5t-36.5 -61.5t-42 -68.5q73 76 148.5 141.5t174.5 135t208 110t211 40.5q36 0 64.5 -8t44 -19t26 -24.5t13.5 -22t3 -12.5l-2 2q-2 3 -6.5 9t-11.5 12.5t-18.5 13.5
t-25 13t-33.5 9.5t-42 3.5q-157 0 -349 -125t-350 -300q40 0 85 -10.5t71.5 -22t26.5 -16.5q0 -1 -1 -1t-15.5 5t-45.5 9.5t-72 4.5q-59 0 -82 -5l-53 -60h49q69 0 145.5 -9.5t122 -20t45.5 -15.5q0 -1 -16 0.5t-57.5 3.5t-87.5 2q-151 0 -246 -14q-48 -61 -99.5 -137.5
t-80.5 -126t-29 -54.5q10 0 20.5 2t16.5 4.5t12.5 5.5t7.5 3q-40 -36 -71 -36q-23 0 -23 30q0 15 5 34.5t15 43.5t19.5 44.5t24.5 48.5t24 43.5t24 41.5t18 31q-40 -6 -120 -33l1 -2q1 -1 3.5 -2.5t6 -3l7 -3t6.5 -2.5q-4 -8 -59 -8q-18 0 -33 13t-15 21q0 22 87 48t155 35
q8 15 26 41q-6 -2 -21.5 -5.5t-29 -7t-27.5 -8.5t-22.5 -11.5t-8.5 -14.5l-2 2q-2 2 -4.5 5.5t-4.5 8t-4 10t-2 9.5q0 6 4.5 12.5t13 11.5t17.5 9.5t22.5 9t24 7.5t25 6t22 4.5t18.5 3.5t12 2z" />
    <glyph glyph-name="section" unicode="&#xa7;" horiz-adv-x="843" 
d="M854 860q44 2 80.5 -17.5t36.5 -65.5q0 -56 -68.5 -118.5t-138.5 -62.5q-47 0 -47 36q0 12 18.5 33t27.5 21q-16 -11 -16 -28q0 -11 6 -11q7 0 51 25.5t88 64t44 65.5q0 25 -44 25q-60 0 -136 -37t-134.5 -85.5t-99.5 -93.5t-41 -63q0 -15 15 -25t39 -14t39 -5t29 -1
q157 0 223.5 -24.5t66.5 -89.5q0 -47 -56 -102t-130.5 -96.5t-143.5 -61.5l10 -4q49 -29 49 -85q0 -62 -57.5 -120t-140.5 -95.5t-171 -60t-154 -22.5q-50 0 -91.5 18.5t-41.5 59.5q0 54 76 114.5t158.5 96.5t115.5 36q-15 0 -86.5 -38t-142.5 -94.5t-71 -95.5q0 -27 64 -27
q79 0 195 44.5t201.5 104.5t85.5 101q0 24 -21.5 37t-44.5 15q-62 -13 -119 -13q-96 0 -127 38q-44 4 -72 21t-28 47q0 57 61.5 119t140.5 104.5t150 62.5q-32 4 -56.5 23.5t-24.5 43.5q0 57 62 125.5t165 119.5t206 55zM833 413q0 59 -145 69q31 -19 31 -55
q0 -55 -68.5 -118t-138.5 -63q-19 0 -34 8.5t-15 26.5q0 11 19 33t27 22q-15 -18 -15 -30q0 -10 7 -10t50.5 25t88 63.5t44.5 65.5q0 15 -12.5 22t-28.5 7q-12 0 -30 -2q-69 -11 -147 -49.5t-134.5 -82.5t-94.5 -84.5t-38 -57.5q0 -18 38 -31q0 48 71 108.5t154.5 99.5
t126.5 39q-17 0 -92.5 -42t-148 -101t-72.5 -96q0 -26 75 -26q73 0 189 46.5t204.5 109t88.5 103.5z" />
    <glyph glyph-name="dieresis" unicode="&#xa8;" horiz-adv-x="451" 
d="M348 464q-18 -1 -51 -39.5t-35 -38.5q-14 0 -25 13.5t-12 26.5q-2 19 19.5 44.5t41.5 27.5q15 1 36.5 -10t25.5 -24zM475 455q-17 0 -51 -38t-37 -38q-13 -1 -24 12.5t-13 26.5q-1 20 20.5 45t42.5 27q15 1 36.5 -10.5t25.5 -24.5z" />
    <glyph glyph-name="copyright" unicode="&#xa9;" horiz-adv-x="624" 
d="M342 389q137 0 322 226q2 0 2 -2q-1 -17 -32.5 -60.5t-78.5 -91t-111.5 -83.5t-121.5 -36q-59 0 -87.5 33t-28.5 77q0 86 65.5 181.5t163.5 158.5t186 63q41 0 68.5 -27t27.5 -70q0 -40 -18 -84t-35 -59q10 17 22.5 55.5t12.5 77.5q0 36 -21 56t-56 20q-61 0 -143 -55
t-144.5 -143t-62.5 -169q0 -34 21.5 -51t48.5 -17zM627 613q-59 -57 -124.5 -100t-113.5 -43q-20 0 -35.5 15t-15.5 31q0 77 87 151t155 74q12 0 26.5 -11.5t14.5 -21.5q0 -30 -58 -74q0 1 -1 2q30 34 34 66q-48 -3 -121.5 -76t-73.5 -114q0 -12 19 -12q53 0 204 115
q3 -1 3 -2z" />
    <glyph glyph-name="guillemotleft" unicode="&#xab;" horiz-adv-x="1033" 
d="M181 226q41 0 159 58t217 118.5t99 70.5q0 3 7 6.5t16 3.5q24 0 47.5 -10t23.5 -25q0 -17 -89 -66t-215 -109t-131 -62q74 -13 141.5 -43.5t108 -64t64 -62t23.5 -41.5l-1 -2q-68 65 -191 109t-255 44l-65 -3q-4 0 4 19.5t20 39t17 19.5zM508 254q37 0 143 52t194.5 106
t88.5 62q0 9 20 9q21 0 42.5 -9t21.5 -22q0 -16 -80 -60t-192.5 -97t-117.5 -56q67 -11 127 -38.5t96.5 -57.5t57.5 -55.5t21 -36.5l-1 -2q-61 58 -170.5 97t-228.5 39l-58 -1q-3 0 4 17.5t17.5 35t14.5 17.5z" />
    <glyph glyph-name="registered" unicode="&#xae;" horiz-adv-x="671" 
d="M494 442l21 14l-24 8q-50 20 -79 91q-80 -95 -88 -95t25 61t75 122t56 61q18 0 40 -20q11 -12 3 -15q-9 -2 -22 -12.5t-21.5 -21t-23.5 -30.5t-20 -26q34 13 104 55t70 61q0 26 -41 26q-45 0 -85.5 -13t-57 -21.5t-16.5 -5.5q0 6 25.5 19.5t66.5 25.5t75 12q70 0 78 -49
q4 -24 -17 -47.5t-55 -40.5t-63.5 -28t-53.5 -17q2 -21 18 -49.5t39 -43.5q69 54 151 152q1 0 1 -2q-7 -35 -56.5 -93t-95.5 -95q-41 -34 -93.5 -58.5t-97.5 -24.5q-61 0 -89 32.5t-28 77.5q0 64 39.5 137t99.5 131t135 96.5t141 38.5q41 0 68.5 -27t27.5 -70
q0 -40 -17.5 -83.5t-34.5 -59.5q35 84 35 133q0 35 -21.5 55.5t-56.5 20.5q-61 0 -143 -55t-144.5 -143t-62.5 -169q0 -34 21.5 -51t48.5 -17q61 0 143 53z" />
    <glyph glyph-name="acute" unicode="&#xb4;" horiz-adv-x="377" 
d="M372 526q0 4 -1.5 7.5t-1 4.5t3.5 1q19 0 45 -14.5t26 -27.5q0 -14 -20 -33t-52 -36.5t-77.5 -30t-89.5 -12.5q-38 1 -44 12q72 0 141.5 48t69.5 81z" />
    <glyph glyph-name="mu" unicode="&#xb5;" horiz-adv-x="505" 
d="M-206 -281q38 85 104 205t162.5 259t173.5 206q7 6 14 6q18 0 40.5 -23t22.5 -42q0 -2 -4 -1l-7 3q-12 1 -35 -23q-95 -100 -207 -269q19 -16 102 49.5t144 125.5q15 14 53 52.5t68 66.5t55 48q8 5 15 5q17 0 39.5 -22.5t22.5 -41.5q0 -2 -3 -1q-1 1 -2 1.5t-3 1t-4 0.5
q-12 0 -33 -23q-23 -24 -72 -88q-85 -119 -85 -162q22 0 71.5 37t116.5 96t80 69q3 2 6 1t3.5 -2.5t-0.5 -3.5q-5 -5 -60 -58t-94 -89.5t-88.5 -71.5t-74.5 -35q-12 0 -29 17t-17 34q0 61 108 215q-14 -15 -45 -46.5t-50.5 -51.5t-48.5 -49t-50 -47.5t-44 -36.5t-40.5 -26.5
t-30.5 -8.5q-6 0 -11 1.5t-8.5 4t-6 4.5t-3.5 3l-1 2q-64 -103 -197 -346q57 78 169.5 190.5t135.5 119.5l4 -6q-96 -77 -211 -232t-125 -199q-2 -3 -12 -3q-26 -3 -40 23.5t-11 45.5q5 36 43 116z" />
    <glyph glyph-name="paragraph" unicode="&#xb6;" horiz-adv-x="753" 
d="M1370 708q-18 6 -51 15t-129 23.5t-185 14.5q-38 0 -79 -3q-134 -142 -314 -374.5t-306 -422t-126 -227.5q0 -5 11 -5q13 0 32.5 9t32.5 16.5t13 6.5q0 -3 -15.5 -15t-38.5 -23.5t-39 -11.5q-25 0 -25 28q0 75 119 271.5t269.5 396.5t275.5 341q-42 -5 -99 -17
q-113 -141 -217 -287t-171 -252.5t-117.5 -193t-75 -131t-25.5 -44.5q-8 0 12 58t64.5 152.5t94.5 176.5q-15 -1 -21 -1q-56 0 -96.5 29.5t-40.5 86.5q0 61 49.5 127t130 122.5t176.5 104t195.5 76.5t180.5 35q116 139 154 139q45 0 77 -37q-26 12 -125 -98
q107 0 208.5 -20.5t151 -40t49.5 -25.5z" />
    <glyph glyph-name="cedilla" unicode="&#xb8;" horiz-adv-x="325" 
d="M169 -56q22 9 46 9q27 0 42 -13.5t7 -41.5q-20 -65 -124.5 -123t-201.5 -73q53 19 147 78t113 105q14 36 -72 4q-2 -1 -5 -2q-8 -3 -9 -3q-3 0 -7 4t-3 7q1 7 48.5 63.5t53.5 56.5q7 0 6 -6q0 -3 -41 -65z" />
    <glyph glyph-name="guillemotright" unicode="&#xbb;" horiz-adv-x="922" 
d="M778 274q-95 61 -126 98q-25 30 -25 55q0 29 29 61q19 22 19 6q0 -36 51.5 -86.5t106 -84t72.5 -33.5q15 0 -1 -39q-13 -30 -22 -31q-48 0 -107 -13.5t-115.5 -35.5t-113.5 -48t-105.5 -52.5t-86 -48.5t-59.5 -36l-22 -13q-1 0 -1 1q0 9 24 34t71 60.5t107 72t141 73
t163 60.5zM524 295q-1 1 -12 8t-16 10t-17 11.5t-18.5 14t-18 14.5t-18 15.5t-14.5 16t-12.5 17t-7.5 16.5t-3 17q0 26 26 56q18 20 18 4q0 -32 47 -77.5t97 -76.5t66 -31q7 -2 4.5 -16.5t-11.5 -31t-15 -16.5q-43 0 -97 -12.5t-105.5 -32.5t-103.5 -44t-96 -47.5t-78 -43.5
t-54 -32l-20 -13q-1 0 -1 1q0 9 22 31.5t65 54.5t97 65.5t128 66.5t148 55z" />
    <glyph glyph-name="questiondown" unicode="&#xbf;" horiz-adv-x="859" 
d="M303 2q75 1 165.5 44.5t157 103t84.5 110.5q-12 0 -78.5 -35.5t-69.5 -41.5q8 19 76 70t95 51q17 0 35.5 -19t14.5 -41q-14 -75 -88.5 -141t-170 -102.5t-181.5 -38.5t-135.5 27.5t-45.5 90.5q4 58 70 127t157 128.5t182 112.5t155 94t65 58q1 9 -19 9q-6 0 -13.5 -2
t-12.5 -3l-4 -2q1 8 21 18.5t37 10.5q22 1 35 -13.5t12 -34.5q-3 -46 -70.5 -99t-162 -102.5t-189 -99.5t-162 -106.5t-70.5 -107.5q-1 -34 29 -50.5t81 -15.5zM767 723q19 1 60 47.5t44 46.5q15 1 27.5 -14t14.5 -30q2 -21 -26.5 -53.5t-51.5 -34.5q-16 -1 -40 11.5
t-28 26.5z" />
    <glyph glyph-name="Agrave" unicode="&#xc0;" horiz-adv-x="989" 
d="M1191 1028q0 -33 69.5 -81t141.5 -48q5 0 -3 -4q-14 -7 -41 -7q-58 0 -116 20.5t-90.5 46t-32.5 44.5q0 13 26.5 27.5t44.5 14.5q3 0 3.5 -1t-1 -4.5t-1.5 -7.5zM1209 766q-48 -51 -127 -182.5t-134 -266.5q53 -7 109 -21t67 -24q0 -1 -25 3.5t-71.5 11t-87.5 9.5h-1
q-40 -84 -84 -210t-39 -170q1 -12 15 -12q13 0 27.5 3.5t34 11.5t23.5 9q-56 -51 -103 -51q-23 0 -46 19t-25 39q-13 112 101 366h-38q-81 0 -137 -6q-26 -25 -84 -84t-109.5 -112t-122.5 -116.5t-132 -108.5t-127 -76t-119 -31q-46 0 -83 27.5t-37 77.5q0 29 13 48.5
t27 19.5q-16 -14 -16 -37q0 -61 73 -61q51 0 114.5 25.5t119 60.5t125 90.5t114 96t106.5 98t83 76.5q-121 -13 -215.5 -40.5t-133 -50t-37.5 -34.5q-1 -13 -22 -1q-31 19 -35 52v4q-1 20 25.5 37t72 28.5t98 21t111 15.5t104 9.5t83.5 4.5h1q135 135 438 449
q30 31 46.5 43.5t33.5 12.5q22 0 45.5 -17t27.5 -27q-22 -3 -47 -30zM1062 705q-7 -7 -351 -369q72 0 144 -6q38 81 103 201t104 174z" />
    <glyph glyph-name="Aacute" unicode="&#xc1;" horiz-adv-x="989" 
d="M1274 1018q1 4 -1 9q0 3 1 3h3q17 -2 41.5 -19.5t22.5 -30.5q-2 -19 -37.5 -40.5t-95.5 -35t-118 -6.5q-17 2 -28 6.5t-14 8t-1 3.5q49 -6 103 12t88 44t36 46zM1209 766q-48 -51 -127 -182.5t-134 -266.5q53 -7 109 -21t67 -24q0 -1 -25 3.5t-71.5 11t-87.5 9.5h-1
q-40 -84 -84 -210t-39 -170q1 -12 15 -12q13 0 27.5 3.5t34 11.5t23.5 9q-56 -51 -103 -51q-23 0 -46 19t-25 39q-13 112 101 366h-38q-81 0 -137 -6q-26 -25 -84 -84t-109.5 -112t-122.5 -116.5t-132 -108.5t-127 -76t-119 -31q-46 0 -83 27.5t-37 77.5q0 29 13 48.5
t27 19.5q-16 -14 -16 -37q0 -61 73 -61q51 0 114.5 25.5t119 60.5t125 90.5t114 96t106.5 98t83 76.5q-121 -13 -215.5 -40.5t-133 -50t-37.5 -34.5q-1 -13 -22 -1q-31 19 -35 52v4q-1 20 25.5 37t72 28.5t98 21t111 15.5t104 9.5t83.5 4.5h1q135 135 438 449
q30 31 46.5 43.5t33.5 12.5q22 0 45.5 -17t27.5 -27q-22 -3 -47 -30zM1062 705q-7 -7 -351 -369q72 0 144 -6q38 81 103 201t104 174z" />
    <glyph glyph-name="Acircumflex" unicode="&#xc2;" horiz-adv-x="989" 
d="M1209 766q-48 -51 -127 -182.5t-134 -266.5q53 -7 109 -21t67 -24q0 -1 -25 3.5t-71.5 11t-87.5 9.5h-1q-40 -84 -84 -210t-39 -170q1 -12 15 -12q13 0 27.5 3.5t34 11.5t23.5 9q-56 -51 -103 -51q-23 0 -46 19t-25 39q-13 112 101 366h-38q-81 0 -137 -6
q-26 -25 -84 -84t-109.5 -112t-122.5 -116.5t-132 -108.5t-127 -76t-119 -31q-46 0 -83 27.5t-37 77.5q0 29 13 48.5t27 19.5q-16 -14 -16 -37q0 -61 73 -61q51 0 114.5 25.5t119 60.5t125 90.5t114 96t106.5 98t83 76.5q-121 -13 -215.5 -40.5t-133 -50t-37.5 -34.5
q-1 -13 -22 -1q-31 19 -35 52v4q-1 20 25.5 37t72 28.5t98 21t111 15.5t104 9.5t83.5 4.5h1q135 135 438 449q30 31 46.5 43.5t33.5 12.5q22 0 45.5 -17t27.5 -27q-22 -3 -47 -30zM1062 705q-7 -7 -351 -369q72 0 144 -6q38 81 103 201t104 174zM1286 985q-10 -34 8.5 -77.5
t46.5 -54.5q3 -4 -4 -4q-25 -1 -65 28t-51 68q-48 -35 -110 -55t-103 -19q-6 -2 -12 3q64 12 133.5 53t108.5 87q4 6 27.5 -7.5t20.5 -21.5z" />
    <glyph glyph-name="Atilde" unicode="&#xc3;" horiz-adv-x="989" 
d="M1157 927q-20 4 -33 4q-50 0 -70 -41q-8 33 19.5 64t73.5 31q37 0 83 -26t60 -30q33 -9 73.5 11.5t60.5 46.5q-16 -33 -55.5 -66.5t-82.5 -30.5q-25 2 -72 18.5t-57 18.5zM1209 766q-48 -51 -127 -182.5t-134 -266.5q53 -7 109 -21t67 -24q0 -1 -25 3.5t-71.5 11
t-87.5 9.5h-1q-40 -84 -84 -210t-39 -170q1 -12 15 -12q13 0 27.5 3.5t34 11.5t23.5 9q-56 -51 -103 -51q-23 0 -46 19t-25 39q-13 112 101 366h-38q-81 0 -137 -6q-26 -25 -84 -84t-109.5 -112t-122.5 -116.5t-132 -108.5t-127 -76t-119 -31q-46 0 -83 27.5t-37 77.5
q0 29 13 48.5t27 19.5q-16 -14 -16 -37q0 -61 73 -61q51 0 114.5 25.5t119 60.5t125 90.5t114 96t106.5 98t83 76.5q-121 -13 -215.5 -40.5t-133 -50t-37.5 -34.5q-1 -13 -22 -1q-31 19 -35 52v4q-1 20 25.5 37t72 28.5t98 21t111 15.5t104 9.5t83.5 4.5h1q135 135 438 449
q30 31 46.5 43.5t33.5 12.5q22 0 45.5 -17t27.5 -27q-22 -3 -47 -30zM1062 705q-7 -7 -351 -369q72 0 144 -6q38 81 103 201t104 174z" />
    <glyph glyph-name="Adieresis" unicode="&#xc4;" horiz-adv-x="989" 
d="M1257 976q-18 -1 -52 -39.5t-37 -38.5q-13 0 -24 13.5t-13 26.5q-2 20 20 45t43 27q14 1 36 -10t27 -24zM1383 967q-13 0 -32.5 -19t-35.5 -38t-19 -19q-13 -1 -24.5 12.5t-13.5 26.5q-1 20 20.5 45t41.5 27q15 1 37 -10.5t26 -24.5zM1209 766q-48 -51 -127 -182.5
t-134 -266.5q53 -7 109 -21t67 -24q0 -1 -25 3.5t-71.5 11t-87.5 9.5h-1q-40 -84 -84 -210t-39 -170q1 -12 15 -12q13 0 27.5 3.5t34 11.5t23.5 9q-56 -51 -103 -51q-23 0 -46 19t-25 39q-13 112 101 366h-38q-81 0 -137 -6q-26 -25 -84 -84t-109.5 -112t-122.5 -116.5
t-132 -108.5t-127 -76t-119 -31q-46 0 -83 27.5t-37 77.5q0 29 13 48.5t27 19.5q-16 -14 -16 -37q0 -61 73 -61q51 0 114.5 25.5t119 60.5t125 90.5t114 96t106.5 98t83 76.5q-121 -13 -215.5 -40.5t-133 -50t-37.5 -34.5q-1 -13 -22 -1q-31 19 -35 52v4q-1 20 25.5 37
t72 28.5t98 21t111 15.5t104 9.5t83.5 4.5h1q135 135 438 449q30 31 46.5 43.5t33.5 12.5q22 0 45.5 -17t27.5 -27q-22 -3 -47 -30zM1062 705q-7 -7 -351 -369q72 0 144 -6q38 81 103 201t104 174z" />
    <glyph glyph-name="Aring" unicode="&#xc5;" horiz-adv-x="989" 
d="M1248 926q15 0 32 6t30 14.5t24 17t18 14.5l7 6q2 -1 2 -4q0 -19 -44 -62t-83 -43q-57 0 -57 58q0 48 52 98t102 50q49 0 49 -46q0 -11 -5 -23.5t-11 -19.5l-5 -7q-1 0 1.5 6t5 18t2.5 22q0 26 -21 26q-27 0 -68.5 -46t-41.5 -75q0 -10 11 -10zM1209 766
q-48 -51 -127 -182.5t-134 -266.5q53 -7 109 -21t67 -24q0 -1 -25 3.5t-71.5 11t-87.5 9.5h-1q-40 -84 -84 -210t-39 -170q1 -12 15 -12q13 0 27.5 3.5t34 11.5t23.5 9q-56 -51 -103 -51q-23 0 -46 19t-25 39q-13 112 101 366h-38q-81 0 -137 -6q-26 -25 -84 -84
t-109.5 -112t-122.5 -116.5t-132 -108.5t-127 -76t-119 -31q-46 0 -83 27.5t-37 77.5q0 29 13 48.5t27 19.5q-16 -14 -16 -37q0 -61 73 -61q51 0 114.5 25.5t119 60.5t125 90.5t114 96t106.5 98t83 76.5q-121 -13 -215.5 -40.5t-133 -50t-37.5 -34.5q-1 -13 -22 -1
q-31 19 -35 52v4q-1 20 25.5 37t72 28.5t98 21t111 15.5t104 9.5t83.5 4.5h1q135 135 438 449q30 31 46.5 43.5t33.5 12.5q22 0 45.5 -17t27.5 -27q-22 -3 -47 -30zM1062 705q-7 -7 -351 -369q72 0 144 -6q38 81 103 201t104 174z" />
    <glyph glyph-name="AE" unicode="&#xc6;" horiz-adv-x="1563" 
d="M1754 715q-4 -84 -98.5 -163.5t-179.5 -79.5q-17 0 -31.5 14t-12.5 29q1 14 27 37t44 30q-22 -22 -27 -41q-2 -5 1 -5q22 0 81 30.5t115 80.5t58 92q0 20 -10.5 34t-28.5 21t-35.5 9.5t-37.5 2.5q-79 0 -185 -58t-179.5 -132t-74.5 -121q-1 -32 22 -55t59 -34t68.5 -15.5
t63.5 -4.5q8 0 -6 -21q-18 -27 -39 -27q-88 0 -215 -71t-221 -166.5t-95 -159.5q-1 -31 19.5 -50t62.5 -23q70 -8 182.5 33t230 108.5t219 136t175.5 128.5q2 0 3 -4t-1 -5q-53 -52 -146 -124t-214 -153t-251 -135.5t-222 -52.5q-67 1 -109 37.5t-44 91.5q-3 65 29 172
t73 200h-38q-81 0 -137 -6q-26 -25 -84 -84t-109.5 -112t-122.5 -116.5t-132 -108.5t-127 -76t-119 -31q-46 0 -83 27.5t-37 77.5q0 29 13 48.5t27 19.5q-16 -14 -16 -37q0 -61 73 -61q51 0 114.5 25.5t119 60.5t125 90.5t114 96t106.5 98t83 76.5q-121 -13 -215.5 -40.5
t-133 -50t-37.5 -34.5q-1 -13 -22 -1q-31 19 -35 52v4q-2 24 40.5 45t110.5 34t134.5 21t129.5 11q51 4 79 5h1q206 206 440 453q31 31 47.5 43.5t32.5 12.5q23 0 46.5 -17t27.5 -27q-17 -3 -31 -13q-93 -72 -280 -470q90 -13 144 -31q110 52 181 58q-22 3 -48.5 12.5
t-54 27t-44.5 46t-13 62.5q11 84 99.5 164.5t202.5 127.5t207 47q31 0 55.5 -4t48.5 -15.5t36.5 -36t10.5 -60.5zM1043 705q-7 -7 -351 -369q72 0 144 -6q38 81 103 201t104 174zM921 296q-25 -48 -63 -147q87 74 201 130q-98 14 -138 17z" />
    <glyph glyph-name="Ccedilla" unicode="&#xc7;" horiz-adv-x="872" 
d="M1113 707q0 -48 -43 -105t-103.5 -95.5t-108.5 -38.5q-19 0 -30.5 19.5t-11.5 44.5q0 16 24 42t32 26q1 0 -6 -9.5t-12.5 -20.5t-2.5 -15q57 0 141 57t84 113q0 34 -27 52.5t-74 18.5q-75 0 -169.5 -40t-186 -105.5t-180 -151t-154 -173t-103 -175.5t-32.5 -156
q9 -107 147 -107q135 0 339 104t392 257l8 -4v-2q-131 -128 -333.5 -255t-356.5 -157q-87 -17 -124 -80q26 15 60 15q14 0 27.5 -3t25.5 -17.5t6 -39.5q-10 -41 -71 -82.5t-127.5 -65t-104.5 -23.5q-5 2 -5 5q26 0 114 50t108 89q16 33 -19 33q-42 0 -73 -22q-2 -2 -6 2.5
t-6 11.5t1 15q9 19 41 49.5t77 53.5h-6q-88 2 -145 43.5t-61 127.5q-6 101 53.5 219.5t161 224t221.5 193.5t246.5 139.5t225.5 51.5q68 0 107.5 -29t39.5 -85z" />
    <glyph glyph-name="Egrave" unicode="&#xc8;" horiz-adv-x="823" 
d="M857 1015q0 -33 69.5 -81t142.5 -48q2 0 -1 -3t-14.5 -5.5t-28.5 -2.5q-59 0 -116.5 20.5t-90 46t-32.5 44.5q0 13 26 27.5t44 14.5q5 0 3 -4q-2 -5 -2 -9zM1034 715q-3 -55 -49 -113t-110.5 -94t-119.5 -36q-17 0 -31 14t-12 29q1 14 27 37t44 30q-22 -22 -27 -41
q-2 -5 1 -5q22 0 81 30.5t114.5 80.5t57.5 92q1 38 -32.5 52.5t-78.5 14.5q-79 0 -184.5 -58t-179 -132.5t-74.5 -121.5q0 -32 22.5 -54.5t58 -33.5t68 -15.5t63.5 -4.5q8 0 -6 -21q-19 -27 -39 -27q-88 0 -214.5 -70.5t-220 -165.5t-94.5 -159q-1 -31 19.5 -50t62.5 -23
q70 -8 182.5 32.5t229.5 107.5t218.5 135.5t174.5 128.5q2 0 2.5 -4t-0.5 -5q-53 -52 -146 -124t-214 -153t-250.5 -135.5t-221.5 -52.5q-73 1 -116 43t-35 100q7 58 50.5 118t105.5 107.5t132 86.5t134 62t107 27q-22 3 -48.5 12.5t-54.5 27t-44.5 46t-12.5 62.5
q11 84 99.5 164.5t202.5 127.5t207 47q31 0 55.5 -4t48.5 -15.5t36.5 -36t10.5 -60.5z" />
    <glyph glyph-name="Eacute" unicode="&#xc9;" horiz-adv-x="823" 
d="M981 1008q1 4 0 9q-1 2 -0.5 2.5t4.5 0.5q17 -2 41.5 -20t22.5 -29q-4 -24 -78 -51t-155 -27q-31 0 -55 4q-39 7 -44 18q11 -2 33 -2q72 0 148.5 34.5t82.5 60.5zM1034 715q-3 -55 -49 -113t-110.5 -94t-119.5 -36q-17 0 -31 14t-12 29q1 14 27 37t44 30q-22 -22 -27 -41
q-2 -5 1 -5q22 0 81 30.5t114.5 80.5t57.5 92q1 38 -32.5 52.5t-78.5 14.5q-79 0 -184.5 -58t-179 -132.5t-74.5 -121.5q0 -32 22.5 -54.5t58 -33.5t68 -15.5t63.5 -4.5q8 0 -6 -21q-19 -27 -39 -27q-88 0 -214.5 -70.5t-220 -165.5t-94.5 -159q-1 -31 19.5 -50t62.5 -23
q70 -8 182.5 32.5t229.5 107.5t218.5 135.5t174.5 128.5q2 0 2.5 -4t-0.5 -5q-53 -52 -146 -124t-214 -153t-250.5 -135.5t-221.5 -52.5q-73 1 -116 43t-35 100q7 58 50.5 118t105.5 107.5t132 86.5t134 62t107 27q-22 3 -48.5 12.5t-54.5 27t-44.5 46t-12.5 62.5
q11 84 99.5 164.5t202.5 127.5t207 47q31 0 55.5 -4t48.5 -15.5t36.5 -36t10.5 -60.5z" />
    <glyph glyph-name="Ecircumflex" unicode="&#xca;" horiz-adv-x="823" 
d="M1034 715q-3 -55 -49 -113t-110.5 -94t-119.5 -36q-17 0 -31 14t-12 29q1 14 27 37t44 30q-22 -22 -27 -41q-2 -5 1 -5q22 0 81 30.5t114.5 80.5t57.5 92q1 38 -32.5 52.5t-78.5 14.5q-79 0 -184.5 -58t-179 -132.5t-74.5 -121.5q0 -32 22.5 -54.5t58 -33.5t68 -15.5
t63.5 -4.5q8 0 -6 -21q-19 -27 -39 -27q-88 0 -214.5 -70.5t-220 -165.5t-94.5 -159q-1 -31 19.5 -50t62.5 -23q70 -8 182.5 32.5t229.5 107.5t218.5 135.5t174.5 128.5q2 0 2.5 -4t-0.5 -5q-53 -52 -146 -124t-214 -153t-250.5 -135.5t-221.5 -52.5q-73 1 -116 43t-35 100
q7 58 50.5 118t105.5 107.5t132 86.5t134 62t107 27q-22 3 -48.5 12.5t-54.5 27t-44.5 46t-12.5 62.5q11 84 99.5 164.5t202.5 127.5t207 47q31 0 55.5 -4t48.5 -15.5t36.5 -36t10.5 -60.5zM978 994q-10 -34 8.5 -77.5t46.5 -54.5q3 -4 -4 -4q-25 -1 -65 28t-51 68
q-48 -35 -110 -55t-103 -19q-6 -2 -12 3q64 12 133.5 53t108.5 87q4 6 27.5 -7.5t20.5 -21.5z" />
    <glyph glyph-name="Edieresis" unicode="&#xcb;" horiz-adv-x="823" 
d="M937 964q-18 -1 -52 -39.5t-36 -38.5q-13 0 -24.5 13.5t-12.5 26.5q-2 20 20 45t42 27q14 1 36.5 -10t26.5 -24zM1063 955q-18 0 -51.5 -38t-35.5 -38q-14 -1 -25 12t-13 27q-1 20 20.5 45t42.5 27q14 1 35.5 -10.5t26.5 -24.5zM1034 715q-3 -55 -49 -113t-110.5 -94
t-119.5 -36q-17 0 -31 14t-12 29q1 14 27 37t44 30q-22 -22 -27 -41q-2 -5 1 -5q22 0 81 30.5t114.5 80.5t57.5 92q1 38 -32.5 52.5t-78.5 14.5q-79 0 -184.5 -58t-179 -132.5t-74.5 -121.5q0 -32 22.5 -54.5t58 -33.5t68 -15.5t63.5 -4.5q8 0 -6 -21q-19 -27 -39 -27
q-88 0 -214.5 -70.5t-220 -165.5t-94.5 -159q-1 -31 19.5 -50t62.5 -23q70 -8 182.5 32.5t229.5 107.5t218.5 135.5t174.5 128.5q2 0 2.5 -4t-0.5 -5q-53 -52 -146 -124t-214 -153t-250.5 -135.5t-221.5 -52.5q-73 1 -116 43t-35 100q7 58 50.5 118t105.5 107.5t132 86.5
t134 62t107 27q-22 3 -48.5 12.5t-54.5 27t-44.5 46t-12.5 62.5q11 84 99.5 164.5t202.5 127.5t207 47q31 0 55.5 -4t48.5 -15.5t36.5 -36t10.5 -60.5z" />
    <glyph glyph-name="Igrave" unicode="&#xcc;" horiz-adv-x="804" 
d="M947 1038q0 -33 69.5 -81t142.5 -48q2 0 -1 -3t-15 -6t-29 -3q-59 0 -116.5 20.5t-90 46.5t-32.5 45q0 13 26.5 27.5t44.5 14.5q3 0 3.5 -1t-1 -4.5t-1.5 -7.5zM528 -19q88 75 253.5 200.5t217.5 143.5q-101 -66 -353.5 -284t-251.5 -259q0 -13 -32 5q-29 16 -30 28
q0 45 67 153.5t162.5 233.5t191 247.5t162.5 217t67 120.5q0 25 -14.5 33.5t-40.5 8.5q-84 -1 -228 -82.5t-275 -190t-227.5 -222.5t-95.5 -175q0 -13 37 -13q7 0 25.5 3.5t19.5 3.5q0 -4 -13.5 -12.5t-35 -15.5t-38.5 -7q-29 -1 -45 21t-17 47q-1 80 95 195.5t232.5 216.5
t295.5 174t273 74q96 1 98 -84q1 -47 -44 -129t-113 -173.5t-138 -181t-129 -172t-76 -125.5z" />
    <glyph glyph-name="Iacute" unicode="&#xcd;" horiz-adv-x="804" 
d="M1014 1054q0 4 -1.5 7.5t-1 4.5t3.5 1q18 0 45 -14.5t27 -27.5q0 -19 -33 -45t-91 -46.5t-116 -20.5q-18 0 -29.5 3t-14.5 6t-1 3q73 0 142.5 48t69.5 81zM528 -19q88 75 253.5 200.5t217.5 143.5q-101 -66 -353.5 -284t-251.5 -259q0 -13 -32 5q-29 16 -30 28
q0 45 67 153.5t162.5 233.5t191 247.5t162.5 217t67 120.5q0 25 -14.5 33.5t-40.5 8.5q-84 -1 -228 -82.5t-275 -190t-227.5 -222.5t-95.5 -175q0 -13 37 -13q7 0 25.5 3.5t19.5 3.5q0 -4 -13.5 -12.5t-35 -15.5t-38.5 -7q-29 -1 -45 21t-17 47q-1 80 95 195.5t232.5 216.5
t295.5 174t273 74q96 1 98 -84q1 -47 -44 -129t-113 -173.5t-138 -181t-129 -172t-76 -125.5z" />
    <glyph glyph-name="Icircumflex" unicode="&#xce;" horiz-adv-x="804" 
d="M528 -19q88 75 253.5 200.5t217.5 143.5q-101 -66 -353.5 -284t-251.5 -259q0 -13 -32 5q-29 16 -30 28q0 45 67 153.5t162.5 233.5t191 247.5t162.5 217t67 120.5q0 25 -14.5 33.5t-40.5 8.5q-84 -1 -228 -82.5t-275 -190t-227.5 -222.5t-95.5 -175q0 -13 37 -13
q7 0 25.5 3.5t19.5 3.5q0 -4 -13.5 -12.5t-35 -15.5t-38.5 -7q-29 -1 -45 21t-17 47q-1 80 95 195.5t232.5 216.5t295.5 174t273 74q96 1 98 -84q1 -47 -44 -129t-113 -173.5t-138 -181t-129 -172t-76 -125.5zM1024 1017q-10 -34 8.5 -77.5t46.5 -54.5q3 -4 -4 -4
q-25 -1 -65 28t-51 68q-48 -35 -110 -55t-103 -19q-6 -2 -12 3q64 12 133.5 53t108.5 87q4 6 27.5 -7.5t20.5 -21.5z" />
    <glyph glyph-name="Idieresis" unicode="&#xcf;" horiz-adv-x="804" 
d="M993 984q-18 -1 -52 -39.5t-36 -38.5q-13 0 -24.5 13.5t-12.5 26.5q-2 20 20 45t42 27q15 1 37 -10t26 -24zM1120 975q-18 0 -52 -38t-36 -38q-13 -1 -24.5 12.5t-13.5 26.5q-1 20 20.5 45t42.5 27q14 1 35.5 -10.5t27.5 -24.5zM528 -19q88 75 253.5 200.5t217.5 143.5
q-101 -66 -353.5 -284t-251.5 -259q0 -13 -32 5q-29 16 -30 28q0 45 67 153.5t162.5 233.5t191 247.5t162.5 217t67 120.5q0 25 -14.5 33.5t-40.5 8.5q-84 -1 -228 -82.5t-275 -190t-227.5 -222.5t-95.5 -175q0 -13 37 -13q7 0 25.5 3.5t19.5 3.5q0 -4 -13.5 -12.5
t-35 -15.5t-38.5 -7q-29 -1 -45 21t-17 47q-1 80 95 195.5t232.5 216.5t295.5 174t273 74q96 1 98 -84q1 -47 -44 -129t-113 -173.5t-138 -181t-129 -172t-76 -125.5z" />
    <glyph glyph-name="Eth" unicode="&#xd0;" horiz-adv-x="1214" 
d="M978 785q-138 2 -282.5 -51t-231 -122t-86.5 -119q0 -41 32 -60q-33 0 -58 27t-25 63q0 73 87 142t221.5 111t269.5 42q203 1 321 -79t114 -219q-2 -83 -53.5 -171.5t-136.5 -168t-201 -151t-242.5 -123.5t-265 -82.5t-264.5 -30.5q-27 0 -53.5 4t-56 14.5t-48 32.5
t-18.5 54q0 81 129.5 182.5t294.5 159.5l-6 -5q-148 -69 -264.5 -164t-116.5 -172q0 -50 106 -50q109 0 238.5 31.5t254.5 85t242.5 127t205.5 153.5t141.5 168.5t53.5 168.5q0 61 -45.5 108t-113 70t-143.5 24zM576 365q-20 0 -34 17t-14 33q0 23 197 26q81 109 151 180.5
t105 71.5q19 0 41 -15.5t28 -26.5q-26 18 -227 -213q71 -5 131 -13.5t60 -15.5q0 -2 -4 -2q-90 0 -226 -14q-91 -107 -156.5 -197t-65.5 -112q28 0 58 15q-3 -11 -28.5 -27.5t-40.5 -16.5q-11 0 -19.5 8t-8.5 22q0 32 45.5 115t113.5 180q-23 -3 -49.5 -7t-39.5 -6t-17 -2z
" />
    <glyph glyph-name="Ntilde" unicode="&#xd1;" horiz-adv-x="1180" 
d="M1140 821q-20 4 -33 4q-51 0 -70 -41q-9 33 18.5 64t73.5 31q37 0 83 -26t60 -30q34 -10 74.5 11t59.5 47q-15 -33 -55 -66.5t-83 -30.5q-25 2 -71.5 18.5t-56.5 18.5zM993 225q51 98 120.5 197.5t131.5 167.5q-142 -82 -287.5 -198t-245.5 -217t-163.5 -180t-63.5 -102
q0 -8 52 14q5 2 4 1q-18 -22 -48.5 -35.5t-49.5 -13.5q-13 0 -23 11.5t-10 25.5q0 43 79.5 170t174.5 258.5t174.5 261.5t79.5 177q0 55 -84 55q-79 0 -184 -49t-199 -121t-176.5 -148t-131.5 -136t-49 -79q0 -18 19 -18q25 0 49 8q0 -7 -33 -20t-51 -13q-22 0 -36.5 16
t-14.5 39q0 59 85 153t206 180.5t265.5 149.5t250.5 63q71 0 108.5 -34t37.5 -96q0 -127 -363 -602q109 133 282.5 280.5t313 238.5t180.5 91q20 0 50 -31t28 -51q-7 12 -26 12q-29 0 -110.5 -92t-172 -223.5t-142.5 -237.5q-58 -118 -58 -189q0 -60 37 -84t105 -24
q20 0 30 1q41 2 88.5 16.5t76 28t73 36.5t52.5 27q-66 -57 -157 -92t-144 -39q-11 -1 -32 -1q-87 0 -138.5 38t-51.5 120q0 115 92 289z" />
    <glyph glyph-name="Ograve" unicode="&#xd2;" horiz-adv-x="1046" 
d="M910 1005q0 -33 69 -81t142 -48q5 0 -4 -5q-13 -7 -41 -7q-44 0 -89.5 12.5t-77.5 30t-52 36.5t-20 33q0 13 26.5 27.5t45.5 14.5q3 0 3 -1t-1 -4.5t-1 -7.5zM896 800q-106 0 -214.5 -39.5t-192.5 -99.5t-151 -128t-103 -127.5t-36 -94.5q0 -8 1 -14.5t4 -11t4.5 -7.5
t7 -5.5t7 -3.5t8.5 -3.5t8 -2.5q-11 -6 -30 -6q-28 0 -50.5 24t-21.5 59q1 69 68 155t168.5 159t236 123t258.5 50q134 0 218 -62t84 -191q0 -114 -80 -253.5t-200.5 -255.5t-272.5 -195t-285 -79q-88 0 -143.5 46.5t-54.5 117.5q3 110 80 239t185.5 231t233.5 171t218 69
q46 0 76.5 -20t30.5 -54q0 -13 -6 -30q1 22 -23 35t-53 13q-79 0 -196.5 -71.5t-222.5 -173t-181 -223.5t-78 -213q0 -91 113 -91q70 0 173 49.5t208.5 133.5t198.5 183t151.5 208.5t58.5 199.5q0 189 -205 189z" />
    <glyph glyph-name="Oacute" unicode="&#xd3;" horiz-adv-x="1046" 
d="M1017 1029q0 4 -2 10q1 3 2 3q19 0 45.5 -14.5t26.5 -27.5q0 -14 -20 -33t-52 -36.5t-77.5 -30t-89.5 -12.5q-17 0 -29 3t-15 6t-1 3q73 0 142.5 48t69.5 81zM896 800q-106 0 -214.5 -39.5t-192.5 -99.5t-151 -128t-103 -127.5t-36 -94.5q0 -8 1 -14.5t4 -11t4.5 -7.5
t7 -5.5t7 -3.5t8.5 -3.5t8 -2.5q-11 -6 -30 -6q-28 0 -50.5 24t-21.5 59q1 69 68 155t168.5 159t236 123t258.5 50q134 0 218 -62t84 -191q0 -114 -80 -253.5t-200.5 -255.5t-272.5 -195t-285 -79q-88 0 -143.5 46.5t-54.5 117.5q3 110 80 239t185.5 231t233.5 171t218 69
q46 0 76.5 -20t30.5 -54q0 -13 -6 -30q1 22 -23 35t-53 13q-79 0 -196.5 -71.5t-222.5 -173t-181 -223.5t-78 -213q0 -91 113 -91q70 0 173 49.5t208.5 133.5t198.5 183t151.5 208.5t58.5 199.5q0 189 -205 189z" />
    <glyph glyph-name="Ocircumflex" unicode="&#xd4;" horiz-adv-x="1046" 
d="M896 800q-106 0 -214.5 -39.5t-192.5 -99.5t-151 -128t-103 -127.5t-36 -94.5q0 -8 1 -14.5t4 -11t4.5 -7.5t7 -5.5t7 -3.5t8.5 -3.5t8 -2.5q-11 -6 -30 -6q-28 0 -50.5 24t-21.5 59q1 69 68 155t168.5 159t236 123t258.5 50q134 0 218 -62t84 -191q0 -114 -80 -253.5
t-200.5 -255.5t-272.5 -195t-285 -79q-88 0 -143.5 46.5t-54.5 117.5q3 110 80 239t185.5 231t233.5 171t218 69q46 0 76.5 -20t30.5 -54q0 -13 -6 -30q1 22 -23 35t-53 13q-79 0 -196.5 -71.5t-222.5 -173t-181 -223.5t-78 -213q0 -91 113 -91q70 0 173 49.5t208.5 133.5
t198.5 183t151.5 208.5t58.5 199.5q0 189 -205 189zM1033 999q-10 -34 8.5 -77.5t46.5 -54.5q3 -4 -4 -4q-25 -1 -65 28t-51 68q-48 -35 -110 -55t-103 -19q-6 -2 -12 3q64 12 133.5 53t108.5 87q4 6 27.5 -7.5t20.5 -21.5z" />
    <glyph glyph-name="Otilde" unicode="&#xd5;" horiz-adv-x="1046" 
d="M868 910q-20 4 -32 4q-50 0 -71 -41q-8 33 19.5 64t73.5 31q36 0 82.5 -26t60.5 -30q34 -9 74 11.5t60 46.5q-16 -33 -55.5 -66.5t-82.5 -30.5q-25 2 -72 18.5t-57 18.5zM896 800q-106 0 -214.5 -39.5t-192.5 -99.5t-151 -128t-103 -127.5t-36 -94.5q0 -8 1 -14.5t4 -11
t4.5 -7.5t7 -5.5t7 -3.5t8.5 -3.5t8 -2.5q-11 -6 -30 -6q-28 0 -50.5 24t-21.5 59q1 69 68 155t168.5 159t236 123t258.5 50q134 0 218 -62t84 -191q0 -114 -80 -253.5t-200.5 -255.5t-272.5 -195t-285 -79q-88 0 -143.5 46.5t-54.5 117.5q3 110 80 239t185.5 231t233.5 171
t218 69q46 0 76.5 -20t30.5 -54q0 -13 -6 -30q1 22 -23 35t-53 13q-79 0 -196.5 -71.5t-222.5 -173t-181 -223.5t-78 -213q0 -91 113 -91q70 0 173 49.5t208.5 133.5t198.5 183t151.5 208.5t58.5 199.5q0 189 -205 189z" />
    <glyph glyph-name="Odieresis" unicode="&#xd6;" horiz-adv-x="1046" 
d="M950 959q-18 -1 -52 -39.5t-36 -38.5q-14 0 -24.5 13t-12.5 27q-2 20 20 45t42 27q14 1 36 -10t27 -24zM1076 950q-18 0 -51.5 -38t-35.5 -38q-13 -1 -24.5 12.5t-13.5 26.5q-1 20 20.5 45t41.5 27q15 1 37 -10.5t26 -24.5zM896 800q-106 0 -214.5 -39.5t-192.5 -99.5
t-151 -128t-103 -127.5t-36 -94.5q0 -8 1 -14.5t4 -11t4.5 -7.5t7 -5.5t7 -3.5t8.5 -3.5t8 -2.5q-11 -6 -30 -6q-28 0 -50.5 24t-21.5 59q1 69 68 155t168.5 159t236 123t258.5 50q134 0 218 -62t84 -191q0 -114 -80 -253.5t-200.5 -255.5t-272.5 -195t-285 -79
q-88 0 -143.5 46.5t-54.5 117.5q3 110 80 239t185.5 231t233.5 171t218 69q46 0 76.5 -20t30.5 -54q0 -13 -6 -30q1 22 -23 35t-53 13q-79 0 -196.5 -71.5t-222.5 -173t-181 -223.5t-78 -213q0 -91 113 -91q70 0 173 49.5t208.5 133.5t198.5 183t151.5 208.5t58.5 199.5
q0 189 -205 189z" />
    <glyph glyph-name="multiply" unicode="&#xd7;" horiz-adv-x="585" 
d="M311 173q-57 -39 -107 -84t-72.5 -63t-43.5 -17q-17 2 -27.5 7.5t-9.5 18.5q4 42 228 205q-2 5 -12.5 30.5t-17 42.5t-12.5 36.5t-6 28.5q1 19 15.5 30.5t33.5 9.5q4 0 14 -26.5t23.5 -68t16.5 -48.5q88 55 202.5 110.5t147.5 53.5q2 0 2 -1q-29 -22 -151 -104t-179 -127
q61 -183 80 -229q-14 1 -61 77t-64 118z" />
    <glyph glyph-name="Oslash" unicode="&#xd8;" horiz-adv-x="1046" 
d="M918 800q-106 0 -214.5 -39.5t-192.5 -99.5t-151 -128t-103 -127.5t-36 -94.5q0 -8 1 -14.5t4 -11t4.5 -7.5t7 -5.5t7 -3.5t8.5 -3.5t8 -2.5q-11 -6 -30 -6q-28 0 -50.5 24t-21.5 59q1 69 68 155t168.5 159t236 123t258.5 50q131 0 211 -57q89 65 127 68q26 2 42.5 -5.5
t39.5 -29.5q-31 11 -158 -88q40 -59 40 -141q0 -114 -80 -253.5t-200.5 -255.5t-272.5 -195t-285 -79q-47 0 -86 14q-95 -122 -95 -154q0 -11 14 -12t38 6.5t43.5 15t41.5 17.5l23 11q-26 -22 -73.5 -48.5t-74.5 -30.5q-19 -3 -35.5 13t-16.5 37q0 51 81 174q-59 48 -58 121
q3 110 80 239t185.5 231t233.5 171t218 69q45 0 76 -20q68 61 125 104q-51 51 -156 51zM1112 683q-175 -146 -420.5 -401t-395.5 -442q16 -3 37 -3q70 0 173 49.5t208.5 133.5t198.5 183t151.5 208.5t58.5 199.5q0 39 -11 72zM239 -130q110 157 300.5 366t368.5 372
q-4 1 -10 1q-79 0 -196.5 -71.5t-222.5 -173t-181 -223.5t-78 -213q0 -36 19 -58z" />
    <glyph glyph-name="Ugrave" unicode="&#xd9;" horiz-adv-x="1217" 
d="M1185 927q0 -33 69.5 -81t142.5 -48q2 0 -1 -3t-15 -6t-29 -3q-44 0 -89.5 12.5t-77.5 30t-52 36.5t-20 33q0 13 26.5 27.5t45.5 14.5q3 0 2 -3q-1 -2 -1 -3t-0.5 -3t-0.5 -4zM1411 584q-143 -167 -256.5 -351t-113.5 -295q0 -47 57 -47q48 0 128 39q-17 -18 -56.5 -40
t-77.5 -22q-115 0 -115 97q0 82 52.5 199.5t106.5 194.5q-70 -67 -155 -142t-191 -162.5t-196.5 -144t-134.5 -56.5q-19 0 -41.5 24t-22.5 43q0 44 56.5 134.5t137 192.5t161 203t137 185.5t56.5 120.5q0 58 -90 58q-75 0 -178 -45.5t-200.5 -114t-183.5 -142.5t-138 -138.5
t-52 -95.5q0 -23 23 -23q12 0 37 5q-27 -29 -59 -29q-34 0 -48 21t-14 44q0 76 88.5 174t212.5 177.5t264 135t237 55.5q59 0 96.5 -30t37.5 -92q0 -54 -51 -148t-123.5 -194t-145 -194.5t-123.5 -167.5t-51 -95q44 -5 268 160t348 285q59 58 198 220q101 119 166 176
q15 14 37.5 28t35.5 14q28 0 53.5 -22t29.5 -52q-10 15 -27 13q-44 0 -180 -156z" />
    <glyph glyph-name="Uacute" unicode="&#xda;" horiz-adv-x="1217" 
d="M1281 904q0 4 -3 10q-1 1 -0.5 2t3.5 1q18 0 44.5 -14.5t26.5 -27.5q0 -14 -20 -33t-52 -36.5t-77.5 -30t-89.5 -12.5q-17 0 -29 3t-15 6t-1 3q73 0 143 48t70 81zM1411 584q-143 -167 -256.5 -351t-113.5 -295q0 -47 57 -47q48 0 128 39q-17 -18 -56.5 -40t-77.5 -22
q-115 0 -115 97q0 82 52.5 199.5t106.5 194.5q-70 -67 -155 -142t-191 -162.5t-196.5 -144t-134.5 -56.5q-19 0 -41.5 24t-22.5 43q0 44 56.5 134.5t137 192.5t161 203t137 185.5t56.5 120.5q0 58 -90 58q-75 0 -178 -45.5t-200.5 -114t-183.5 -142.5t-138 -138.5t-52 -95.5
q0 -23 23 -23q12 0 37 5q-27 -29 -59 -29q-34 0 -48 21t-14 44q0 76 88.5 174t212.5 177.5t264 135t237 55.5q59 0 96.5 -30t37.5 -92q0 -54 -51 -148t-123.5 -194t-145 -194.5t-123.5 -167.5t-51 -95q44 -5 268 160t348 285q59 58 198 220q101 119 166 176q15 14 37.5 28
t35.5 14q28 0 53.5 -22t29.5 -52q-10 15 -27 13q-44 0 -180 -156z" />
    <glyph glyph-name="Ucircumflex" unicode="&#xdb;" horiz-adv-x="1217" 
d="M1411 584q-143 -167 -256.5 -351t-113.5 -295q0 -47 57 -47q48 0 128 39q-17 -18 -56.5 -40t-77.5 -22q-115 0 -115 97q0 82 52.5 199.5t106.5 194.5q-70 -67 -155 -142t-191 -162.5t-196.5 -144t-134.5 -56.5q-19 0 -41.5 24t-22.5 43q0 44 56.5 134.5t137 192.5
t161 203t137 185.5t56.5 120.5q0 58 -90 58q-75 0 -178 -45.5t-200.5 -114t-183.5 -142.5t-138 -138.5t-52 -95.5q0 -23 23 -23q12 0 37 5q-27 -29 -59 -29q-34 0 -48 21t-14 44q0 76 88.5 174t212.5 177.5t264 135t237 55.5q59 0 96.5 -30t37.5 -92q0 -54 -51 -148
t-123.5 -194t-145 -194.5t-123.5 -167.5t-51 -95q44 -5 268 160t348 285q59 58 198 220q101 119 166 176q15 14 37.5 28t35.5 14q28 0 53.5 -22t29.5 -52q-10 15 -27 13q-44 0 -180 -156zM1311 935q-10 -34 8.5 -77.5t46.5 -54.5q3 -4 -4 -4q-25 -1 -65 28t-51 68
q-48 -35 -110 -55t-103 -19q-6 -2 -12 3q64 12 133.5 53t108.5 87q4 6 27.5 -7.5t20.5 -21.5z" />
    <glyph glyph-name="Udieresis" unicode="&#xdc;" horiz-adv-x="1217" 
d="M1243 860q-18 -1 -52.5 -39.5t-36.5 -38.5q-14 0 -24.5 13t-12.5 27q-2 20 20 45t43 27q14 1 35.5 -10t27.5 -24zM1368 851q-13 0 -32.5 -19t-35 -38t-18.5 -19q-14 -1 -25 12t-13 27q-1 20 20.5 45t41.5 27q15 1 36.5 -10.5t25.5 -24.5zM1411 584q-143 -167 -256.5 -351
t-113.5 -295q0 -47 57 -47q48 0 128 39q-17 -18 -56.5 -40t-77.5 -22q-115 0 -115 97q0 82 52.5 199.5t106.5 194.5q-70 -67 -155 -142t-191 -162.5t-196.5 -144t-134.5 -56.5q-19 0 -41.5 24t-22.5 43q0 44 56.5 134.5t137 192.5t161 203t137 185.5t56.5 120.5q0 58 -90 58
q-75 0 -178 -45.5t-200.5 -114t-183.5 -142.5t-138 -138.5t-52 -95.5q0 -23 23 -23q12 0 37 5q-27 -29 -59 -29q-34 0 -48 21t-14 44q0 76 88.5 174t212.5 177.5t264 135t237 55.5q59 0 96.5 -30t37.5 -92q0 -54 -51 -148t-123.5 -194t-145 -194.5t-123.5 -167.5t-51 -95
q44 -5 268 160t348 285q59 58 198 220q101 119 166 176q15 14 37.5 28t35.5 14q28 0 53.5 -22t29.5 -52q-10 15 -27 13q-44 0 -180 -156z" />
    <glyph glyph-name="Yacute" unicode="&#xdd;" horiz-adv-x="1069" 
d="M1168 927q0 4 -1.5 7.5t-1 4.5t3.5 1q18 0 45 -14.5t27 -27.5q0 -19 -33 -45t-91 -46.5t-116 -20.5q-18 0 -29.5 3t-14.5 6t-1 3q73 0 142.5 48t69.5 81zM1064 470q-109 -118 -253 -234.5t-214 -121.5q-35 -2 -58.5 21t-24.5 43q-2 37 30 99t80 128t96 129.5t81 118
t31 79.5q-2 23 -12 37.5t-22.5 18t-26 5.5t-23.5 0q-71 -4 -158.5 -52.5t-162.5 -116t-139 -138.5t-100.5 -126.5t-35.5 -72.5q1 -9 8.5 -13.5t16.5 -2.5q18 0 32 7q-9 -14 -27 -26t-35 -14q-23 -2 -44 11.5t-22 34.5q-4 61 60.5 150.5t162 170.5t222 142.5t229.5 68.5
q53 4 92.5 -21.5t42.5 -78.5q3 -51 -45 -138t-107 -164t-108 -150.5t-47 -100.5q1 -15 35 -11q66 7 206.5 125t263.5 264q34 40 72.5 89t63 80t49 60t41.5 43t28 14q29 0 53.5 -20t25.5 -37q-8 7 -22 7q-28 -2 -101.5 -109t-179.5 -277t-163 -248q-27 -38 -34 -50
q90 -16 126 -45q0 -1 -1 -1q-71 24 -133 34q-55 -77 -137 -162t-177 -163t-198 -128.5t-184 -50.5q-114 0 -121 87q-6 88 82 187t236 170t300 81q42 2 65 2q26 0 37 -1q147 197 248 367zM199 -361q89 6 209 79.5t223 171.5t176 197h-57q-87 0 -197.5 -38t-204 -95.5
t-155.5 -131t-58 -137.5q1 -24 19.5 -36t44.5 -10z" />
    <glyph glyph-name="Thorn" unicode="&#xde;" horiz-adv-x="1046" 
d="M232 -155q0 41 36 116q-97 8 -97 56q0 26 41.5 61t84 56.5t47.5 15.5q-136 -82 -136 -127q0 -11 26 -11q25 0 63 5q79 144 224.5 335t274.5 324q-115 -13 -247 -65t-235 -116.5t-171.5 -132t-68.5 -111.5q0 -29 23.5 -52.5t45.5 -25.5q0 -1 -16 -1q-50 0 -88.5 27.5
t-32.5 79.5q7 56 69 126t164.5 135.5t259 113.5t329.5 55q115 113 154 113q28 0 52.5 -23t28.5 -54q-10 15 -28 15q-22 0 -83 -55q49 -6 94 -19t89.5 -35.5t71 -60.5t26.5 -86q0 -80 -69.5 -161.5t-175 -144t-228.5 -115t-233 -83t-185 -38.5q-67 -108 -67 -140v-13.5
t1.5 -10t5 -9.5t9.5 -4q-24 -8 -41.5 9.5t-17.5 50.5zM923 679q-108 -103 -265 -293t-267 -349q115 29 250 85.5t255 123.5t201.5 143.5t85.5 137.5q4 64 -69 104t-191 48z" />
    <glyph glyph-name="germandbls" unicode="&#xdf;" horiz-adv-x="586" 
d="M-19 65q146 292 338 500q194 209 342 194q93 -10 95 -88q2 -64 -61.5 -132t-140.5 -110t-132 -51q65 -3 110 -38t46 -95q1 -79 -70 -159.5t-170.5 -127.5t-181.5 -43q-26 1 -51.5 18t-26.5 47q-1 42 36.5 92t89.5 88t102.5 65t77.5 30q-47 -24 -107.5 -65.5t-111 -96.5
t-38.5 -88q7 -22 33 -22q56 0 142 47.5t154 119.5t68 131q0 75 -105 75q-19 0 -46 -3t-30 -3q-2 0 -7 3.5t-8.5 7.5t-2.5 4q30 7 93.5 47t127.5 91.5t112 108.5t48 93q0 31 -40 31q-126 -2 -350 -293q-131 -170 -221 -329q-126 -218 -144 -362q-9 -45 20 -47q-35 -15 -63 8
t-24 68q10 109 97 284z" />
    <glyph glyph-name="agrave" unicode="&#xe0;" 
d="M327 577q0 -33 69.5 -81t141.5 -48q5 0 -3 -5q-14 -7 -42 -7q-87 0 -163 40.5t-76 71.5q0 13 26.5 27t45.5 14q4 0 3 -3q-1 -2 -1.5 -4t-0.5 -5zM229 83q18 55 58 108q-35 -36 -137.5 -117t-129.5 -81q-3 0 -9 3q-14 7 -29 29.5t-15 37.5q0 40 39 97.5t97.5 109.5
t134.5 88.5t142 36.5q34 0 61 -15.5t27 -47.5q0 -22 -19 -47q-2 0 -3 1q11 20 11 36q0 46 -49 43q-83 -4 -196 -100q-43 -37 -84.5 -88.5t-61 -86t-14.5 -37.5q2 -1 6 0q23 8 102.5 63.5t122.5 92.5q1 1 27.5 26t48 43t32.5 24q14 7 34 -19.5t16 -37.5q-2 5 -27 -22.5
t-54.5 -69t-43.5 -71.5q-10 -23 -10 -34q59 17 255 201q9 8 13 12t7 -1v-5q-240 -262 -310 -262q-7 0 -17 6q-12 7 -22.5 20.5t-10.5 26.5q0 7 8 37z" />
    <glyph glyph-name="aacute" unicode="&#xe1;" 
d="M446 579q0 3 -1 6.5t-0.5 4.5t3.5 1q20 -2 47 -17.5t27 -28.5q-2 -18 -39.5 -40.5t-101.5 -38t-128 -11.5q-42 4 -47 14q79 -6 158 36t82 74zM229 83q18 55 58 108q-35 -36 -137.5 -117t-129.5 -81q-3 0 -9 3q-14 7 -29 29.5t-15 37.5q0 40 39 97.5t97.5 109.5
t134.5 88.5t142 36.5q34 0 61 -15.5t27 -47.5q0 -22 -19 -47q-2 0 -3 1q11 20 11 36q0 46 -49 43q-83 -4 -196 -100q-43 -37 -84.5 -88.5t-61 -86t-14.5 -37.5q2 -1 6 0q23 8 102.5 63.5t122.5 92.5q1 1 27.5 26t48 43t32.5 24q14 7 34 -19.5t16 -37.5q-2 5 -27 -22.5
t-54.5 -69t-43.5 -71.5q-10 -23 -10 -34q59 17 255 201q9 8 13 12t7 -1v-5q-240 -262 -310 -262q-7 0 -17 6q-12 7 -22.5 20.5t-10.5 26.5q0 7 8 37z" />
    <glyph glyph-name="acircumflex" unicode="&#xe2;" 
d="M474 554q-10 -34 8.5 -77.5t46.5 -54.5q3 -4 -4 -4q-25 -1 -65 28t-51 68q-48 -35 -110 -55t-103 -19q-6 -2 -12 3q64 12 133.5 53t108.5 87q4 6 27.5 -7.5t20.5 -21.5zM229 83q18 55 58 108q-35 -36 -137.5 -117t-129.5 -81q-3 0 -9 3q-14 7 -29 29.5t-15 37.5
q0 40 39 97.5t97.5 109.5t134.5 88.5t142 36.5q34 0 61 -15.5t27 -47.5q0 -22 -19 -47q-2 0 -3 1q11 20 11 36q0 46 -49 43q-83 -4 -196 -100q-43 -37 -84.5 -88.5t-61 -86t-14.5 -37.5q2 -1 6 0q23 8 102.5 63.5t122.5 92.5q1 1 27.5 26t48 43t32.5 24q14 7 34 -19.5
t16 -37.5q-2 5 -27 -22.5t-54.5 -69t-43.5 -71.5q-10 -23 -10 -34q59 17 255 201q9 8 13 12t7 -1v-5q-240 -262 -310 -262q-7 0 -17 6q-12 7 -22.5 20.5t-10.5 26.5q0 7 8 37z" />
    <glyph glyph-name="atilde" unicode="&#xe3;" 
d="M333 475q-20 5 -41 5q-45 0 -62 -36q-9 32 19 63.5t73 31.5q26 0 67 -22t47 -24q13 -4 30 -4q60 0 103 55q-17 -34 -56.5 -68t-81.5 -28q-26 3 -56 14t-42 13zM229 83q18 55 58 108q-35 -36 -137.5 -117t-129.5 -81q-3 0 -9 3q-14 7 -29 29.5t-15 37.5q0 40 39 97.5
t97.5 109.5t134.5 88.5t142 36.5q34 0 61 -15.5t27 -47.5q0 -22 -19 -47q-2 0 -3 1q11 20 11 36q0 46 -49 43q-83 -4 -196 -100q-43 -37 -84.5 -88.5t-61 -86t-14.5 -37.5q2 -1 6 0q23 8 102.5 63.5t122.5 92.5q1 1 27.5 26t48 43t32.5 24q14 7 34 -19.5t16 -37.5
q-2 5 -27 -22.5t-54.5 -69t-43.5 -71.5q-10 -23 -10 -34q59 17 255 201q9 8 13 12t7 -1v-5q-240 -262 -310 -262q-7 0 -17 6q-12 7 -22.5 20.5t-10.5 26.5q0 7 8 37z" />
    <glyph glyph-name="adieresis" unicode="&#xe4;" 
d="M407 536q-18 -1 -51.5 -39t-35.5 -38q-13 0 -24.5 13.5t-13.5 26.5q-1 20 20.5 45t42.5 27q14 1 36 -10.5t26 -24.5zM533 528q-18 -1 -51.5 -38.5t-35.5 -37.5q-13 -1 -24.5 12.5t-12.5 26.5q-2 20 19.5 45t42.5 27q14 1 35.5 -11t26.5 -24zM229 83q18 55 58 108
q-35 -36 -137.5 -117t-129.5 -81q-3 0 -9 3q-14 7 -29 29.5t-15 37.5q0 40 39 97.5t97.5 109.5t134.5 88.5t142 36.5q34 0 61 -15.5t27 -47.5q0 -22 -19 -47q-2 0 -3 1q11 20 11 36q0 46 -49 43q-83 -4 -196 -100q-43 -37 -84.5 -88.5t-61 -86t-14.5 -37.5q2 -1 6 0
q23 8 102.5 63.5t122.5 92.5q1 1 27.5 26t48 43t32.5 24q14 7 34 -19.5t16 -37.5q-2 5 -27 -22.5t-54.5 -69t-43.5 -71.5q-10 -23 -10 -34q59 17 255 201q9 8 13 12t7 -1v-5q-240 -262 -310 -262q-7 0 -17 6q-12 7 -22.5 20.5t-10.5 26.5q0 7 8 37z" />
    <glyph glyph-name="aring" unicode="&#xe5;" 
d="M389 488q15 0 32 6t30 14t24 16.5t18 14.5l7 6q2 0 2 -4q0 -18 -44 -61t-83 -43q-58 0 -58 57q0 48 52.5 98t102.5 50q48 0 48 -45q0 -11 -5 -24t-10 -20l-5 -7q-1 0 1.5 6.5t5.5 18t3 21.5q0 27 -22 27q-27 0 -68.5 -46t-41.5 -75q0 -10 11 -10zM229 83q18 55 58 108
q-35 -36 -137.5 -117t-129.5 -81q-3 0 -9 3q-14 7 -29 29.5t-15 37.5q0 40 39 97.5t97.5 109.5t134.5 88.5t142 36.5q34 0 61 -15.5t27 -47.5q0 -22 -19 -47q-2 0 -3 1q11 20 11 36q0 46 -49 43q-83 -4 -196 -100q-43 -37 -84.5 -88.5t-61 -86t-14.5 -37.5q2 -1 6 0
q23 8 102.5 63.5t122.5 92.5q1 1 27.5 26t48 43t32.5 24q14 7 34 -19.5t16 -37.5q-2 5 -27 -22.5t-54.5 -69t-43.5 -71.5q-10 -23 -10 -34q59 17 255 201q9 8 13 12t7 -1v-5q-240 -262 -310 -262q-7 0 -17 6q-12 7 -22.5 20.5t-10.5 26.5q0 7 8 37z" />
    <glyph glyph-name="ae" unicode="&#xe6;" horiz-adv-x="606" 
d="M354 135q-10 -13 -26 -42q-15 -26 -17 -44q-1 -10 4 -15.5t20 -5.5q17 0 40 7.5t54 25.5t53 31.5t61.5 43t54.5 40.5t57.5 44t45.5 36q3 2 4.5 0t-0.5 -4q-5 -5 -38 -36t-52 -48t-56 -48.5t-66 -50.5t-64 -40t-67.5 -31t-61.5 -10q-32 0 -52 18t-20 44q0 31 15 68
q11 27 36 64q-53 -49 -141.5 -118t-114.5 -69q-3 0 -9 3q-14 7 -29 29.5t-15 37.5q0 40 39 97.5t97 108.5t133.5 87.5t141.5 36.5q67 0 85 -44q78 44 131 44q15 0 38 -16t23 -35q0 -30 -51.5 -79.5t-125 -89t-127.5 -40.5zM283 209q5 4 26 23.5t42 38t34 26.5q29 24 68 48
q-11 22 -44 20q-83 -4 -196 -100q-43 -37 -84 -88t-60 -85t-14 -37q1 -1 6 0q23 8 102 63t120 91zM626 365q-75 -24 -150.5 -91.5t-107.5 -118.5q40 5 102.5 49.5t107.5 92.5t48 68z" />
    <glyph glyph-name="ccedilla" unicode="&#xe7;" horiz-adv-x="342" 
d="M65 53q0 -20 29 -17q95 10 357 224q5 3 7 -2q1 -2 0 -3q-213 -201 -332 -247q-1 -3 -41 -64q23 9 46 9q27 0 41.5 -13.5t6.5 -41.5q-20 -65 -124 -123t-201 -73q54 19 147.5 78t111.5 105q15 36 -71 4q-1 -1 -5 -2q-8 -3 -9 -3q-3 0 -7 4t-3 7q1 5 32 44.5t52 60.5
q-28 -7 -47 -7q-24 0 -46.5 19t-26.5 43q-2 15 2 30q7 35 35.5 83t75.5 94q61 60 130.5 96.5t123.5 36.5q16 0 36.5 -18.5t20.5 -30.5q0 -17 -15.5 -38t-29 -32.5t-37.5 -29.5q-2 -2 -5 0q-1 1 0 3q13 13 34 55t15 47q-50 -1 -124 -61t-126.5 -131t-52.5 -106z" />
    <glyph glyph-name="egrave" unicode="&#xe8;" horiz-adv-x="346" 
d="M278 589q0 -20 30.5 -50t82 -54.5t100.5 -24.5q2 0 -1 -3t-15 -6t-29 -3q-44 0 -89.5 12.5t-77.5 30t-52 36.5t-20 33q0 13 26.5 27.5t44.5 14.5q5 0 3 -3l-1.5 -3t-1 -3t-0.5 -4zM101 135q-36 -44 -40 -79q-2 -19 30 -19q49 0 152.5 69.5t204.5 153.5q1 1 4 0t4 -3t0 -3
q-131 -121 -203 -172q-125 -89 -204 -89q-24 0 -47.5 21.5t-23.5 41.5q0 30 13 66q40 90 138 173q58 48 118 74t97 26q15 0 38 -16t23 -35q0 -30 -51.5 -79.5t-125 -89t-127.5 -40.5zM373 365q-75 -24 -150.5 -91.5t-107.5 -118.5q40 5 102 49.5t107.5 92.5t48.5 68z" />
    <glyph glyph-name="eacute" unicode="&#xe9;" horiz-adv-x="346" 
d="M101 135q-36 -44 -40 -79q-2 -19 30 -19q49 0 152.5 69.5t204.5 153.5q1 1 4 0t4 -3t0 -3q-131 -121 -203 -172q-125 -89 -204 -89q-24 0 -47.5 21.5t-23.5 41.5q0 30 13 66q40 90 138 173q58 48 118 74t97 26q15 0 38 -16t23 -35q0 -30 -51.5 -79.5t-125 -89
t-127.5 -40.5zM373 365q-75 -24 -150.5 -91.5t-107.5 -118.5q40 5 102 49.5t107.5 92.5t48.5 68zM406 579q0 3 -1 6.5t-0.5 4.5t3.5 1q20 -2 47 -17.5t27 -28.5q-2 -18 -39.5 -40.5t-101.5 -38t-128 -11.5q-42 4 -47 14q79 -6 158 36t82 74z" />
    <glyph glyph-name="ecircumflex" unicode="&#xea;" horiz-adv-x="346" 
d="M425 547q-10 -30 6.5 -70t41.5 -49q3 -4 -4 -4q-23 -1 -61 22t-47 58q-43 -31 -96.5 -46t-92.5 -14q-7 -2 -12 3q58 10 120.5 47.5t98.5 78.5q5 5 26.5 -7t19.5 -19zM101 135q-36 -44 -40 -79q-2 -19 30 -19q49 0 152.5 69.5t204.5 153.5q1 1 4 0t4 -3t0 -3
q-131 -121 -203 -172q-125 -89 -204 -89q-24 0 -47.5 21.5t-23.5 41.5q0 30 13 66q40 90 138 173q58 48 118 74t97 26q15 0 38 -16t23 -35q0 -30 -51.5 -79.5t-125 -89t-127.5 -40.5zM373 365q-75 -24 -150.5 -91.5t-107.5 -118.5q40 5 102 49.5t107.5 92.5t48.5 68z" />
    <glyph glyph-name="edieresis" unicode="&#xeb;" horiz-adv-x="346" 
d="M369 537q-18 -1 -51.5 -39t-36.5 -38q-13 0 -24.5 13.5t-13.5 26.5q-1 20 20.5 45t42.5 27q15 1 36.5 -10.5t26.5 -24.5zM495 544q-18 -1 -51.5 -38.5t-35.5 -37.5q-13 -1 -25 12.5t-12 26.5q-2 20 19.5 45t41.5 27q14 1 36.5 -11t26.5 -24zM101 135q-36 -44 -40 -79
q-2 -19 30 -19q49 0 152.5 69.5t204.5 153.5q1 1 4 0t4 -3t0 -3q-131 -121 -203 -172q-125 -89 -204 -89q-24 0 -47.5 21.5t-23.5 41.5q0 30 13 66q40 90 138 173q58 48 118 74t97 26q15 0 38 -16t23 -35q0 -30 -51.5 -79.5t-125 -89t-127.5 -40.5zM373 365
q-75 -24 -150.5 -91.5t-107.5 -118.5q40 5 102 49.5t107.5 92.5t48.5 68z" />
    <glyph glyph-name="igrave" unicode="&#xec;" horiz-adv-x="225" 
d="M219 579q0 -33 69.5 -81t142.5 -48q5 0 -3 -5q-14 -7 -41 -7q-59 0 -116.5 20.5t-90 46.5t-32.5 45q0 13 26.5 27.5t44.5 14.5q3 0 2 -3q0 -2 -0.5 -3t-1 -3t-0.5 -4zM26 -7q-7 0 -12 1q-13 4 -27 19.5t-14 28.5q0 42 79.5 164.5t129.5 162.5q6 6 15 6q17 0 40 -23
t23 -42q-1 -2 -1.5 -1.5t-4.5 2t-7 1.5q-27 3 -102.5 -111t-87.5 -154q64 17 268 214q7 5 10 -2q1 -2 -1 -4q-237 -256 -308 -262z" />
    <glyph glyph-name="iacute" unicode="&#xed;" horiz-adv-x="225" 
d="M336 587q0 4 -1 7.5t-1 4.5t3 1q19 0 45.5 -14.5t26.5 -27.5q0 -14 -20 -33t-52 -36.5t-77.5 -30t-89.5 -12.5q-39 1 -45 12q73 0 142 48t69 81zM26 -7q-7 0 -12 1q-13 4 -27 19.5t-14 28.5q0 42 79.5 164.5t129.5 162.5q6 6 15 6q17 0 40 -23t23 -42q-1 -2 -1.5 -1.5
t-4.5 2t-7 1.5q-27 3 -102.5 -111t-87.5 -154q64 17 268 214q7 5 10 -2q1 -2 -1 -4q-237 -256 -308 -262z" />
    <glyph glyph-name="icircumflex" unicode="&#xee;" horiz-adv-x="225" 
d="M26 -7q-7 0 -12 1q-13 4 -27 19.5t-14 28.5q0 42 79.5 164.5t129.5 162.5q6 6 15 6q17 0 40 -23t23 -42q-1 -2 -1.5 -1.5t-4.5 2t-7 1.5q-27 3 -102.5 -111t-87.5 -154q64 17 268 214q7 5 10 -2q1 -2 -1 -4q-237 -256 -308 -262zM326 547q-10 -30 6.5 -70t41.5 -49
q3 -4 -4 -4q-23 -1 -61 22t-47 58q-43 -31 -96.5 -46t-92.5 -14q-7 -2 -12 3q58 10 120.5 47.5t98.5 78.5q5 5 26.5 -7t19.5 -19z" />
    <glyph glyph-name="idieresis" unicode="&#xef;" horiz-adv-x="225" 
d="M298 515q-18 -1 -51.5 -39t-35.5 -38q-13 0 -24.5 13.5t-13.5 26.5q-1 20 20.5 45t41.5 27q15 1 37 -10.5t26 -24.5zM425 522q-18 -1 -52 -38.5t-36 -37.5q-13 -1 -24.5 12.5t-12.5 26.5q-2 20 19.5 45t42.5 27q14 1 35.5 -11t27.5 -24zM26 -7q-7 0 -12 1q-13 4 -27 19.5
t-14 28.5q0 42 79.5 164.5t129.5 162.5q6 6 15 6q17 0 40 -23t23 -42q-1 -2 -1.5 -1.5t-4.5 2t-7 1.5q-27 3 -102.5 -111t-87.5 -154q64 17 268 214q7 5 10 -2q1 -2 -1 -4q-237 -256 -308 -262z" />
    <glyph glyph-name="eth" unicode="&#xf0;" horiz-adv-x="378" 
d="M363 485q-75 -24 -128 -58t-51 -55q1 -5 -20 8q-25 15 -27 31q-3 22 62 59t149 55q-24 55 -61 89.5t-80 40.5q5 5 21.5 6.5t37.5 -2.5q35 -8 72 -40.5t65 -86.5q30 3 56 3q35 0 63.5 -4.5t41 -9.5t15.5 -8q-14 2 -43 2q-57 0 -119 -14l6 -15q19 -50 19 -107
q0 -91 -44 -168q-51 -88 -143.5 -151t-178.5 -63q-33 0 -57 24t-24 53q0 57 37.5 115t94.5 101t124.5 70t125.5 27q-2 56 -14 98zM73 15q36 1 106.5 58.5t131.5 142.5t65 150q-34 -8 -70.5 -30t-68.5 -51t-63 -63.5t-52 -67.5t-37 -62.5t-18 -49t6 -27.5z" />
    <glyph glyph-name="ntilde" unicode="&#xf1;" 
d="M329 474q-20 5 -41 5q-45 0 -62 -36q-9 32 19 63.5t73 31.5q26 0 67 -22t47 -24q13 -4 30 -4q60 0 103 55q-17 -34 -56.5 -68t-81.5 -28q-26 3 -56 14t-42 13zM494 325q-24 -19 -103 -132.5t-80 -145.5q59 16 258 203q8 8 12 11q5 5 8 -1q2 -3 0 -5
q-89 -97 -179.5 -178.5t-130.5 -81.5q-12 0 -31 21q-18 23 -18 39q0 40 62 136t106 135q-59 -27 -151.5 -100.5t-151.5 -137.5q-20 -22 -36 -42q-20 -24 -25 -42.5t6 -23.5q-21 -5 -38 12.5t-23 41.5q-7 16 27 80q35 68 95 152q66 93 106 124q5 5 14 5q18 0 40 -22.5
t22 -41.5q0 -3 -4 -1q-1 1 -2 1.5t-2.5 1t-3.5 0.5q-9 1 -30.5 -21.5t-49.5 -58.5q-89 -118 -114 -164q15 22 51 56q85 83 191 164t131 81q17 0 35 -28t9 -37z" />
    <glyph glyph-name="ograve" unicode="&#xf2;" horiz-adv-x="397" 
d="M345 579q0 -33 69.5 -81t142.5 -48q2 0 -1 -3t-14.5 -6t-28.5 -3q-59 0 -116.5 20.5t-90 46.5t-32.5 45q0 13 26 27.5t45 14.5q3 0 2 -3q0 -2 -0.5 -3t-1 -3t-0.5 -4zM426 375q-4 0 -12.5 1.5t-12.5 1.5q-83 0 -176 -85.5t-140 -174.5t-18 -101q38 -16 122 66t144 173
q-5 8 -9.5 25t-1.5 24q2 8 19.5 24t26.5 17q15 2 23 -10q34 -55 83 -51q29 3 55.5 14t41 20.5t18.5 9.5q-4 -12 -32 -32t-62 -31q-28 -9 -59 -9q-20 0 -30 4q-13 -63 -75 -129t-137 -105.5t-128 -36.5q-33 2 -54.5 25.5t-21.5 53.5q0 59 37 119.5t92.5 105t122.5 73
t125 28.5q41 0 61 -17q3 -2 2.5 -2.5t-4.5 -0.5z" />
    <glyph glyph-name="oacute" unicode="&#xf3;" horiz-adv-x="397" 
d="M436 586q0 4 -1.5 7.5t-1 4.5t3.5 1q18 0 44.5 -14.5t26.5 -27.5q0 -14 -20 -33t-52 -36.5t-77.5 -30t-89.5 -12.5q-38 2 -44 12q72 0 141.5 48t69.5 81zM426 375q-4 0 -12.5 1.5t-12.5 1.5q-83 0 -176 -85.5t-140 -174.5t-18 -101q38 -16 122 66t144 173q-5 8 -9.5 25
t-1.5 24q2 8 19.5 24t26.5 17q15 2 23 -10q34 -55 83 -51q29 3 55.5 14t41 20.5t18.5 9.5q-4 -12 -32 -32t-62 -31q-28 -9 -59 -9q-20 0 -30 4q-13 -63 -75 -129t-137 -105.5t-128 -36.5q-33 2 -54.5 25.5t-21.5 53.5q0 59 37 119.5t92.5 105t122.5 73t125 28.5q41 0 61 -17
q3 -2 2.5 -2.5t-4.5 -0.5z" />
    <glyph glyph-name="ocircumflex" unicode="&#xf4;" horiz-adv-x="397" 
d="M426 375q-4 0 -12.5 1.5t-12.5 1.5q-83 0 -176 -85.5t-140 -174.5t-18 -101q38 -16 122 66t144 173q-5 8 -9.5 25t-1.5 24q2 8 19.5 24t26.5 17q15 2 23 -10q34 -55 83 -51q29 3 55.5 14t41 20.5t18.5 9.5q-4 -12 -32 -32t-62 -31q-28 -9 -59 -9q-20 0 -30 4
q-13 -63 -75 -129t-137 -105.5t-128 -36.5q-33 2 -54.5 25.5t-21.5 53.5q0 59 37 119.5t92.5 105t122.5 73t125 28.5q41 0 61 -17q3 -2 2.5 -2.5t-4.5 -0.5zM447 554q-10 -34 8.5 -77.5t46.5 -54.5q3 -4 -4 -4q-25 -1 -65 28t-51 68q-48 -35 -110 -55t-103 -19q-6 -2 -12 3
q64 12 133.5 53t108.5 87q4 6 27.5 -7.5t20.5 -21.5z" />
    <glyph glyph-name="otilde" unicode="&#xf5;" horiz-adv-x="397" 
d="M331 475q-20 5 -41 5q-45 0 -62 -36q-9 32 19 63.5t73 31.5q26 0 67 -22t47 -24q13 -4 30 -4q60 0 103 55q-17 -34 -56.5 -68t-81.5 -28q-26 3 -56 14t-42 13zM426 375q-4 0 -12.5 1.5t-12.5 1.5q-83 0 -176 -85.5t-140 -174.5t-18 -101q38 -16 122 66t144 173
q-5 8 -9.5 25t-1.5 24q2 8 19.5 24t26.5 17q15 2 23 -10q34 -55 83 -51q29 3 55.5 14t41 20.5t18.5 9.5q-4 -12 -32 -32t-62 -31q-28 -9 -59 -9q-20 0 -30 4q-13 -63 -75 -129t-137 -105.5t-128 -36.5q-33 2 -54.5 25.5t-21.5 53.5q0 59 37 119.5t92.5 105t122.5 73
t125 28.5q41 0 61 -17q3 -2 2.5 -2.5t-4.5 -0.5z" />
    <glyph glyph-name="odieresis" unicode="&#xf6;" horiz-adv-x="397" 
d="M381 522q-18 -1 -52 -39t-35 -38q-14 0 -25.5 13.5t-13.5 26.5q-1 20 20.5 45t42.5 27q15 1 36.5 -10.5t26.5 -24.5zM507 529q-18 -1 -51.5 -38.5t-35.5 -37.5q-13 -1 -25 12.5t-13 26.5q-1 20 20.5 45t41.5 27q14 1 36 -11t27 -24zM426 375q-4 0 -12.5 1.5t-12.5 1.5
q-83 0 -176 -85.5t-140 -174.5t-18 -101q38 -16 122 66t144 173q-5 8 -9.5 25t-1.5 24q2 8 19.5 24t26.5 17q15 2 23 -10q34 -55 83 -51q29 3 55.5 14t41 20.5t18.5 9.5q-4 -12 -32 -32t-62 -31q-28 -9 -59 -9q-20 0 -30 4q-13 -63 -75 -129t-137 -105.5t-128 -36.5
q-33 2 -54.5 25.5t-21.5 53.5q0 59 37 119.5t92.5 105t122.5 73t125 28.5q41 0 61 -17q3 -2 2.5 -2.5t-4.5 -0.5z" />
    <glyph glyph-name="divide" unicode="&#xf7;" horiz-adv-x="630" 
d="M173 141q-21 0 -35.5 18.5t-14.5 35.5q0 16 91.5 31t157.5 15q63 0 126 -5t102 -12.5t39 -14.5q0 -3 -3 -3q-73 0 -267 -32.5t-196 -32.5zM518 358q-19 -1 -55.5 -42.5t-40.5 -41.5q-14 -1 -26.5 13.5t-14.5 29.5q-1 21 23 49.5t46 29.5q17 1 40.5 -11.5t27.5 -26.5z
M328 78q-19 -1 -56 -42.5t-40 -41.5q-15 -1 -27 13.5t-14 29.5q-1 21 23 49.5t46 29.5q16 1 40 -11.5t28 -26.5z" />
    <glyph glyph-name="oslash" unicode="&#xf8;" horiz-adv-x="397" 
d="M426 375q-6 0 -8 1l-37 -33l10 -7q34 -55 83 -51q29 3 55.5 14t41 20.5t18.5 9.5q-4 -12 -32 -32t-62 -31q-28 -9 -59 -9q-20 0 -30 4q-13 -63 -74 -128t-135.5 -104.5t-127.5 -38.5q-34 -45 -36 -62q0 -6 6 -7q14 -1 31 11q-19 -22 -33 -21q-7 1 -12.5 7t-4.5 15
q1 19 24 61q-25 8 -39.5 29t-14.5 46q0 59 37 119.5t92.5 105t122.5 73t125 28.5h8q57 53 79 51q7 -1 11.5 -2t8 -4t5 -5t5 -7.5t5.5 -7.5q-11 7 -65 -39l4 -3q3 -2 2.5 -2.5t-4.5 -0.5zM62 21q48 76 131 177t155 171q-56 -18 -115.5 -70t-99 -108t-61.5 -105.5t-10 -64.5z
M322 284q-144 -152 -233 -268q44 9 118.5 85.5t125.5 154.5q-6 10 -11 28z" />
    <glyph glyph-name="ugrave" unicode="&#xf9;" horiz-adv-x="479" 
d="M285 581q0 -33 69.5 -81t142.5 -48q2 0 -1 -3t-15 -6t-29 -3q-44 0 -89.5 12.5t-77.5 30t-52 36.5t-20 33q0 13 26.5 27.5t45.5 14.5q3 0 2 -3q-1 -2 -1 -3t-0.5 -3t-0.5 -4zM235 91q36 91 92 163q-9 -9 -44 -45t-49.5 -50.5l-45 -45t-48 -45t-40.5 -33.5t-39.5 -28.5
t-28.5 -11.5h-8q-12 0 -29 17t-17 34q0 31 33 96t78 127q59 83 102 117q6 6 14 6q18 0 40.5 -23t22.5 -42q0 -3 -4 -1q-1 1 -2 1.5t-2.5 1t-3.5 0.5q-11 1 -35 -25t-57 -69q-40 -53 -70.5 -107.5t-30.5 -75.5q33 13 93 62.5t105 93.5q3 3 76.5 79.5t106.5 102.5q6 5 15 5
q17 0 39 -22.5t22 -41.5q0 -2 -3 -1q-1 1 -2 1.5t-3 1t-4 0.5q-10 0 -33 -23q-28 -32 -76 -96q-37 -50 -62 -97.5t-25 -68.5q61 19 266 213q5 5 8 -1q2 -3 0 -5q-240 -262 -310 -262q-8 0 -16 6q-13 6 -24.5 21t-11.5 28q0 10 11 43z" />
    <glyph glyph-name="uacute" unicode="&#xfa;" horiz-adv-x="479" 
d="M441 580q0 4 -1.5 7.5t-1 4.5t3.5 1q19 0 45 -14.5t26 -27.5q0 -14 -20 -33t-52 -36.5t-77.5 -30t-89.5 -12.5q-38 1 -44 12q72 0 141.5 48t69.5 81zM235 91q36 91 92 163q-9 -9 -44 -45t-49.5 -50.5l-45 -45t-48 -45t-40.5 -33.5t-39.5 -28.5t-28.5 -11.5h-8
q-12 0 -29 17t-17 34q0 31 33 96t78 127q59 83 102 117q6 6 14 6q18 0 40.5 -23t22.5 -42q0 -3 -4 -1q-1 1 -2 1.5t-2.5 1t-3.5 0.5q-11 1 -35 -25t-57 -69q-40 -53 -70.5 -107.5t-30.5 -75.5q33 13 93 62.5t105 93.5q3 3 76.5 79.5t106.5 102.5q6 5 15 5q17 0 39 -22.5
t22 -41.5q0 -2 -3 -1q-1 1 -2 1.5t-3 1t-4 0.5q-10 0 -33 -23q-28 -32 -76 -96q-37 -50 -62 -97.5t-25 -68.5q61 19 266 213q5 5 8 -1q2 -3 0 -5q-240 -262 -310 -262q-8 0 -16 6q-13 6 -24.5 21t-11.5 28q0 10 11 43z" />
    <glyph glyph-name="ucircumflex" unicode="&#xfb;" horiz-adv-x="479" 
d="M235 91q36 91 92 163q-9 -9 -44 -45t-49.5 -50.5l-45 -45t-48 -45t-40.5 -33.5t-39.5 -28.5t-28.5 -11.5h-8q-12 0 -29 17t-17 34q0 31 33 96t78 127q59 83 102 117q6 6 14 6q18 0 40.5 -23t22.5 -42q0 -3 -4 -1q-1 1 -2 1.5t-2.5 1t-3.5 0.5q-11 1 -35 -25t-57 -69
q-40 -53 -70.5 -107.5t-30.5 -75.5q33 13 93 62.5t105 93.5q3 3 76.5 79.5t106.5 102.5q6 5 15 5q17 0 39 -22.5t22 -41.5q0 -2 -3 -1q-1 1 -2 1.5t-3 1t-4 0.5q-10 0 -33 -23q-28 -32 -76 -96q-37 -50 -62 -97.5t-25 -68.5q61 19 266 213q5 5 8 -1q2 -3 0 -5
q-240 -262 -310 -262q-8 0 -16 6q-13 6 -24.5 21t-11.5 28q0 10 11 43zM422 552q-10 -30 6.5 -70t41.5 -49q3 -4 -4 -4q-23 -1 -61 22t-47 58q-43 -31 -96.5 -46t-92.5 -14q-7 -2 -12 3q58 10 120.5 47.5t98.5 78.5q5 5 26.5 -7t19.5 -19z" />
    <glyph glyph-name="udieresis" unicode="&#xfc;" horiz-adv-x="479" 
d="M372 522q-18 -1 -51 -39t-35 -38q-14 0 -25 13t-14 27q-1 20 20.5 45t42.5 27q15 1 36.5 -10.5t25.5 -24.5zM499 529q-17 -1 -51 -38.5t-37 -37.5q-13 -1 -24.5 12.5t-12.5 26.5q-2 20 20 45t42 27q14 1 36 -11t27 -24zM235 91q36 91 92 163q-9 -9 -44 -45t-49.5 -50.5
l-45 -45t-48 -45t-40.5 -33.5t-39.5 -28.5t-28.5 -11.5h-8q-12 0 -29 17t-17 34q0 31 33 96t78 127q59 83 102 117q6 6 14 6q18 0 40.5 -23t22.5 -42q0 -3 -4 -1q-1 1 -2 1.5t-2.5 1t-3.5 0.5q-11 1 -35 -25t-57 -69q-40 -53 -70.5 -107.5t-30.5 -75.5q33 13 93 62.5
t105 93.5q3 3 76.5 79.5t106.5 102.5q6 5 15 5q17 0 39 -22.5t22 -41.5q0 -2 -3 -1q-1 1 -2 1.5t-3 1t-4 0.5q-10 0 -33 -23q-28 -32 -76 -96q-37 -50 -62 -97.5t-25 -68.5q61 19 266 213q5 5 8 -1q2 -3 0 -5q-240 -262 -310 -262q-8 0 -16 6q-13 6 -24.5 21t-11.5 28
q0 10 11 43z" />
    <glyph glyph-name="yacute" unicode="&#xfd;" horiz-adv-x="414" 
d="M433 575q0 4 -2 9q-1 2 -0.5 2.5t3.5 0.5q19 0 45 -14t26 -27q0 -31 -76 -71.5t-163 -40.5q-38 1 -44 12q73 0 142 48t69 81zM482 309q-30 -31 -126 -152q-91 -111 -297 -493q55 76 142 159.5t112 91.5l5 -6q-97 -76 -186 -200.5t-101 -171.5q-3 -3 -11 -3
q-26 -3 -40.5 24t-11.5 45q4 30 43 116q53 118 143.5 276t184.5 265q-10 -10 -34.5 -35.5t-37.5 -38.5t-37 -37.5t-39 -38t-36 -33.5t-36 -31.5t-31 -23.5t-28.5 -18.5t-22.5 -8.5h-8q-12 0 -29 17t-17 34q0 31 33 96t78 127q53 76 100 114q6 6 14 6q18 0 40 -23t22 -42
q0 -3 -3 -1q-1 1 -2 1.5t-2.5 1t-3.5 0.5q-11 1 -33.5 -23.5t-57.5 -67.5q-39 -54 -69.5 -108t-30.5 -75q33 14 93.5 63.5t103.5 92.5q10 10 82 82.5t105 98.5q7 6 14 6q18 0 40.5 -23t22.5 -42q0 -3 -4 -1q-1 1 -2 1.5t-2.5 1t-3.5 0.5q-11 1 -35 -23z" />
    <glyph glyph-name="thorn" unicode="&#xfe;" horiz-adv-x="439" 
d="M-266 -382q36 130 145 325.5t218 355t224 311.5q46 59 82 91q27 20 38 20q43 2 74 -32q12 -12 7 -13q-1 -1 -4 1q-7 1 -12.5 1.5t-14.5 -5.5t-16 -11t-17 -15.5t-17 -18.5t-17.5 -21t-17 -21.5t-16 -21t-15.5 -19.5q-130 -165 -270 -379q70 77 183 154t149 65
q10 -4 28.5 -25.5t18.5 -32.5q0 -45 -53 -122.5t-133.5 -140.5t-144.5 -63q-31 0 -58 17t-27 41q2 3 5 4q0 -8 12 -18.5t26 -10.5q46 0 115.5 67t119 140t56.5 104q-11 0 -56 -24.5t-129 -88t-162 -146.5l-23 -37q-13 -21 -53.5 -87t-60.5 -101.5t-49.5 -90.5t-46 -100
t-23.5 -84q-9 -45 19 -48q-36 -14 -63 10.5t-21 69.5z" />
    <glyph glyph-name="ydieresis" unicode="&#xff;" horiz-adv-x="414" 
d="M376 523q-18 -1 -51.5 -39t-35.5 -38q-14 0 -25 13.5t-13 26.5q-1 20 21 45t42 27q14 1 35.5 -10.5t26.5 -24.5zM503 530q-18 -1 -51.5 -38.5t-35.5 -37.5q-13 -1 -25 12.5t-13 26.5q-2 20 19.5 45t42.5 27q15 1 36.5 -11t26.5 -24zM482 309q-30 -31 -126 -152
q-91 -111 -297 -493q55 76 142 159.5t112 91.5l5 -6q-97 -76 -186 -200.5t-101 -171.5q-3 -3 -11 -3q-26 -3 -40.5 24t-11.5 45q4 30 43 116q53 118 143.5 276t184.5 265q-10 -10 -34.5 -35.5t-37.5 -38.5t-37 -37.5t-39 -38t-36 -33.5t-36 -31.5t-31 -23.5t-28.5 -18.5
t-22.5 -8.5h-8q-12 0 -29 17t-17 34q0 31 33 96t78 127q53 76 100 114q6 6 14 6q18 0 40 -23t22 -42q0 -3 -3 -1q-1 1 -2 1.5t-2.5 1t-3.5 0.5q-11 1 -33.5 -23.5t-57.5 -67.5q-39 -54 -69.5 -108t-30.5 -75q33 14 93.5 63.5t103.5 92.5q10 10 82 82.5t105 98.5q7 6 14 6
q18 0 40.5 -23t22.5 -42q0 -3 -4 -1q-1 1 -2 1.5t-2.5 1t-3.5 0.5q-11 1 -35 -23z" />
    <glyph glyph-name="Lslash" unicode="&#x141;" horiz-adv-x="940" 
d="M1173 -148q-87 36 -210.5 57.5t-255.5 21.5q-81 0 -162 -9q-150 -18 -268.5 -62t-164.5 -84.5t-22 -58.5q-19 0 -45.5 24.5t-29.5 54.5q-4 37 65 74t177 65q67 47 167 156q-32 -9 -64.5 -19.5t-48 -15.5t-20.5 -5q-14 3 -29 12.5t-15 21.5q-4 16 73.5 37.5t161.5 34.5
q16 19 28.5 33.5t16 18.5t6.5 7q-62 -8 -117 -8q-129 0 -222.5 46.5t-101.5 114.5q-3 23 25 55q13 15 32.5 24t31.5 9t18 -1q-14 -5 -26.5 -16.5t-13.5 -24.5q-2 -56 84.5 -109t216.5 -53q28 0 58 3q37 4 52 7q34 42 98 125.5t103 133t97.5 116t101.5 103.5t93 64.5t93 28.5
q45 1 72.5 -25.5t22.5 -72.5q-15 -132 -192 -281t-407 -213l-67 -77q15 1 45 1q74 0 137.5 -6.5t65.5 -13.5q0 -2 -5 -2q-156 -3 -286 -27q-99 -106 -178 -159q80 14 143 17q46 2 71 2q173 0 349 -34.5t246 -90.5zM1152 806q-23 -7 -58 -38.5t-83.5 -88t-92 -110t-110 -137
t-111.5 -137.5q113 38 213.5 107t161 139.5t94.5 133t30 95.5q-2 21 -13.5 31.5t-30.5 4.5z" />
    <glyph glyph-name="lslash" unicode="&#x142;" horiz-adv-x="241" 
d="M75 312q-12 -1 -25.5 3.5t-16.5 14.5q-4 11 46 39t110 53q59 87 145 202q48 62 84 91q23 20 37 20q43 2 75 -33q10 -11 6 -12q-1 -1 -4 1q-8 0 -13 1.5t-14.5 -5.5t-16 -11.5t-17 -15.5t-17.5 -18.5t-17.5 -20.5t-17 -21.5t-16.5 -21t-15 -19.5q-37 -45 -72 -97
q40 9 82 16t64.5 8.5t28.5 -0.5q0 -2 -4 -3q-111 -28 -201 -64l-32 -47q-151 -226 -187 -323q9 -1 25 7t38 24t42.5 32.5t47.5 41t44 40.5t41 38.5t30 28.5q5 4 8 -1q0 -3 -1 -5q-57 -66 -150 -156t-133 -104q-13 -5 -32 4q-7 3 -19.5 16.5t-16.5 23.5q-3 6 -3 15
q0 54 154 296q-15 -8 -31.5 -18t-24.5 -15t-11 -5z" />
    <glyph glyph-name="OE" unicode="&#x152;" horiz-adv-x="1508" 
d="M1684 715q-3 -55 -49 -113t-110.5 -94t-119.5 -36q-17 0 -31 14t-12 29q1 14 27 37t44 30q-22 -22 -27 -41q-2 -5 1 -5q22 0 81 30.5t114.5 80.5t57.5 92q1 38 -32.5 52.5t-78.5 14.5q-79 0 -184.5 -58t-179 -132.5t-74.5 -121.5q0 -32 22.5 -54.5t58 -33.5t68 -15.5
t63.5 -4.5q8 0 -6 -21q-19 -27 -39 -27q-84 0 -203 -65t-213 -154q-6 -7 -40 -41q-72 -80 -73 -135q-1 -31 19.5 -50t62.5 -23q70 -8 182.5 32.5t229 107.5t218 135.5t175.5 128.5q2 0 2.5 -4t-0.5 -5q-53 -52 -146 -124t-214 -153t-251 -135.5t-222 -52.5
q-71 1 -113.5 41.5t-37.5 97.5q-216 -148 -401 -148q-88 0 -143 46.5t-54 117.5q2 109 79 238.5t185.5 231.5t233.5 171t218 69q46 0 76.5 -20t30.5 -54q0 -13 -6 -30q1 22 -23 35t-53 13q-79 0 -196.5 -71.5t-222 -173t-181 -223.5t-78.5 -213q0 -91 113 -91q70 0 173 49.5
t208.5 133.5t198.5 183t151.5 208.5t58.5 199.5q0 189 -205 189q-106 0 -214.5 -39.5t-192 -99.5t-150.5 -128t-103 -127.5t-36 -94.5q0 -7 1 -13t2 -10t4 -7.5t4.5 -5.5t6.5 -4t6.5 -3t7 -2.5t7.5 -2.5q-10 -6 -30 -6q-28 0 -50.5 24t-21.5 59q1 69 68 155t168.5 159
t236 123t258.5 50q120 0 201.5 -51t97.5 -156q76 88 207.5 149.5t237.5 61.5q31 0 55.5 -4t48.5 -15.5t36.5 -36t10.5 -60.5zM1054 406q-31 -72 -68 -129q117 59 197 67q-29 4 -66.5 20t-62.5 42z" />
    <glyph glyph-name="oe" unicode="&#x153;" horiz-adv-x="604" 
d="M355 135q-36 -44 -40 -79q-2 -19 30 -19q49 0 154 70t203 153q2 1 4.5 0t3.5 -2.5t0 -3.5q-131 -121 -203 -172q-125 -89 -204 -89q-22 0 -44.5 18.5t-26.5 38.5q-96 -63 -166 -60q-33 2 -54.5 25.5t-21.5 53.5q0 59 37 119.5t92.5 105t122.5 73t125 28.5q41 0 61 -17
q3 -2 2.5 -2.5t-4.5 -0.5t-12.5 1.5t-12.5 1.5q-83 0 -176 -85.5t-140 -174.5t-18 -101q31 -13 93 40t123 131q7 10 23 30q5 7 14 20t13 18q-5 8 -9.5 25t-1.5 24q2 8 19.5 24t26.5 17q15 2 23 -10l16 -23q53 39 106 60.5t85 21.5q15 0 38 -16t23 -35q0 -30 -51.5 -79.5
t-125 -89t-127.5 -40.5zM627 365q-75 -24 -150.5 -91.5t-107.5 -118.5q40 5 102 49.5t107.5 92.5t48.5 68z" />
    <glyph glyph-name="Scaron" unicode="&#x160;" horiz-adv-x="968" 
d="M922 861q0 29 -34 75.5t-45 46.5l1 3l5 1q17 0 56 -25.5t56 -44.5q28 14 90 31.5t96 17.5q7 -1 9 -5q-13 0 -110.5 -49.5t-97.5 -61.5q0 -1 -6.5 0t-13 4t-6.5 7zM48 -117q0 -40 84 -40q87 0 217 43t244.5 104t197 132.5t82.5 123.5q0 76 -181 126q-18 5 -51 13
t-52.5 13.5t-47 14t-43.5 17.5t-31.5 20.5t-23 27t-7.5 33.5q0 59 52.5 117.5t127.5 98t154 64.5t135 27q73 2 112.5 -19.5t38.5 -76.5q-1 -57 -49.5 -116t-114.5 -95.5t-119 -36.5q-18 0 -33.5 7.5t-15.5 22.5q0 28 20 56.5t39 39.5q-21 -24 -21 -52q0 -6 11 -6
q23 0 79.5 31t110.5 80.5t60 91.5q4 22 -13 31.5t-48 9.5q-10 0 -36 -2q-65 -7 -164.5 -54.5t-178.5 -113.5t-79 -114q0 -14 6.5 -26t23.5 -22.5t29.5 -17.5t43 -17t44 -14t50.5 -14q42 -11 68.5 -20t60.5 -24.5t53.5 -32.5t33.5 -43.5t14 -58.5q0 -78 -82.5 -159.5
t-201 -140t-252 -96t-235.5 -37.5q-39 0 -72.5 7.5t-61.5 30.5t-28 60q0 52 72.5 122t169.5 127t194 96.5t145 38.5q-124 -34 -252 -112t-203.5 -153t-75.5 -113z" />
    <glyph glyph-name="scaron" unicode="&#x161;" horiz-adv-x="283" 
d="M281 475q0 28 -33.5 75t-43.5 47v3l5 1q17 0 55.5 -25t55.5 -45q29 14 91 31.5t95 17.5q9 0 11 -5q-13 0 -110.5 -49.5t-97.5 -61.5q0 -1 -7 0t-14 4t-7 7zM342 355q-35 3 -119.5 -50.5t-94.5 -87.5q-1 -5 0.5 -10t5.5 -10t7.5 -8t9.5 -8t7 -6q72 40 145 68t108.5 36
t47.5 8q6 0 6 -5l-20 -9q-7 -2 -23 -7q-180 -59 -255 -104q13 -10 25 -28t10 -32q-10 -45 -83 -81.5t-128 -36.5q-29 0 -38 40q2 28 73.5 76.5t111.5 64.5q-1 1 -21 18.5t-32 36.5t-8 39q12 55 95.5 103t152.5 48q19 0 30 -25t8 -50q-1 -12 -36.5 -43t-54.5 -31q-1 1 -2 4
q2 0 19 18t34.5 40.5t18.5 31.5zM142 148q-115 -65 -163 -113q39 11 101 49.5t62 63.5z" />
    <glyph glyph-name="Ydieresis" unicode="&#x178;" horiz-adv-x="1069" 
d="M1083 847q-17 -1 -51 -39t-37 -38q-13 0 -24 13.5t-13 26.5q-2 19 20 44.5t42 27.5q15 1 37 -10.5t26 -24.5zM1210 839q-18 -1 -52.5 -38.5t-35.5 -37.5q-13 -1 -24 12t-13 27q-2 20 19.5 45t42.5 27q15 1 36.5 -11t26.5 -24zM1064 470q-109 -118 -253 -234.5
t-214 -121.5q-35 -2 -58.5 21t-24.5 43q-2 37 30 99t80 128t96 129.5t81 118t31 79.5q-2 23 -12 37.5t-22.5 18t-26 5.5t-23.5 0q-71 -4 -158.5 -52.5t-162.5 -116t-139 -138.5t-100.5 -126.5t-35.5 -72.5q1 -9 8.5 -13.5t16.5 -2.5q18 0 32 7q-9 -14 -27 -26t-35 -14
q-23 -2 -44 11.5t-22 34.5q-4 61 60.5 150.5t162 170.5t222 142.5t229.5 68.5q53 4 92.5 -21.5t42.5 -78.5q3 -51 -45 -138t-107 -164t-108 -150.5t-47 -100.5q1 -15 35 -11q66 7 206.5 125t263.5 264q34 40 72.5 89t63 80t49 60t41.5 43t28 14q29 0 53.5 -20t25.5 -37
q-8 7 -22 7q-28 -2 -101.5 -109t-179.5 -277t-163 -248q-27 -38 -34 -50q90 -16 126 -45q0 -1 -1 -1q-71 24 -133 34q-55 -77 -137 -162t-177 -163t-198 -128.5t-184 -50.5q-114 0 -121 87q-6 88 82 187t236 170t300 81q42 2 65 2q26 0 37 -1q147 197 248 367zM199 -361
q89 6 209 79.5t223 171.5t176 197h-57q-87 0 -197.5 -38t-204 -95.5t-155.5 -131t-58 -137.5q1 -24 19.5 -36t44.5 -10z" />
    <glyph glyph-name="Zcaron" unicode="&#x17d;" horiz-adv-x="864" 
d="M808 792q0 29 -34 75.5t-45 46.5v3l5 1q18 0 57 -25t56 -45q28 14 90 31.5t96 17.5q6 -1 9 -5q-13 0 -110.5 -50t-97.5 -62q0 -1 -6.5 0.5t-13 4.5t-6.5 7zM1188 748l-20 -8q-21 -9 -57 -23t-82.5 -31t-101.5 -35t-110 -33t-112 -26t-104 -13q-60 -3 -98.5 9t-38.5 33
q0 53 49.5 105t94.5 73q-79 -71 -79 -105q0 -21 26 -28t73 -8q112 -1 236.5 21t207.5 49.5t147.5 50t71.5 22.5t12 -15q2 -8 -2 -8l-19 -10q-478 -241 -857 -575q-16 -14 -80.5 -69.5t-107.5 -95.5t-78 -78q72 25 188.5 39t231.5 13q267 -4 368 -102q-103 64 -293 66
q-136 1 -288 -28.5t-249 -71t-97 -74.5q-1 -17 -12 4q-15 27 -15 56q1 79 238 277t522.5 381t434.5 238z" />
    <glyph glyph-name="zcaron" unicode="&#x17e;" horiz-adv-x="392" 
d="M303 436q0 28 -34 75t-44 47v3l5 1q17 0 56 -25.5t56 -44.5q28 14 90 31.5t95 17.5q10 0 12 -5q-14 0 -112 -49.5t-98 -62.5q0 -1 -6.5 0.5t-13 4.5t-6.5 7zM191 396q-10 -24 27 -43t85 -16q41 3 82.5 22t47.5 31q4 6 19 -9.5t25.5 -37.5t4.5 -31q-56 -7 -213 -98.5
t-204 -143.5q37 20 107 20q64 0 119 -21.5t78 -67.5q3 -8 -1 -8q-1 0 -3 2q-37 64 -170 64q-45 0 -88 -17t-69.5 -34.5t-30.5 -17.5q-12 0 -35 28t-17 39q31 57 171.5 152t217.5 117q-45 -14 -103 -14q-68 0 -89 16q-17 15 -2 38.5t41 29.5z" />
    <glyph glyph-name="circumflex" unicode="&#x2c6;" horiz-adv-x="313" 
d="M325 526q-9 -30 8 -70t42 -49q3 -4 -4 -4q-23 -1 -59 25.5t-46 61.5q-43 -32 -99 -49.5t-94 -17.5l-12 3h1q58 10 120.5 47.5t98.5 78.5q4 5 25.5 -7t18.5 -19z" />
    <glyph glyph-name="caron" unicode="&#x2c7;" horiz-adv-x="391" 
d="M216 408q0 19 -17.5 49.5t-36 51.5t-23.5 21q-3 4 4 4q18 0 57 -25.5t55 -44.5q28 14 90 31.5t96 17.5q8 0 11 -5q-14 0 -111.5 -49.5t-97.5 -62.5q0 -1 -6.5 0.5t-13.5 4.5t-7 7z" />
    <glyph glyph-name="ring" unicode="&#x2da;" horiz-adv-x="320" 
d="M239 410q15 0 31.5 6t30 14t24.5 16.5t17 14.5l7 6q3 0 3 -3q0 -19 -44.5 -62t-83.5 -43q-58 0 -58 57q0 48 53 98.5t102 50.5t49 -46q0 -11 -5 -23.5t-11 -19.5l-5 -8q-1 0 1.5 6.5t5.5 18.5t3 22q0 26 -22 26q-27 0 -68.5 -46t-41.5 -75q0 -10 12 -10z" />
    <glyph glyph-name="tilde" unicode="&#x2dc;" horiz-adv-x="460" 
d="M334 460q-20 5 -41 5q-45 0 -62 -36q-9 32 19 63.5t73 31.5q26 0 67 -22t47 -24q13 -4 30 -4q60 0 103 55q-17 -34 -56.5 -68t-81.5 -28q-26 3 -56 14t-42 13z" />
    <glyph glyph-name="quoteleft" unicode="&#x2018;" horiz-adv-x="346" 
d="M489 811q9 0 1 -6q-28 -14 -95.5 -95.5t-67.5 -93.5q0 -9 -13 -9q-17 0 -33.5 18t-16.5 33t37.5 51.5t93 69t94.5 32.5z" />
    <glyph glyph-name="quoteright" unicode="&#x2019;" horiz-adv-x="450" 
d="M300 607q-2 0 -2.5 2t1.5 4q28 14 95.5 95.5t67.5 93.5q0 9 13 9q16 0 32.5 -18t16.5 -33t-37.5 -51.5t-92.5 -69t-94 -32.5z" />
    <glyph glyph-name="quotedblleft" unicode="&#x201c;" horiz-adv-x="390" 
d="M427 609q0 -2 -2 -2q-17 0 -44.5 7t-27.5 19q0 24 72 82t99 58q7 0 7 -4q-12 -8 -58 -76t-46 -84zM313 609q0 -2 -3 -2q-17 0 -44 7t-27 19q0 24 72 82t99 58q6 0 6 -4q-12 -8 -57.5 -76t-45.5 -84z" />
    <glyph glyph-name="quotedblright" unicode="&#x201d;" horiz-adv-x="396" 
d="M310 771q0 2 3 2q18 0 45 -7t27 -19q0 -24 -72.5 -82t-99.5 -58q-6 0 -6 4q12 8 57.5 76t45.5 84zM425 771q0 2 2 2q18 0 45.5 -7t27.5 -19q0 -24 -72.5 -82t-99.5 -58q-6 0 -6 4q13 8 58 75.5t45 84.5z" />
    <glyph glyph-name="bullet" unicode="&#x2022;" horiz-adv-x="460" 
d="M302 282q13 0 20.5 -9t7.5 -23q0 -33 -29.5 -66t-63.5 -33q-31 0 -31 34q0 32 30.5 64.5t65.5 32.5z" />
    <glyph glyph-name="ellipsis" unicode="&#x2026;" horiz-adv-x="812" 
d="M246 74q-19 -1 -56 -43t-40 -42q-14 -1 -26.5 14t-14.5 30q-2 21 22 49t47 30q17 1 40.5 -11.5t27.5 -26.5zM462 74q-19 -1 -55.5 -43t-39.5 -42q-15 -1 -27 14t-15 30q-2 21 22.5 49t46.5 30q17 1 40.5 -11.5t27.5 -26.5zM679 74q-19 -1 -56.5 -43t-40.5 -42
q-14 -1 -26.5 14t-13.5 30q-2 21 22 49t47 30q16 1 40 -11.5t28 -26.5z" />
    <glyph glyph-name="perthousand" unicode="&#x2030;" horiz-adv-x="1242" 
d="M275 444q34 0 73.5 20t67.5 44.5t52.5 44.5t32.5 20q3 0 3 -8q0 -7 -21.5 -36.5t-54.5 -64.5t-80.5 -62t-91.5 -27q-41 0 -67.5 29.5t-26.5 72.5q0 64 48.5 132t118.5 111t131 43q36 0 61.5 -20t25.5 -57q0 -22 -10 -49.5t-20.5 -44t-14.5 -16.5q-3 0 2 9t12 32.5t7 49.5
q0 55 -45 55q-70 0 -156 -92.5t-86 -160.5q0 -25 39 -25zM568 22q33 0 72.5 20t67.5 44.5t52.5 44.5t32.5 20q4 0 4 -7q0 -8 -21.5 -37t-54.5 -64t-80.5 -62t-91.5 -27q-42 0 -68.5 29t-26.5 72q0 64 48.5 132t119 111t131.5 43q36 0 61 -20t25 -56q0 -23 -10 -50
t-20.5 -43.5t-14.5 -16.5q-2 0 3 9t12.5 32t7.5 49q0 55 -47 55q-45 0 -103.5 -44.5t-98.5 -105t-40 -103.5q0 -25 40 -25zM196 23q0 63 145 243.5t314.5 336t229.5 155.5q16 0 35 -15t28 -32q-42 5 -219 -153.5t-335.5 -331.5t-158.5 -208q0 -9 7 -9q10 0 21.5 4t17.5 7.5
t6 2.5q0 -2 -10 -9.5t-26 -15t-30 -7.5q-11 0 -18 10.5t-7 21.5zM915 22q34 0 73.5 20t68 44.5t53 44.5t31.5 20q3 0 3 -7q0 -8 -21.5 -37t-54 -64t-80.5 -62t-92 -27q-42 0 -68.5 29t-26.5 72q0 64 48.5 132t119 111t132.5 43q35 0 61 -20t26 -56q0 -23 -10.5 -50
t-21 -43.5t-14.5 -16.5q-2 0 2.5 9t12 32t7.5 49q0 55 -45 55q-70 0 -157 -92.5t-87 -160.5q0 -25 40 -25z" />
    <glyph glyph-name="fraction" unicode="&#x2044;" horiz-adv-x="397" 
d="M752 809q-33 15 -196 -186t-312 -425t-149 -269q0 -11 8 -11q16 0 50 21q-14 -17 -34.5 -31t-33.5 -14q-12 0 -21 11.5t-9 26.5q0 55 83 207t189 307.5t209.5 277.5t139.5 122q44 0 76 -37z" />
    <glyph glyph-name="Euro" unicode="&#x20ac;" horiz-adv-x="949" 
d="M855 438q-20 0 -32.5 9.5t-12.5 22.5q0 14 16 32.5t44 34.5q0 -1 -3 -3q-29 -35 -16 -35q32 0 95.5 48.5t63.5 90.5q0 25 -21.5 39t-54.5 14q-114 0 -257 -92.5t-244 -207.5q77 9 155 9q107 0 196.5 -10t129 -21t39.5 -17q0 -1 -4 -1q-2 0 -24 2.5t-67 5.5t-102 3
q-197 0 -373 -34q-18 -20 -44 -72q168 31 321 31q52 0 98 -5.5t67.5 -11t21.5 -8.5h-9q-8 1 -28.5 2.5t-41.5 1.5q-99 0 -228 -23t-232 -58q-12 -46 -12 -65q0 -62 27.5 -85t82.5 -23q52 0 110.5 17t111.5 44t104.5 59.5t93 65t73.5 59.5t51 44l18 17h1q0 -13 -60 -69.5
t-144.5 -121.5t-190.5 -117t-183 -52q-90 0 -134.5 44.5t-44.5 116.5q0 22 2 31l-7 -2q-7 -2 -14 -2t-12 10.5t-5 21.5q0 24 15.5 35.5t44.5 18.5q13 37 32 69q-9 0 -42 -14q2 -5 21 -14q-22 -10 -56 -10q-20 0 -34 15t-14 30q0 7 7 13.5t21.5 12.5t27.5 11t34.5 10.5
t32 7.5t30.5 7l21 4q93 120 284.5 227.5t321.5 107.5q53 0 87.5 -22.5t34.5 -58.5q0 -65 -64.5 -127.5t-125.5 -62.5z" />
    <glyph glyph-name="trademark" unicode="&#x2122;" horiz-adv-x="843" 
d="M499 579q-52 -57 -98.5 -99.5t-72.5 -60t-34 -17.5l-1 1q60 52 120.5 121t92.5 108t43 39q33 0 33 -15q0 -2 -8.5 -23.5t-24 -55t-29.5 -57.5q38 29 96.5 86.5t58.5 70.5q0 9 21 2q26 -8 26 -28q0 -4 -35 -68t-79.5 -129.5t-64.5 -65.5q-2 0 -2 3l41 86l66 136v-1
q-21 -22 -73 -77.5t-81 -84.5t-45 -41q-6 -5 -16.5 6t-10.5 19q0 1 14.5 25.5t34 60.5t28.5 59zM611 718q-70 0 -129.5 -8.5t-95.5 -21t-61.5 -26.5t-35.5 -23.5t-10 -13.5q0 -5 29 -5q-3 -4 -16.5 -8t-26.5 -3q-15 1 -27 10t-12 26q0 45 91.5 77.5t182.5 32.5
q93 0 169.5 -15t106.5 -30l30 -15q-2 0 -23.5 5t-32 7t-33.5 5t-49 4.5t-57 1.5zM217 359q0 47 87 181.5t116 134.5q13 0 25.5 -8t12.5 -15q-6 3 -64 -70.5t-115 -149t-61 -75.5q-1 0 -1 2z" />
    <glyph glyph-name="j.alt" horiz-adv-x="217" 
d="M-218 -281q63 144 195.5 358.5t243.5 311.5q8 6 15 6q18 0 40.5 -23t22.5 -42q0 -3 -4 -1q-1 1 -2 1.5t-2.5 1t-3.5 0.5q-11 1 -35 -23q-110 -117 -205.5 -268.5t-217.5 -376.5q56 77 168.5 190t136.5 120l4 -6q-96 -77 -211 -231.5t-126 -199.5q-1 -3 -11 -3
q-26 -3 -40.5 24t-11.5 45q4 33 44 116zM352 551q27 4 58 -32q4 -5 7.5 -11t4 -9.5t-0.5 -4.5h-3q-2 1 -4 1.5t-6 0t-8 -2.5q-12 -5 -39 -28t-37 -37q-10 -12 -22.5 -3t-13.5 24q-1 22 21.5 59t42.5 43z" />
    <glyph glyph-name="k.alt" horiz-adv-x="440" 
d="M156 180q62 20 141 85.5t100 109.5q-54 -13 -129.5 -66t-124.5 -115l-45 -79l-12 -21t-13.5 -23.5t-12 -22.5t-9.5 -22t-4 -18t3.5 -14t13.5 -6q-15 -6 -34 5q-5 3 -16.5 16t-17.5 24q-10 26 30 106q43 89 92 167q76 125 182 266q78 104 126 143q22 18 39 18q43 0 73 -36
q11 -12 7 -13q-1 -1 -4 1q-18 9 -47.5 -15t-77.5 -81q-109 -130 -246 -348q52 71 137 124t127 53q15 0 31.5 -23t16.5 -40q0 -38 -75.5 -89t-163.5 -82q-5 -42 8 -96.5t27 -52.5q40 6 103.5 63.5t156.5 157.5q1 2 4 -3v-6q-44 -52 -75 -86t-74 -78t-76 -67t-54 -23
q-39 0 -74.5 59.5t-32.5 127.5z" />
    <glyph glyph-name="o.alt" horiz-adv-x="390" 
d="M431 291q0 -58 -58.5 -130t-145 -122t-158.5 -50q-34 0 -59 25.5t-25 55.5q0 77 65 154.5t156.5 124t171.5 46.5q45 0 64 -16q5 -4 -2 -4q-20 4 -25 4q-75 0 -156 -70q61 42 107 42q65 0 65 -60zM353 291q0 15 -4.5 20.5t-18.5 5.5q-30 0 -86 -30t-117 -102
q-29 -33 -51 -73t-22 -65q0 -27 29 -27q39 0 104.5 51.5t115.5 117t50 102.5z" />
    <glyph glyph-name="s.alt" horiz-adv-x="327" 
d="M125 173q-28 -19 -59.5 -49.5t-50 -54t-14.5 -26.5q21 2 80 28t107 59t34 49q-10 11 -59 34t-56 38q-13 31 23 68t92.5 60t100.5 20q19 -1 30 -25t9 -47q-2 -12 -37 -42.5t-53 -30.5q-1 1 -2 4q2 0 18.5 18t33.5 39.5t18 29.5q-34 3 -111 -40q-71 -40 -69 -62q1 -5 6 -8
q4 -3 43 -20.5t62 -39t17 -47.5q-10 -50 -119.5 -101t-162.5 -44q-12 2 -27.5 22.5t-15.5 31.5q0 22 51 67t103 70q13 6 13 4q0 -1 -5 -5z" />
    <glyph glyph-name="t.alt" horiz-adv-x="190" 
d="M407 569q128 6 270 -1.5t244 -28.5l7 -3h-7q-310 27 -549 -9q-90 -104 -165.5 -228t-155.5 -287q-30 -63 -30 -100q0 -23 22 -26q-15 -5 -24 -5q-23 0 -37.5 18t-14.5 50q0 52 75.5 211t210.5 345q-92 -22 -121 -58q-11 -15 -1 -23q-15 0 -33 14.5t-20 36.5
q-3 31 59.5 53t157.5 33l29 38q108 136 146 136q21 0 40.5 -10t29.5 -20.5t10 -15.5q0 -2 -1 -2l-5 2q-5 2 -8 2q-34 0 -129 -122z" />
    <glyph glyph-name="v.alt" horiz-adv-x="291" 
d="M536 448q-61 -26 -157 -115t-167 -170.5t-108 -133.5q-29 -39 -36 -39q-20 -1 -39.5 22t-19.5 33q-2 48 42.5 154t95.5 173q11 9 27.5 5t27.5 -14q29 -26 30 -43q0 -2 -5 0q-1 0 -2 0.5t-2 0.5q-3 0 -4.5 0.5t-4.5 -1.5t-5 -3t-4.5 -4.5t-4 -5.5t-4.5 -5t-4 -5
q-32 -46 -64 -120t-43 -113q84 112 226 242t225 142z" />
    <glyph glyph-name="w.alt" horiz-adv-x="474" 
d="M333 343q12 9 28.5 6t27.5 -14q29 -26 30 -43q0 -2 -9 1q-13 3 -31 -24q-17 -24 -33.5 -58t-26 -56.5t-21 -54t-11.5 -32.5q85 114 211.5 235.5t218.5 150.5q-89 -57 -220.5 -198.5t-192.5 -226.5q-29 -39 -36 -39q-20 -1 -39.5 22t-19.5 33q-1 36 21 100t57 127
q-67 -72 -188 -243q-29 -39 -36 -39q-20 -1 -39.5 22t-19.5 33q-2 48 42.5 154t95.5 173q11 9 27.5 5t27.5 -14q29 -26 30 -43q0 -2 -9 1q-13 3 -31 -24q-31 -45 -63.5 -120t-43.5 -112q44 61 115.5 140.5t137.5 137.5z" />
    <glyph glyph-name="x.alt" horiz-adv-x="387" 
d="M247 385q-27 -39 -34 -118q188 116 344 173q7 4 8 -1q1 -2 -4 -4q-168 -83 -348 -223q3 -67 16 -110.5t25 -46.5q8 -2 22 4t33 21t37 30t42 38.5t39 38.5t38 38.5t29 30.5q2 1 4 1t3.5 -2t0.5 -3q-14 -17 -44.5 -53t-46.5 -55t-42.5 -48t-43 -44.5t-36.5 -32t-35.5 -22.5
t-27.5 -4q-27 5 -50 43.5t-34 117.5q-55 -46 -91 -86q-33 -36 -29 -57q2 -12 21 -10q-14 -8 -30 -8q-23 0 -43 13.5t-20 26.5q0 55 186 184q-1 36 3.5 76t11.5 55q7 17 19.5 27t20.5 13t27 8q7 2 20.5 2t17.5 -3q1 -1 0 -1.5t-4 -3t-5 -5.5z" />
    <glyph glyph-name="z.alt" horiz-adv-x="402" 
d="M205 347q28 -19 74 -19q3 0 42 3q32 3 71.5 22.5t45.5 29.5q3 6 18 -9.5t26 -37.5t5 -31q-56 -7 -206.5 -95t-198.5 -140q37 20 104 20q62 0 115 -21.5t76 -67.5q3 -8 -1 -8q-1 0 -3 2q-38 64 -170 64q-45 0 -89.5 -17t-72.5 -34.5t-32 -17.5q-12 0 -27.5 21t-11.5 33
q14 43 132.5 132t205.5 127q-69 -5 -112 34q-88 -101 -156 -149q-4 -3 -5.5 -0.5t2.5 6.5q76 66 148 156q-6 14 -6 26q0 27 10.5 50t21 34t16.5 11q12 0 27 -14t15 -29q0 -5 -13.5 -22.5t-31.5 -37.5t-19 -21z" />
    <glyph glyph-name="g.swsh" horiz-adv-x="440" 
d="M-387 -412q29 89 187 186.5t347 147.5q5 7 49 73t75 116.5t63 109.5l-2 -1q-3 -2 -7.5 -5.5t-10 -8t-12 -9.5t-11.5 -10q-41 -40 -138 -116t-123 -76q-14 0 -33.5 26t-19.5 44q0 55 63.5 132.5t162.5 137.5t185 60q34 0 61.5 -15.5t27.5 -47.5q0 -9 -7 -28.5t-14 -19.5
l-1 1l1 1q10 22 10 36q0 21 -12 32t-32 11q-83 0 -201 -100q-60 -51 -108.5 -120t-48.5 -88q0 -3 2 -3q13 1 102.5 64t117.5 87q90 78 99 78q14 0 33 -22t19 -34v-2q-2 2 -3 2q-7 0 -22 -30q-23 -43 -52 -89.5t-61.5 -95.5t-45.5 -71q189 30 327 30q35 0 54 -1
q194 -6 378.5 -41t301.5 -89.5t117 -110.5q0 -50 -96 -92q45 29 45 62q0 55 -114.5 111.5t-293 94t-356.5 41.5q-8 0 -23.5 0.5t-22.5 0.5q-174 0 -337 -36q-53 -71 -111 -136.5t-132.5 -136.5t-153 -114t-144.5 -43q-35 0 -60.5 17t-25.5 53q0 17 7 37zM-309 -462
q35 2 76 21t84.5 54t79 66.5t78.5 79t63 70.5t52 61q-162 -48 -305 -142t-167 -170q-5 -17 6 -29t33 -11z" />
    <glyph glyph-name="h.swsh" horiz-adv-x="418" 
d="M328 113q-94 -142 -94 -235q0 -75 57.5 -112.5t140.5 -37.5q126 0 274.5 57t295.5 158q3 2 5 2q1 0 1 -1l-3 -4q-110 -92 -280 -165t-300 -73q-104 0 -177.5 51t-73.5 153q0 90 62 207q28 52 73.5 115t73.5 88q-43 -18 -119 -73.5t-132 -114.5q-59 -60 -77 -103
q-15 -33 15 -37q-13 -6 -33 5q-6 3 -18 16t-17 24q-11 21 28 106q69 154 283 442q68 90 123 134q21 18 38 18q42 0 73 -36q10 -12 6 -13q-1 -1 -4 1q-28 14 -89 -54q-83 -95 -181 -234t-154 -251l32 31q75 71 164 134t123 72q8 2 11 2q11 0 25 -14t19 -27.5t0 -20.5
q-3 -2 -32 -33q-72 -78 -139 -177z" />
    <glyph glyph-name="j.swsh" horiz-adv-x="196" 
d="M149 176q-53 -87 -99 -160t-47 -75q189 30 327 30q35 0 54 -1q194 -6 378.5 -41t301.5 -89.5t117 -110.5q0 -50 -96 -92q45 29 45 62q0 55 -114.5 111.5t-293 94t-356.5 41.5q-8 0 -23.5 0.5t-22.5 0.5q-174 0 -337 -36q-53 -71 -111 -136.5t-132.5 -136.5t-153 -114
t-144.5 -43q-35 0 -60.5 17t-25.5 53q0 17 7 37q29 89 187 186.5t347 147.5q60 88 112 176q17 28 37 62.5t32 55.5t27 46t24 39.5t19.5 30.5t18 24.5t15 16t14.5 10.5t13 3q17 0 39.5 -24t22.5 -42q0 -2 -1 -2l-2 1q-1 1 -3 2t-5 1q-15 0 -37 -30t-74 -116zM-559 -462
q35 2 76 21t84.5 54t79 66.5t78.5 79t63 70.5t52 61q-162 -48 -305 -142t-167 -170q-5 -17 6 -29t33 -11zM310 551q25 3 58 -32q4 -5 7.5 -11t4 -9.5t-0.5 -4.5h-3q-2 1 -4.5 1.5t-6.5 0t-8 -2.5q-12 -5 -38.5 -28.5t-36.5 -36.5q-10 -12 -22.5 -3t-13.5 24q-1 22 21.5 59
t42.5 43z" />
    <glyph glyph-name="k.swsh" horiz-adv-x="381" 
d="M149 236q63 66 139 121.5t110 55.5q16 0 32.5 -23t16.5 -40q0 -36 -53 -84t-126.5 -81t-127.5 -28q87 -146 260 -273t376.5 -201.5t384.5 -77.5q196 -3 366 71t268 226l9 9q2 2 -2 -5q-1 -2 -2 -5q-86 -154 -267 -243t-371 -89q-289 0 -600 157.5t-484 382.5
q-3 -6 -9 -15.5t-10 -17t-9.5 -17t-9 -17t-7 -16t-4 -14.5t0.5 -11t5.5 -8t11.5 -4q-15 -6 -33 5q-6 2 -17.5 15t-16.5 25q-12 25 29 106l27 54q-10 24 -5 42q9 18 46 28q101 169 205 308q76 101 128 143q23 18 38 18q44 0 75 -37q9 -11 6 -12q-1 -1 -4 1q-37 18 -125 -93
l-59 -76q-57 -73 -192 -280zM373 369q-43 -10 -132.5 -84t-111.5 -100l8 -16q61 8 135.5 77.5t100.5 122.5z" />
    <glyph glyph-name="m.swsh" horiz-adv-x="603" 
d="M677 314q-80 -65 -142.5 -179t-62.5 -213q0 -102 72.5 -156.5t186.5 -54.5q350 0 766 263q5 4 7 3t-3 -5q-139 -105 -358.5 -196t-409.5 -91q-62 0 -118.5 15t-104 46t-75.5 84.5t-28 122.5q0 89 46 187.5t124 173.5q-51 -35 -99.5 -78.5t-81.5 -79t-60.5 -67t-44.5 -49
t-25 -17.5q-11 0 -28.5 19t-17.5 33q0 30 46.5 110.5t93.5 124.5q-136 -83 -268 -229q-24 -27 -35 -41q-42 -49 -18 -60q-21 -5 -39.5 12t-24.5 40q-5 19 28 80q55 103 116 182q51 65 80 88q5 5 13 5q19 0 41 -22.5t22 -41.5q0 -3 -4 -1q-1 1 -2 1.5t-2.5 1t-3.5 0.5
q-11 1 -31.5 -21.5t-49.5 -61.5q-79 -105 -106 -153q47 63 169.5 168.5t154.5 112.5q2 1 6 1q15 0 33 -26t10 -34q-40 -42 -89 -121t-49 -104q73 92 182.5 194t139.5 102q16 0 35.5 -30t8.5 -38z" />
    <glyph glyph-name="n.swsh" horiz-adv-x="403" 
d="M427 382q15 -1 32 -23t15 -36q0 -6 -3 -9q-80 -65 -143 -179t-63 -213q0 -101 72.5 -153t186.5 -55q153 -5 360 64.5t413 194.5q7 5 9 5q3 0 -6 -8q-146 -104 -370.5 -193t-403.5 -92q-62 -1 -118.5 14.5t-103.5 46t-75 84t-28 123.5q0 74 31.5 155.5t87.5 151.5
q30 38 55 58l-26 -13q-61 -33 -140.5 -97t-130.5 -120q-5 -6 -11 -13t-13.5 -15.5t-11.5 -13.5q-20 -24 -25.5 -42.5t7.5 -23.5q-21 -5 -37.5 12t-22.5 41q-3 21 28 80q55 104 131 201q43 57 71 72q8 5 21 -3.5t21 -17.5q26 -29 26 -49q-1 -1 -2 -0.5l-4 2t-4 1.5
q-4 2 -10 -0.5t-13 -8.5t-14 -12.5t-15 -15.5t-13 -15t-11 -13.5t-7 -8.5q-84 -108 -108 -156q10 16 50 56q99 97 255 206q40 29 59 31h2z" />
    <glyph glyph-name="q.swsh" horiz-adv-x="414" 
d="M620 -43q45 7 88 7q83 0 129.5 -26t46.5 -61q0 -36 -45 -60q24 14 24 37q0 32 -44.5 58.5t-121.5 26.5q-26 0 -64 -5q-146 -20 -319.5 -118.5t-273.5 -226.5q-19 -25 -29 -41.5t-11.5 -23.5t-2 -13.5t-0.5 -11.5q-1 -2 -15 -4q-24 -3 -34 20.5t-7 43.5q6 33 45 116
q46 105 125 248.5t162 248.5q-66 -59 -145 -119t-103 -60q-14 0 -33.5 26t-19.5 44q0 41 39 98.5t97.5 109.5t134.5 89t142 37q35 0 62.5 -15t27.5 -48q0 -23 -20 -48q-1 -1 -2 0t0 2q10 25 10 36q0 47 -49 44q-85 -4 -197 -101q-43 -38 -85.5 -92t-63.5 -91.5t-15 -40.5
q7 -5 100.5 62.5t140.5 108.5q1 1 28 26.5t49 44t34 24.5q13 7 33.5 -20t16.5 -38q-2 3 -11 -4.5t-30 -30.5t-54 -62q-56 -67 -178 -261.5t-158 -267.5q104 119 280.5 215t315.5 117z" />
    <glyph glyph-name="s.swsh" horiz-adv-x="298" 
d="M195 -41q-53 12 -120 12q-218 0 -522 -102.5t-456 -217.5q84 90 285.5 178t406.5 138.5t330 50.5q24 0 34 -1q7 5 -0.5 19.5t-22.5 35.5t-31 44.5t-28 53.5t-12 56q0 17 4 29q17 59 95.5 107.5t148.5 50.5q19 1 30.5 -24t9.5 -50q-1 -12 -36 -44t-54 -33l-2 4q4 0 36 40
t33 53q-36 -8 -91 -38t-98 -75t-32 -80q11 -36 38 -66t52.5 -45t46 -29.5t21.5 -24.5q1 -18 -23.5 -32t-42.5 -10z" />
    <glyph glyph-name="v.swsh" horiz-adv-x="291" 
d="M1255 815q-13 53 -75 53q-78 0 -223.5 -83.5t-302 -208t-310.5 -273t-253 -274.5q-4 -5 -9 -11.5t-8.5 -10.5t-7 -8.5t-6.5 -6.5t-5 -2q-20 -1 -39.5 22t-19.5 33q-1 69 100 232q51 82 88 108q13 7 32.5 -11t30.5 -36q9 -13 9 -21q0 -3 -9 2q-15 6 -47.5 -35t-51.5 -72
q-52 -87 -80 -153q133 159 349.5 354t437 343t323.5 148q78 0 77 -89z" />
    <glyph glyph-name="w.swsh" 
d="M275 59q236 280 458 471q159 138 320 237.5t249 99.5q79 0 78 -90q-16 55 -80 55q-86 0 -239 -92t-313 -235q-296 -263 -449 -476q-31 -39 -36 -39q-21 -1 -40 22t-19 33q-1 32 19 93t54 117q-14 -17 -41.5 -47t-54.5 -64t-63 -85q-10 -15 -23 -36.5t-18.5 -29t-6.5 -3.5
q-22 0 -42.5 17t-22.5 26q-1 39 28 109.5t73 137.5q53 83 88 109q4 4 11 2q20 -5 38 -25q25 -27 25 -42l-1.5 -1.5t-3.5 1.5l-3 2q-16 4 -39 -21q-33 -35 -84 -123.5t-57 -127.5q29 50 131.5 162t146.5 143q20 12 49 -21q26 -26 26 -43q-2 -2 -4.5 -1.5t-5.5 2.5
q-10 3 -34 -19q-4 -5 -30 -42q-25 -41 -84 -176z" />
    <glyph glyph-name="x.swsh" horiz-adv-x="346" 
d="M1076 -441q-199 -9 -417.5 87.5t-360.5 252.5q-102 111 -159 250q-39 -34 -76.5 -72.5t-57 -62t-19.5 -27.5q0 -14 -30 4q-24 14 -25 24q-3 23 38.5 66.5t108.5 89.5l41 28q-18 54 -15 103q3 35 65 59q22 9 30 3q1 -1 0 -2l-3.5 -3.5t-4.5 -5.5q-12 -21 -12 -50
q0 -22 7 -57q73 49 167 101t150 74q5 2 6 2q2 -1 -4 -7q-130 -76 -305 -217q10 -54 57.5 -140.5t93.5 -136.5q128 -137 317.5 -231t368.5 -97q197 -3 367 70.5t267 226.5q6 10 8 8q1 -1 -3 -9q-78 -147 -247.5 -235t-352.5 -96z" />
    <glyph glyph-name="y.swsh" horiz-adv-x="399" 
d="M365 175q-14 -26 -145 -234q189 30 327 30q35 0 54 -1q194 -6 378.5 -41t301.5 -89.5t117 -110.5q0 -50 -96 -92q45 29 45 62q0 55 -114.5 111.5t-293 94t-356.5 41.5q-8 0 -23.5 0.5t-22.5 0.5q-174 0 -337 -36q-53 -71 -111 -136.5t-132.5 -136.5t-153 -114t-144.5 -43
q-35 0 -60.5 17t-25.5 53q0 17 7 37q29 89 187 186.5t347 147.5q4 6 35 53.5t55 85.5t60 97t64 108q-59 -59 -89.5 -89t-83.5 -79.5t-87 -74t-53 -28.5h-8q-12 0 -29 17t-17 34q0 31 32 96t76 126q50 70 100 110q6 6 14 6q18 0 40 -23t22 -42q0 -3 -3 -1q-1 1 -2 1.5t-2.5 1
t-3.5 0.5q-21 3 -88 -86q-39 -51 -69.5 -106.5t-30.5 -76.5q33 13 93 62.5t105 93.5q8 8 140 149q27 27 40 29q17 2 40.5 -22.5t23.5 -43.5q0 -3 -3 -1q-1 1 -2 1.5t-2.5 1t-3.5 0.5q-14 2 -34 -23q-28 -34 -78 -124zM-342 -462q35 2 76 21t84.5 54t79 66.5t78.5 79t63 70.5
t52 61q-162 -48 -305 -142t-167 -170q-5 -17 6 -29t33 -11z" />
    <glyph glyph-name="a.end" horiz-adv-x="1261" 
d="M367 -45q-128 -10 -140 71q-5 39 15 85t46 80q-35 -36 -136.5 -116t-128.5 -80q-3 0 -9 3q-14 7 -29 29.5t-15 37.5q0 40 39 97.5t97 108.5t133.5 87.5t141.5 36.5q34 0 61 -15.5t27 -47.5q0 -20 -19 -47q-2 0 -3 1q11 20 11 36q0 46 -49 43q-83 -4 -196 -100
q-43 -37 -85 -90.5t-63 -90t-16 -39.5q2 -2 6 0q23 8 102.5 66.5t125.5 97.5q5 4 29.5 26.5t46.5 41.5t33 25q14 7 34 -19.5t16 -37.5q-11 -1 -48.5 -48t-67.5 -103.5t-21 -77.5q11 -27 66 -27q52 0 125 20t120 39q117 49 244 122q150 84 227 140q4 3 47 32t82 56l40 27
l-2 -3l-6 -4l-3 -3q-55 -47 -151 -117q-206 -147 -383 -237q-79 -40 -172 -70t-172 -36z" />
    <glyph glyph-name="b.end" horiz-adv-x="1304" 
d="M150 1q-24 0 -46 10t-16 30q13 45 88.5 109t183.5 122q37 56 40 78q-11 1 -65 -30t-131 -94.5t-124 -132.5q-49 -71 -45 -91q3 -12 20 -14q-14 -6 -32 5q-7 2 -19 15t-17 25q-8 22 28 104q75 167 283 444q65 88 121 134q26 18 38 18q43 0 74 -36q10 -12 6 -13q-1 -1 -4 1
q-34 18 -133 -106q-183 -229 -274 -402q64 78 167.5 152t141.5 61q10 -4 28.5 -25.5t18.5 -31.5q0 -1 -0.5 -2.5t-0.5 -2.5q20 8 60 22q140 48 310.5 77.5t325.5 29.5q53 0 115 -5q-183 -5 -393 -40.5t-359 -89.5q-28 -10 -66 -26q-31 -89 -135 -192t-189 -103zM322 216
q-157 -96 -210 -182q42 2 99.5 55.5t110.5 126.5z" />
    <glyph glyph-name="c.end" horiz-adv-x="987" 
d="M185 232q-100 -106 -100 -157q0 -23 19.5 -33.5t55.5 -5.5q96 13 222.5 73.5t251 147t223.5 165t184 154.5q-106 -114 -253.5 -234t-323 -221.5t-304.5 -123.5q-21 -4 -47 -4q-49 0 -79 21t-30 62q0 20 7 41q13 43 50.5 92.5t85.5 90.5t104.5 68t102.5 27
q16 0 33.5 -19.5t17.5 -30.5q0 -39 -83 -100q-2 -3 -3 0q-1 2 0 3q13 14 36.5 56t17.5 47q-77 -3 -188 -119z" />
    <glyph glyph-name="d.end" horiz-adv-x="1271" 
d="M245 40q2 71 66 172l-13 -12l-1 -1q-57 -51 -153 -127.5t-123 -76.5q-14 0 -33 25t-19 43q0 42 59.5 120.5t135.5 128.5q121 80 203 80q31 0 47 -18q61 93 161 215q77 95 117 126q28 18 38 18q44 0 74 -36q10 -12 6 -13q-1 -1 -4 1q-36 19 -173 -158q-15 -18 -21 -26
q-161 -198 -246 -350q-25 -44 -33.5 -79.5t-1.5 -51.5q10 -29 58 -29q78 0 247 75.5t296.5 147t160.5 96.5q4 3 47 32t82 56l40 27l-2 -3l-6 -4l-3 -3q-98 -82 -150 -117q-176 -119 -388 -227t-341 -119q-29 -3 -56.5 3.5t-49 28.5t-21.5 56zM339 259q24 39 66 101
q-18 8 -45 1q-61 -16 -160 -113q-42 -39 -80 -87.5t-56.5 -79.5t-14.5 -34q8 -5 94.5 56t134.5 102z" />
    <glyph glyph-name="e.end" horiz-adv-x="1154" 
d="M141 -3q-21 -4 -47 -4q-49 0 -79 21t-30 62q0 20 7 41q26 82 140 177q59 49 117.5 75t94.5 26q14 0 37.5 -16t23.5 -35q0 -30 -55 -80t-131.5 -90t-130.5 -41q-23 -34 -23 -57t20 -34t56 -6q96 13 222.5 73.5t251 147t223.5 165t184 154.5q-112 -116 -257 -234
t-320 -220.5t-304 -124.5zM372 365q-75 -24 -154.5 -92.5t-110.5 -117.5q39 5 103 49.5t111.5 93t50.5 67.5z" />
    <glyph glyph-name="f.end" horiz-adv-x="1223" 
d="M88 168l8 -17q13 -37 13 -101q0 -32 -4 -56q-16 -81 -53.5 -159t-81 -134.5t-88.5 -101t-78 -67t-47 -23.5q-15 -1 -31 17.5t-17 32.5q-3 44 77 218.5t199 375.5q12 21 22 40q-8 3 -13 7.5t-4 7.5q3 13 49 39q128 204 261 377q49 63 82 91q27 20 38 20q43 2 75 -33
q10 -11 6 -12q-1 -1 -4 1q-7 1 -12.5 1.5t-14.5 -5.5t-16 -11t-17 -15.5t-17 -18.5t-17.5 -21t-17 -21.5t-16 -21t-15.5 -19.5q-75 -96 -183 -262q2 1 6 1q329 212 759 212q236 0 289 -82q-60 61 -263 61q-231 0 -450.5 -65.5t-388.5 -200.5zM-226 -431q3 -1 11 4
q49 37 93.5 80t89.5 100.5t77.5 128.5t44.5 146q3 15 3 35q0 61 -19 86q-80 -128 -170.5 -303t-127.5 -264q-1 -4 -2 -7t-1 -4.5t1 -1.5z" />
    <glyph glyph-name="g.end" horiz-adv-x="1336" 
d="M64 45q25 11 104.5 68.5t118.5 91.5q78 70 94 77q14 6 36.5 -20.5t19.5 -36.5q-1 1 -2.5 1.5t-7 -7t-14.5 -22.5q-3 -5 -10 -20.5t-13 -25.5q251 128 500.5 216.5t423.5 103.5q-160 -27 -425 -128t-519 -233q-54 -102 -159 -251q-122 -172 -231.5 -256t-191.5 -89
q-84 -6 -84 64q0 77 97 180q146 151 454 321q26 42 45 75.5t27 49.5t8 17l-7 -5q-7 -5 -17 -13t-18 -16q-46 -43 -141 -117.5t-122 -74.5q-4 0 -8 3q-15 8 -29.5 30t-14.5 37q0 40 39 97.5t97 108.5t133.5 87.5t141.5 36.5q34 0 61.5 -15.5t27.5 -47.5q0 -22 -19 -47
q-2 0 -3 1q11 25 11 36q0 22 -13.5 33.5t-35.5 9.5q-83 -4 -196 -100q-44 -37 -85.5 -90t-62.5 -90t-15 -40h5zM129 -108q51 72 96 140q-301 -171 -426 -313q-61 -71 -61 -120q0 -15 13 -22.5t39 -1.5q57 15 154 104t185 213z" />
    <glyph glyph-name="h.end" horiz-adv-x="1251" 
d="M244 135q26 49 69 102.5t75 83.5q-50 -22 -124 -77t-132 -116q-59 -60 -77 -103q-15 -33 15 -37q-13 -6 -33 5q-6 3 -18 16t-17 24q-11 21 28 106q38 85 120 208t170 234q69 89 122 134q22 18 38 18q44 0 74 -36q10 -12 6 -13q-1 -1 -4 1q-27 14 -88 -54
q-28 -32 -101 -121q-159 -194 -242 -363q1 1 32 30q75 71 164.5 134t123.5 72q8 2 10 2q11 0 25 -14t19 -27.5t0 -20.5q-3 -2 -32 -33q-86 -96 -128 -159q-56 -83 -41 -115q12 -26 67 -26q52 0 125.5 20t117.5 38q114 47 244 122q144 81 227 140q4 3 46.5 32t82.5 56l39 27
q0 -1 -4.5 -5t-4.5 -5q-81 -66 -152 -117q-207 -147 -384 -237q-78 -40 -170.5 -70t-172.5 -36q-19 -3 -45 0t-49.5 9.5t-38.5 26.5t-13 49q3 40 31 95z" />
    <glyph glyph-name="i.end" horiz-adv-x="1031" 
d="M123 156q-56 -95 -45 -121q11 -27 66 -27q53 0 127 20.5t117 38.5q103 42 245 122q143 80 227 140l168 115q0 -1 -4.5 -5t-5.5 -4q-71 -61 -151 -118q-180 -129 -384 -234q-189 -96 -343 -114q-26 -2 -36 -2q-106 0 -106 81q0 41 29 97q34 65 82 131.5t81 92.5q7 6 15 6
q17 0 39.5 -23t22.5 -42q0 -2 -3 -1q-1 1 -2 1.5t-3 1t-4 0.5q-18 2 -60.5 -52t-71.5 -104zM321 528q27 4 58 -32q4 -5 7.5 -11t4 -9.5t-0.5 -4.5l-2 1q-3 0 -5 0.5t-6 0t-8 -2.5q-12 -5 -39 -28.5t-36 -36.5q-11 -12 -23 -3t-14 24q-1 22 22 59t42 43z" />
    <glyph glyph-name="j.end" horiz-adv-x="1075" 
d="M-552 -423q-9 68 94 175q64 69 182.5 153.5t265.5 166.5q11 21 35 61q107 188 136 225q22 27 39 28q16 2 40 -22.5t24 -43.5q0 -2 -3 -1q-1 1 -2.5 1.5t-3.5 1t-4 0.5q-13 2 -33 -23q-30 -37 -96 -156q253 130 507.5 221t431.5 107q-163 -28 -434.5 -132t-527.5 -238
q-11 -19 -41.5 -71t-47.5 -80.5t-44 -70.5t-52 -76.5t-51 -64.5q-71 -83 -163.5 -153t-165.5 -71q-78 -2 -86 63zM-462 -425q40 12 102 60.5t127 121.5q109 121 196 270q-146 -84 -243.5 -154t-173.5 -154q-29 -33 -47 -71t-14 -58q5 -29 53 -15zM305 551q25 3 58 -32
q4 -5 7.5 -11t4 -9.5t-0.5 -4.5h-2q-3 1 -5.5 1.5t-6.5 0t-8 -2.5q-12 -5 -39 -28.5t-36 -36.5q-10 -12 -22.5 -3t-13.5 24q-1 22 21.5 59t42.5 43z" />
    <glyph glyph-name="k.end" horiz-adv-x="1242" 
d="M170 241q63 67 138.5 122t110.5 55q15 0 32 -23t17 -40q0 -36 -55 -84t-131.5 -81t-130.5 -28q22 -73 76.5 -134.5t125.5 -100t150.5 -59.5t155.5 -21q201 1 369.5 77t262.5 180q-41 -61 -136.5 -125.5t-233.5 -112.5t-268 -48q-83 0 -164.5 17.5t-157 52.5t-137 93.5
t-96.5 133.5l-12 -21t-13.5 -23.5t-12 -22.5t-9.5 -22t-4 -18t3.5 -14t13.5 -6q-15 -6 -34 5q-5 3 -16.5 16t-17.5 24q-10 27 30 106q9 20 31 60q-10 28 -4 42q8 20 44 28q100 166 204 303q68 91 126 143q21 18 39 18q43 0 73 -36q11 -12 7 -13q-1 -1 -4 1q-18 9 -47.5 -15
t-77.5 -81l-58 -73q-65 -82 -189 -275zM381 375q-44 -11 -133.5 -85.5t-104.5 -95.5q4 -18 5 -20q61 8 134 77.5t99 123.5z" />
    <glyph glyph-name="l.end" horiz-adv-x="1032" 
d="M131 158q-59 -108 -43 -141q12 -26 64 -26q50 0 119 19.5t112 37.5q114 46 245 122q143 80 227 140l168 115q0 -1 -4.5 -5t-6.5 -5q-70 -60 -150 -117q-197 -141 -383 -237q-188 -95 -344 -106q-23 -2 -43 0.5t-41.5 10.5t-33.5 27.5t-11 49.5q3 86 162 336
q46 71 178 245q48 62 84 91q23 20 37 20q42 2 74 -33q10 -11 7 -12q-1 -1 -4 1q-15 7 -41.5 -13t-50.5 -48t-52 -63q-3 -4 -5 -6.5t-4 -5.5q-147 -188 -260 -397z" />
    <glyph glyph-name="m.end" horiz-adv-x="1456" 
d="M454 123q20 51 59.5 108t68.5 83q-78 -54 -150.5 -128t-110.5 -118.5t-49 -44.5q-10 0 -28 19t-18 33q0 30 46.5 110.5t93.5 124.5q-139 -84 -268 -229q-24 -27 -35 -41q-42 -50 -18 -60q-21 -5 -39 12t-25 40q-5 17 28 80q45 83 117 182q38 53 81 88q6 5 14 5
q18 0 40 -22.5t22 -41.5q0 -3 -3 -1q-1 1 -2 1.5t-2.5 1t-3.5 0.5q-20 1 -85 -83q-79 -105 -105 -153q47 63 169.5 168.5t153.5 112.5q3 1 7 1q15 0 33 -26t10 -34q-40 -42 -89 -120.5t-49 -104.5q73 93 182.5 194.5t139.5 101.5q16 0 34 -28.5t8 -36.5q-27 -20 -94 -120
q-25 -35 -45 -70q-15 -25 -23 -46t-10 -42t10.5 -34t40.5 -15q97 -7 253 58q114 46 245 122q143 80 227 140q9 6 88 60.5t80 54.5q0 -1 -9 -10q-81 -66 -152 -117q-201 -144 -384 -237q-78 -40 -177.5 -71.5t-163.5 -31.5q-79 0 -110.5 46t-2.5 119z" />
    <glyph glyph-name="n.end" horiz-adv-x="1268" 
d="M273 147q25 50 60.5 99t62.5 72q-60 -27 -149.5 -97.5t-147.5 -132.5q-20 -22 -36 -42q-20 -24 -25 -42.5t6 -23.5q-21 -5 -38 12t-24 42q-5 17 27 80q37 70 96 152q57 81 101 116q6 5 14 5q18 0 40.5 -22.5t22.5 -41.5q0 -3 -4 -1q-1 1 -2 1.5t-2.5 1t-3.5 0.5
q-20 1 -76 -72q-85 -110 -114 -164q15 22 51 56q84 82 187 159.5t129 77.5q17 0 35 -28t8 -37q-21 -18 -103 -135q-11 -16 -21 -32t-22.5 -39t-18 -43t-5.5 -38t12.5 -29t38.5 -12q101 -4 252 59q114 46 245 122q143 80 227 140q9 6 88 60.5t80 54.5q0 -1 -9 -10
q-81 -66 -152 -117q-201 -144 -384 -237q-80 -41 -179.5 -73.5t-162.5 -32.5q-84 0 -114.5 55.5t10.5 136.5z" />
    <glyph glyph-name="o.end" horiz-adv-x="1416" 
d="M443 208q-29 6 -49 17q-37 -89 -145 -164t-183 -71q-33 2 -54.5 25.5t-21.5 53.5q0 59 37 119.5t92.5 105t122.5 73t125 28.5q41 0 61 -17q3 -2 2.5 -2.5t-4.5 -0.5t-12.5 1.5t-12.5 1.5q-83 0 -176 -85.5t-140 -174.5t-18 -101q38 -16 122 66t144 173q-5 8 -9.5 25
t-1.5 24q2 8 19.5 24t26.5 17q15 2 23 -10q2 -4 7 -19.5t13.5 -30.5t20.5 -23q44 -29 121 -29q132 0 325 69t349 149q2 1 49.5 25t89.5 45l42 21q0 -1 -4.5 -4.5t-5.5 -3.5q-67 -42 -166 -96q-172 -95 -363.5 -166.5t-342.5 -71.5q-47 0 -83 7z" />
    <glyph glyph-name="p.end" horiz-adv-x="1334" 
d="M113 25q-19 28 70.5 105t209.5 143q29 46 37 72q-11 0 -56.5 -24.5t-129.5 -88t-162 -146.5q-237 -340 -263 -500q-2 -13 -2.5 -23t4.5 -17t16 -8q-35 -14 -62 10.5t-21 69.5q15 116 128.5 313t244.5 363q47 62 85 92q7 6 15 6q17 0 39 -23t22 -42q0 -1 -6 1q-2 1 -4 1
q-19 2 -80 -76l-56 -78q69 76 177.5 149t143.5 61q10 -4 29 -25t20 -32q23 10 60 22q140 48 310 77.5t325 29.5q52 0 114 -5q-182 -5 -391.5 -40.5t-358.5 -89.5q-29 -10 -65 -26q-12 -39 -47 -89.5t-80.5 -96.5t-99.5 -77.5t-98 -31.5q-41 0 -68 24zM357 219
q-161 -99 -215 -185q43 2 102.5 56.5t112.5 128.5z" />
    <glyph glyph-name="q.end" horiz-adv-x="1243" 
d="M34 -463h-1q-1 -1 -12 -3q-24 -3 -38.5 24t-12.5 46q5 30 44 116q42 94 114.5 220t156.5 232q-65 -58 -144 -117.5t-103 -59.5q-13 0 -32.5 26.5t-19.5 43.5q0 41 39 98.5t97 109t134 88t142 36.5q35 0 62 -15t27 -48q0 -22 -19 -48q-1 -1 -2 0t0 2q10 25 10 36
q0 22 -13.5 34t-36.5 10q-84 -4 -196 -101q-44 -37 -86 -91t-63 -91t-15 -40q7 -5 100.5 61.5t139.5 107.5q1 1 28 26.5t49 44t34 24.5q14 7 34.5 -20t16.5 -38q-2 2 -11 -5.5t-29.5 -30t-54.5 -61.5q-51 -59 -147.5 -211.5t-148.5 -249.5q58 82 151.5 173t196.5 166
q171 123 393 227t414 139q-205 -57 -424 -163t-376 -230q-240 -188 -361 -383q-27 -43 -37 -85z" />
    <glyph glyph-name="r.end" horiz-adv-x="1158" 
d="M322 296q-71 -42 -113.5 -75.5t-91.5 -87.5q-42 -47 -72.5 -96.5t-15.5 -56.5q-20 -5 -37 12t-22 40q-4 17 14 51q31 70 110 183q54 78 101 116q7 5 14 5q18 0 40 -22.5t22 -41.5q0 -2 -5 0q-2 2 -5 2q-22 1 -78 -72q-74 -101 -84 -120q63 84 237 209q62 44 89 47
q10 1 31 -21.5t15 -28.5q-4 -4 -21.5 -21t-32 -32t-34.5 -38.5t-33 -45.5q-37 -60 -17 -71q9 -6 30 4q16 7 114 55t182 84t211.5 82.5t276 80.5t300.5 49q-98 -15 -199 -39t-183.5 -48.5t-173 -58.5t-150.5 -58.5t-134.5 -60t-107.5 -52t-86 -44.5t-54 -28
q-30 -15 -52.5 -19t-35 2.5t-20 19t-6.5 29t5 33.5q7 25 30.5 68t41.5 66z" />
    <glyph glyph-name="s.end" horiz-adv-x="1351" 
d="M342 355q-35 3 -119.5 -50.5t-94.5 -87.5q-1 -5 0.5 -10t5.5 -10t7.5 -8t9.5 -8t7 -6q41 22 76 39t78 36t61.5 27t77 31.5t73.5 29.5q392 147 742 147q8 0 24 -0.5t24 -0.5q-170 -8 -376 -51t-404 -114q-223 -80 -362 -162q34 -29 30 -55q-8 -45 -83.5 -85.5
t-130.5 -40.5q-29 0 -38 40q2 28 76 81t112 68q-1 1 -21 18.5t-32 36.5t-8 39q12 55 95.5 103t152.5 48q19 0 30 -25t8 -50q-1 -12 -36.5 -43t-54.5 -31q-1 1 -2 4q2 0 19 18t34.5 40.5t18.5 31.5zM-22 27q35 11 92.5 48t68.5 63q-75 -44 -161 -111zM-24 27h1h-1z" />
    <glyph glyph-name="t.end" horiz-adv-x="1174" 
d="M262 384q-147 -221 -168 -312q-16 -71 71 -71q88 0 236 60q103 42 245 122q143 80 227 140l168 115q0 -1 -4.5 -5t-5.5 -4q-71 -61 -151 -118q-180 -129 -384 -234q-89 -46 -191 -81.5t-167 -35.5q-23 0 -42 3.5t-40 14t-31 33.5t-5 58q6 47 34.5 112.5t106.5 190.5
q37 58 90 133q-42 -11 -75.5 -25t-49 -25t-14.5 -17q1 -11 -15 -3q-26 16 -28 47q-4 40 150 71q46 9 76 14q94 122 127 148q25 20 37 20q43 2 75 -33q10 -11 6 -12q-1 -1 -4 1q-11 5 -26 -2.5t-33.5 -27.5t-32 -36.5t-33.5 -42.5q144 15 290 15q117 0 247 -12.5t218 -37.5
l7 -4q-1 -2 -11 0q-157 28 -344 28q-231 0 -448 -40q-86 -114 -108 -147z" />
    <glyph glyph-name="u.end" horiz-adv-x="1275" 
d="M267 147q21 39 73 114q-9 -10 -34.5 -35.5t-38 -38.5t-37 -37.5t-39.5 -38.5t-36 -33.5t-35.5 -31.5t-31 -24t-29 -18.5t-22.5 -8.5h-8q-13 0 -30 17t-17 34q0 31 33.5 95.5t78.5 127.5q49 71 97 109q6 6 14 6q18 0 40 -23t22 -42q0 -2 -3 -1q-1 1 -2 1.5t-3 1t-4 0.5
q-19 3 -86 -86q-39 -51 -70 -106.5t-31 -76.5q32 13 92 62.5t105 93.5q6 6 75.5 77t102.5 97q7 5 15 5q17 0 39 -22.5t22 -41.5q0 -2 -2 -1q-1 1 -2 1.5t-3 1t-4 0.5q-12 0 -33 -23q-24 -24 -72 -88q-37 -48 -68 -105q-17 -31 -22.5 -56t7 -44t46.5 -20q101 -4 252 59
q114 46 245 122q143 80 227 140q9 6 88 60.5t80 54.5q0 -1 -9 -10q-81 -66 -152 -117q-201 -144 -384 -237q-80 -41 -179.5 -73.5t-162.5 -32.5q-85 0 -115.5 56t11.5 136z" />
    <glyph glyph-name="v.end" horiz-adv-x="1336" 
d="M1331 805q-145 -39 -309 -112t-329.5 -171t-324.5 -226.5t-277 -266.5q-6 -7 -14.5 -17.5t-13.5 -16t-8 -5.5q-20 -1 -39.5 22t-19.5 33q-1 70 109 232q59 86 91 108q15 9 44 -23q27 -30 27 -45q0 -2 -8 2q-13 4 -33 -18q-33 -37 -68 -89q-64 -92 -90 -153
q154 165 353 314.5t442 269t468 162.5z" />
    <glyph glyph-name="w.end" horiz-adv-x="1510" 
d="M420 282q-21 7 -75 -70q-41 -61 -75 -136q81 94 223.5 217t302 237t320.5 192.5t260 78.5q91 0 123 -68q-13 23 -47 36t-72 13q-119 0 -331 -122t-421 -295.5t-349 -335.5q-32 -39 -36 -39q-21 -1 -40 22t-19 33q-3 56 83 195q-58 -54 -172 -187q-4 -4 -11 -12.5
t-10.5 -12.5t-9.5 -10.5t-9.5 -9.5t-7.5 -6.5t-7 -5t-6 -1.5q-13 0 -29.5 22t-17.5 31q0 38 34.5 105t84.5 135q63 85 92 102q4 3 11 1q17 -5 34 -27q24 -28 24 -44q-1 -2 -8 3q-8 2 -18 -2.5t-20.5 -15t-18 -20t-17 -22.5t-12.5 -16q-32 -43 -70.5 -104t-39.5 -80
q52 61 154.5 159.5t142.5 126.5q18 12 47 -25q23 -32 23 -45q-1 -2 -2 -1.5t-4 2.5t-4 2z" />
    <glyph glyph-name="x.end" horiz-adv-x="1336" 
d="M139 149l-39 -33q-54 -46 -87 -89q-10 -13 -14.5 -23t-2.5 -16t10 -7q-9 -8 -33 -3t-36 23q-5 7 -5 14q0 22 35.5 61.5t93.5 81.5l58 41q-17 51 -17 99q0 20 3 35q9 37 67 59q24 9 30 3l-2 -1q-1 -2 -4 -5t-5 -6q-11 -20 -11 -51q0 -67 6 -86q639 416 1139 457
q-296 -51 -594 -184t-531 -320q15 -71 69 -168q81 -146 194 -146q30 0 42 2q3 1 5 0l-4 -2q-27 -10 -59 -10q-61 0 -120.5 36.5t-107.5 97.5q-50 64 -80 140z" />
    <glyph glyph-name="y.end" horiz-adv-x="1208" 
d="M3 -463q-11 -3 -14 -3q-26 -3 -41 24t-12 45q3 23 43 116q53 118 143.5 276t184.5 265q-9 -9 -44.5 -45.5t-50 -51t-46.5 -46t-49.5 -47t-41 -35t-40.5 -29t-29 -11.5h-8q-13 0 -30 17t-17 34q0 31 33.5 95.5t78.5 127.5q49 71 97 109q6 6 14 6q18 0 40 -23t22 -42
q0 -3 -3 -1q-1 1 -2 1.5t-2.5 1t-3.5 0.5q-20 2 -88 -86q-39 -54 -69.5 -108t-30.5 -75q32 13 90.5 61.5t106.5 94.5q15 15 55 56.5t73 73t58 51.5q6 6 15 6q17 0 39.5 -23t22.5 -42q0 -3 -4 -1q-1 1 -2 1.5t-2.5 1t-3.5 0.5q-11 2 -34 -23q-28 -30 -128 -152
q-87 -108 -285 -474q58 83 154 177.5t202 171.5q169 123 391.5 227t415.5 139q-205 -57 -424.5 -163t-375.5 -230q-104 -82 -196 -179t-149 -182q-18 -26 -35 -60t-18 -47z" />
    <glyph glyph-name="z.end" horiz-adv-x="1191" 
d="M56 70q86 33 299 33q51 0 76 -1q168 -6 337 -53.5t281.5 -123.5t112.5 -155q-15 75 -132 143t-276.5 108t-315.5 47q-15 1 -52 1q-245 0 -355 -61q-7 -4 -14.5 -8.5t-11.5 -7t-6 -2.5h-1q-11 0 -34.5 28t-17.5 39q31 56 166.5 145.5t215.5 114.5q-44 -12 -98 -12
q-69 0 -90 16q-17 15 -2 38.5t41 29.5q-10 -24 27 -43t84 -16q41 3 83 22t47 31q4 6 19 -9.5t26 -37.5t6 -31q-58 -7 -213 -95t-202 -140z" />
    <glyph glyph-name="t.alt_t.alt" horiz-adv-x="380" 
d="M605 590l-14 -17q280 -2 425 -57q-2 0 -34.5 5t-73.5 10t-78 7q-162 8 -266 1q-109 -143 -174 -250q-8 -13 -37.5 -60.5t-45 -74.5t-38.5 -69.5t-38.5 -80t-25.5 -72.5q-11 -46 20 -47q-33 -14 -54 11t-15 62q6 41 30 108q21 54 92 185q79 142 179 279l-95 -12
q-92 -117 -159 -229q-6 -9 -37.5 -60t-46 -75.5t-38.5 -68.5t-39 -81t-24 -72q-7 -19 -2 -32.5t21 -14.5q-33 -14 -53.5 11t-15.5 62q3 25 31 108q19 55 91 185q69 126 153 243q-40 -11 -68 -23t-40 -20.5t-11 -14.5q1 -11 -18 -2q-29 15 -32 46q-4 50 215 77l33 42
q64 83 109 116q23 20 38 20q42 0 73 -36q10 -11 7 -12q-1 -1 -4 1q-37 18 -128 -98l-17 -23q50 5 89 6q7 8 21 26q63 82 108 116q25 20 38 20q44 0 75 -36q10 -11 6 -12q-1 -1 -4 1q-39 20 -128 -98z" />
    <glyph glyph-name="t.alt_l" horiz-adv-x="420" 
d="M459 561q23 -4 21 -9q-3 -5 -21 -4q-27 0 -73 -2q-94 -110 -183 -255q-69 -112 -152 -279q-18 -38 -26 -77q-16 -45 18 -49q-35 -14 -57 8t-18 67q2 24 31 108q20 57 91 184q62 113 180 276q-51 -12 -90 -30t-55 -32.5t-15 -22.5q0 -11 -15 -3q-23 14 -27 44
q-2 28 66 49.5t164 29.5l26 35q75 92 108 118q22 18 38 18q42 1 73 -35q10 -11 7 -12q-1 -1 -4 1q-18 9 -48.5 -17t-77.5 -85l-16 -21q39 -2 55 -5zM358 372q79 124 179 252q44 60 82 91q25 20 37 20q43 2 75 -32q11 -12 6 -13q-1 -1 -4 1q-7 1 -12.5 1.5t-14.5 -5.5
t-16 -11t-17 -15.5t-17 -18.5t-17.5 -21t-17 -21.5t-16 -21t-15.5 -19.5q-60 -77 -134 -187q-149 -226 -188 -326q12 -1 37.5 14t61 45t62 54t64 59.5t45.5 42.5q4 4 7 -1v-5q-64 -71 -154.5 -160t-129.5 -103q-15 -5 -33 4q-7 3 -19 16t-17 24q-4 8 -4 15q0 53 170 321z
" />
    <glyph glyph-name="z_j" horiz-adv-x="582" 
d="M165 -281q63 144 184 340q-35 4 -77 4t-70 -4q-44 -6 -88 -23.5t-70 -31.5t-31 -14q-11 0 -34 28t-17 39q30 56 166 148.5t215 117.5q-43 -12 -98 -12q-68 0 -89 16q-17 15 -2 38.5t41 29.5q-10 -24 27 -43t84 -16q41 3 83 22t48 31q3 6 18 -9.5t26 -37.5t5 -31
q-56 -7 -211.5 -98t-203.5 -143q42 25 155 25q69 0 138 -12q140 221 241 306q7 6 14 6q18 0 40.5 -23t22.5 -42q0 -2 -4 -1q-4 3 -7 3q-12 1 -35 -23q-92 -96 -192 -246q73 -25 106 -62q6 -7 0 -8q-2 0 -4 2q-30 30 -113 50q-90 -137 -221 -381q55 77 145.5 165.5
t114.5 95.5l5 -6q-96 -77 -188.5 -206.5t-103.5 -175.5q-3 -3 -12 -3q-26 -3 -40.5 24t-10.5 45q4 30 43 116zM734 551q27 4 58 -32q4 -5 7.5 -11t4 -9.5t-0.5 -4.5h-3q-2 1 -4 1.5t-6 0t-8 -2.5q-12 -5 -39 -28.5t-36 -36.5q-11 -12 -23 -3t-13 24q-2 22 21 59t42 43z" />
    <glyph glyph-name="L.alt" horiz-adv-x="970" 
d="M1243 736q-13 -132 -191 -281.5t-409 -213.5q-216 -272 -302 -326q74 34 180 54.5t211 20.5q183 0 274 -59q-69 22 -172 22q-165 0 -345 -53t-282 -140q-18 -16 -50 14t-34 65q204 140 387 358l16 20q-60 -9 -118 -9q-128 0 -221.5 46.5t-101.5 114.5q-3 22 24 55
q14 15 33.5 24t31.5 9t18 -1q-15 -5 -27.5 -16.5t-13.5 -24.5q-2 -56 85 -109t217 -53q28 0 58 3q37 4 52 7q33 41 97.5 125t103 133.5t97.5 116t101.5 103.5t92.5 64.5t93 28.5q45 1 72.5 -25.5t22.5 -72.5zM1144 806q-14 -4 -32 -16t-41 -34t-43.5 -42.5t-52 -57t-53 -62
t-59 -72.5t-58 -73t-62 -79.5t-60.5 -77.5q114 38 216 107.5t163.5 140.5t96 133.5t30.5 96.5q-2 21 -14 31.5t-31 4.5z" />
    <glyph glyph-name="M.alt" horiz-adv-x="1489" 
d="M1183 580q-97 -52 -229 -170.5t-254 -251.5q-196 -223 -196 -273q0 -9 51 14q5 2 4 1q-16 -22 -47.5 -35.5t-50.5 -13.5q-13 0 -23 11.5t-10 25.5q0 43 80 171t176 261t176 264.5t80 178.5q0 55 -83 55q-79 0 -183.5 -49t-199 -121t-177.5 -148t-132 -136t-49 -79
q0 -18 20 -18q22 0 49 8q0 -7 -32.5 -20t-50.5 -13q-23 0 -38 16t-15 39q0 59 85 153t206 180.5t265.5 149.5t251.5 63q71 0 108.5 -34t37.5 -96q0 -110 -298 -516q133 150 267 271.5t215 177.5t106 56q26 0 55 -21.5t33 -49.5q-5 8 -21 8q-20 0 -95.5 -99.5t-163.5 -241.5
t-138 -249q58 97 148 203t181 191t177.5 155t148 109t81.5 39q24 0 53 -28.5t32 -47.5q-9 6 -32 6q-33 0 -115 -84.5t-166 -197.5t-148.5 -235.5t-64.5 -188.5q0 -49 53 -49q45 0 115 35t149 100q-84 -84 -169 -131t-145 -47q-79 0 -79 78q0 68 33.5 158.5t81.5 172
t96 146.5t82 99q-70 -32 -198 -152.5t-229.5 -248t-101.5 -174.5q0 -13 -26 1q-36 18 -42 47q-1 4 -1 8q0 71 121.5 288.5t184.5 278.5z" />
    <glyph glyph-name="N.alt" horiz-adv-x="1187" 
d="M1442 651q-41 0 -171.5 -164t-221.5 -327q-65 -115 -65 -190q0 -49 54 -49q45 0 115 35.5t148 99.5q-84 -84 -169 -131t-145 -47q-79 0 -79 78q0 77 47 191q45 110 127 234.5t160 208.5q-142 -82 -288 -198t-245.5 -217t-163 -180t-63.5 -102q0 -8 52 14q5 2 4 1
q-17 -22 -48.5 -35.5t-49.5 -13.5q-13 0 -23 11.5t-10 25.5q0 43 79.5 170t174.5 258.5t174.5 261.5t79.5 177q0 55 -84 55q-79 0 -184 -49t-199 -121t-176.5 -148t-131.5 -136t-49 -79q0 -18 19 -18q22 0 49 8q0 -7 -33 -20t-51 -13q-23 0 -37 16t-14 39q0 59 85 153
t206 180.5t265.5 149.5t250.5 63q71 0 108 -34t37 -96q0 -128 -362 -602q109 133 282.5 280.5t312.5 238.5t180 91q21 0 51 -31t28 -51q-7 12 -26 12z" />
    <glyph glyph-name="K.alt" horiz-adv-x="1072" 
d="M386 -135q1 60 46.5 149.5t128.5 213.5q-48 105 -37 139q20 40 69 53q15 5 16 1q0 -1 -3 -3q-12 -9 -12 -26q0 -20 24 -82q18 25 52 73.5t53 75.5t47.5 68t45 67.5t34.5 57.5t28.5 55.5t15.5 43.5q5 24 -9.5 36t-38.5 13q-97 2 -234.5 -62t-250.5 -150t-187.5 -177.5
t-58.5 -141.5q4 -13 37 -13q10 0 45 5q0 -4 -13 -11.5t-34.5 -14t-39.5 -6.5q-28 1 -47.5 17.5t-20.5 38.5q-4 83 80 181t208.5 176t271.5 130.5t261 52.5q50 0 74 -23t25 -60q1 -36 -18.5 -86t-66.5 -122.5t-80.5 -120.5t-102.5 -142q-25 -35 -38 -52q89 93 180 184
q225 221 432 348.5t327 123.5q17 0 29 -14.5t13 -29.5q0 -25 -18.5 -53t-36.5 -42q14 13 19 46q0 13 -15 17q-86 17 -297.5 -98t-440.5 -331q-103 -97 -181 -176q59 -102 155 -176.5t181 -74.5q41 0 71 18q11 6 12.5 2.5t-6.5 -7.5q-69 -49 -144 -49q-86 0 -170.5 62
t-153.5 168q-20 -21 -56 -61q-105 -154 -129 -245q-2 -22 19 -24q-8 -2 -15 -2q-20 0 -33 16.5t-12 43.5zM1580 734l2 2z" />
    <glyph glyph-name="R.alt" horiz-adv-x="1030" 
d="M561 153q69 -101 140.5 -160t158.5 -59q84 0 176 61q10 6 11 3q1 -2 -4 -5q-107 -101 -218 -101q-175 0 -335 236q-4 5 -21 33q-78 -104 -141 -200t-63 -113q0 -10 9 -10q41 0 76 21q-4 -3 -20 -14.5t-26 -18t-25 -13t-27 -6.5q-33 0 -33 42q0 47 65 164t143 230l-4 11
q-13 38 -11 50q9 46 54 73q22 13 21 6q0 -1 -2 -4q-9 -12 -6 -38q2 -10 6 -20q50 66 100.5 126.5t109 123t109.5 99.5t83 37q54 0 85 -36q-21 10 -77 -34t-126.5 -120t-128 -143.5t-106.5 -129.5q115 6 269.5 66t271 153.5t111.5 178.5q-4 53 -49 91.5t-104.5 55.5
t-120.5 17q-127 0 -274 -53t-259 -125.5t-187 -149t-75 -123.5q0 -28 18 -47.5t38 -21.5q-4 -5 -26 -5q-49 0 -76 27.5t-25 68.5q4 74 80.5 156t192 148.5t264.5 110t288 43.5q57 0 115 -11t117 -35.5t98.5 -72.5t43.5 -112q6 -90 -94 -186.5t-253.5 -159t-294.5 -62.5
q-32 0 -70 5q15 -29 28 -48z" />
    <glyph glyph-name="X.alt" horiz-adv-x="1058" 
d="M1083 7q-136 -136 -274 -160q-16 -3 -31 -3q-125 0 -125 218q0 73 14 185q-110 -104 -181.5 -169t-160.5 -140t-152.5 -111.5t-102.5 -36.5q-18 0 -33 28t-7 57q12 39 71 103q-13 -20 -24.5 -51.5t-9.5 -37.5q65 0 242 120t366 295q46 311 46 383q0 59 -15 73
q-18 15 -43 15q-70 0 -184.5 -94t-200 -206.5t-85.5 -165.5q0 -13 31 -13q1 0 36 5q-1 -7 -26.5 -20t-47.5 -12t-38.5 18t-16.5 38q0 48 56.5 129t136.5 157t177 132t169 56q52 0 85 -29q43 -36 43 -136q0 -62 -29 -240q207 202 332 305t214 136q41 15 78 15q17 0 29 -15
t13 -30q1 -38 -50 -89q11 13 16 47q0 13 -15 16q-54 10 -166.5 -66.5t-303.5 -236.5q-67 -59 -156 -142q-4 -25 -10 -73q-20 -175 -20 -247q0 -75 18 -98t63 -25q47 -2 122 30t150 86z" />
    <glyph glyph-name="Q.alt" horiz-adv-x="919" 
d="M864 810q-107 -2 -233 -72.5t-225.5 -170t-167.5 -211.5t-69 -193q1 -50 56 -44q44 5 117 62q-28 -46 -75 -77.5t-79 -34.5q-53 -5 -74 24.5t-21 68.5q1 60 33 135t86 148.5t128.5 144.5t155.5 125t173 88t177 35q109 2 180 -52.5t70 -164.5q-1 -111 -77.5 -241.5
t-178.5 -233t-210 -174.5q125 -48 205.5 -101.5t88.5 -91.5q-2 1 -6 5q-120 102 -353 150q-182 -100 -344 -103q-17 0 -33 2t-34 8t-28.5 20t-10.5 35q1 46 67.5 87.5t160.5 42.5q93 3 195 -25q115 77 228.5 198t187.5 249t75 216q1 77 -44.5 112.5t-120.5 33.5zM217 -145
q60 1 116.5 25.5t131.5 71.5q-67 7 -107 7q-83 -2 -150.5 -19t-67.5 -49q0 -36 77 -36z" />
    <glyph glyph-name="j.alt_t" horiz-adv-x="451" 
d="M607 568q117 8 271 0.5t260 -29.5l7 -3h-7q-320 28 -564 -10q-38 -50 -108 -154q-151 -226 -187 -323q12 -1 37 13.5t61 45t61 52.5t64.5 59.5t44.5 41.5t7 -1v-5q-57 -66 -150 -156t-133 -104q-14 -6 -32 4q-7 3 -19.5 16.5t-16.5 23.5q-3 6 -3 15q0 55 168 318l76 113
q-7 4 -20 17q-19 22 1.5 36t73.5 23l47 63q47 61 83 91q25 20 37 20q43 2 75 -33q12 -13 6 -12q-1 0 -3 1q-21 9 -53 -23t-76 -89q-5 -8 -8 -11zM-218 -281q63 144 195.5 358.5t243.5 311.5q8 6 15 6q18 0 40.5 -23t22.5 -42q0 -3 -4 -1q-1 1 -2 1.5t-2.5 1t-3.5 0.5
q-11 1 -35 -23q-110 -117 -205.5 -268.5t-217.5 -376.5q56 77 168.5 190t136.5 120l4 -6q-96 -77 -211 -231.5t-126 -199.5q-1 -3 -11 -3q-26 -3 -40.5 24t-11.5 45q4 33 44 116zM341 548q25 3 58 -32q4 -5 7.5 -11t4 -9.5t-0.5 -4.5l-2 1q-3 0 -5.5 0.5t-6.5 0t-8 -2.5
q-12 -5 -39 -28.5t-36 -36.5q-10 -12 -22.5 -3t-13.5 24q-1 22 21.5 59t42.5 43z" />
    </font>
</defs>
</svg>
